<svg width="180" height="222" viewBox="0 0 180 222" fill="none" xmlns="http://www.w3.org/2000/svg">
<path d="M15.4458 196.782C15.4458 197.086 14.8093 197.354 13.8581 197.496C13.6238 197.533 13.4072 197.64 13.2395 197.804C13.0717 197.968 12.9615 198.18 12.9245 198.409C12.775 199.339 12.5045 199.961 12.1937 199.961C11.8829 199.961 11.6125 199.339 11.4629 198.409C11.4262 198.18 11.316 197.968 11.1482 197.804C10.9804 197.64 10.7637 197.532 10.5293 197.496C9.5775 197.351 8.9397 197.086 8.9397 196.782C8.9397 196.478 9.57685 196.21 10.528 196.067C10.7628 196.031 10.9798 195.924 11.1478 195.76C11.3159 195.595 11.4262 195.383 11.4629 195.154C11.6125 194.224 11.8829 193.601 12.1937 193.601C12.5045 193.601 12.775 194.224 12.9245 195.154C12.9607 195.384 13.0708 195.597 13.2388 195.761C13.4069 195.926 13.6243 196.034 13.8594 196.07C14.8093 196.212 15.4458 196.477 15.4458 196.782Z" fill="white"/>
<path d="M158.133 148.147C158.059 148.477 157.3 148.616 156.227 148.551C155.963 148.535 155.7 148.601 155.477 148.741C155.254 148.88 155.081 149.085 154.985 149.326C154.595 150.304 154.144 150.918 153.806 150.845C153.468 150.772 153.326 150.03 153.392 148.982C153.408 148.723 153.34 148.467 153.198 148.248C153.055 148.03 152.846 147.861 152.599 147.767C151.598 147.385 150.967 146.945 151.039 146.614C151.11 146.283 151.875 146.142 152.947 146.208C153.212 146.225 153.475 146.158 153.698 146.019C153.922 145.88 154.095 145.675 154.192 145.434C154.582 144.454 155.032 143.84 155.37 143.914C155.708 143.987 155.851 144.729 155.784 145.778C155.768 146.037 155.836 146.294 155.978 146.512C156.121 146.73 156.331 146.899 156.578 146.993C157.581 147.375 158.209 147.814 158.133 148.147Z" fill="white"/>
<path d="M180 35.7851C180 36.1842 179.163 36.5318 177.912 36.7238C177.604 36.7711 177.319 36.9128 177.099 37.1284C176.878 37.3439 176.733 37.6224 176.684 37.9236C176.489 39.1457 176.132 39.9642 175.723 39.9642C175.315 39.9642 174.959 39.1457 174.763 37.9236C174.714 37.6224 174.569 37.3441 174.348 37.1286C174.128 36.913 173.843 36.7713 173.535 36.7238C172.284 36.5331 171.445 36.1842 171.445 35.7851C171.445 35.386 172.28 35.0327 173.531 34.842C173.839 34.7946 174.124 34.6529 174.345 34.4372C174.566 34.2215 174.712 33.943 174.76 33.6416C174.955 32.4182 175.312 31.5997 175.721 31.5997C176.129 31.5997 176.485 32.4182 176.682 33.6416C176.73 33.943 176.875 34.2215 177.096 34.4373C177.317 34.653 177.602 34.7947 177.91 34.842C179.16 35.0327 180 35.3835 180 35.7851Z" fill="white"/>
<path d="M152.413 96.1827C152.881 95.7248 152.881 94.9824 152.413 94.5245C151.945 94.0666 151.185 94.0667 150.717 94.5245C150.248 94.9824 150.248 95.7248 150.717 96.1827C151.185 96.6406 151.945 96.6406 152.413 96.1827Z" fill="white"/>
<path d="M158.092 177.339C158.155 176.737 157.706 176.2 157.091 176.139C156.476 176.078 155.927 176.516 155.864 177.118C155.802 177.719 156.25 178.256 156.865 178.317C157.48 178.378 158.03 177.94 158.092 177.339Z" fill="white"/>
<path d="M120.936 173.648C121.696 173.454 122.151 172.695 121.953 171.952C121.754 171.209 120.978 170.764 120.218 170.958C119.458 171.152 119.003 171.911 119.201 172.654C119.399 173.396 120.176 173.842 120.936 173.648Z" fill="white"/>
<path d="M11.2892 64.3135C11.5335 63.4313 11 62.5225 10.0975 62.2837C9.19493 62.0448 8.26519 62.5663 8.02083 63.4485C7.77647 64.3307 8.31001 65.2395 9.21253 65.4784C10.1151 65.7172 11.0448 65.1957 11.2892 64.3135Z" fill="white"/>
<path d="M157.48 14.3327C157.949 13.8748 157.949 13.1324 157.48 12.6745C157.012 12.2166 156.252 12.2166 155.784 12.6745C155.316 13.1324 155.316 13.8748 155.784 14.3327C156.252 14.7906 157.012 14.7905 157.48 14.3327Z" fill="white"/>
<path d="M39.0079 19.335C39.9332 19.2034 40.5741 18.3635 40.4395 17.4591C40.3048 16.5547 39.4456 15.9282 38.5203 16.0598C37.5951 16.1914 36.9541 17.0313 37.0888 17.9358C37.2234 18.8402 38.0827 19.4667 39.0079 19.335Z" fill="white"/>
<path d="M2.16572 186.502C2.90971 186.502 3.51284 185.913 3.51284 185.185C3.51284 184.458 2.90971 183.869 2.16572 183.869C1.42173 183.869 0.818604 184.458 0.818604 185.185C0.818604 185.913 1.42173 186.502 2.16572 186.502Z" fill="white"/>
<path d="M175.825 80.577C176.166 80.577 176.442 80.307 176.442 79.9739C176.442 79.6408 176.166 79.3708 175.825 79.3708C175.484 79.3708 175.208 79.6408 175.208 79.9739C175.208 80.307 175.484 80.577 175.825 80.577Z" fill="white"/>
<path d="M124.12 205.704C124.341 205.374 124.246 204.93 123.908 204.714C123.57 204.498 123.117 204.591 122.896 204.921C122.675 205.251 122.769 205.695 123.107 205.911C123.445 206.127 123.899 206.034 124.12 205.704Z" fill="white"/>
<path d="M52.0147 48.3192C52.405 48.0448 52.4938 47.513 52.213 47.1315C51.9323 46.75 51.3883 46.6632 50.998 46.9376C50.6077 47.2121 50.5189 47.7438 50.7996 48.1253C51.0804 48.5069 51.6244 48.5936 52.0147 48.3192Z" fill="white"/>
<path d="M22.0362 83.1336C22.0448 83.3017 22.0023 83.4685 21.9139 83.613C21.8256 83.7574 21.6954 83.873 21.5399 83.9452C21.3844 84.0173 21.2104 84.0428 21.0401 84.0183C20.8697 83.9938 20.7107 83.9205 20.5829 83.8077C20.4552 83.6948 20.3646 83.5475 20.3225 83.3843C20.2805 83.2211 20.2888 83.0494 20.3466 82.8909C20.4044 82.7323 20.509 82.5941 20.6471 82.4936C20.7852 82.3932 20.9507 82.335 21.1227 82.3265C21.2369 82.3209 21.3511 82.3373 21.4588 82.3748C21.5665 82.4123 21.6656 82.4702 21.7505 82.5451C21.8353 82.6201 21.9042 82.7106 21.9532 82.8116C22.0022 82.9126 22.0304 83.022 22.0362 83.1336Z" fill="white"/>
<path d="M14.8375 140.097C14.8374 140.231 14.7966 140.362 14.7203 140.473C14.644 140.584 14.5357 140.671 14.409 140.722C14.2822 140.773 14.1428 140.787 14.0084 140.76C13.874 140.734 13.7505 140.669 13.6537 140.574C13.5569 140.48 13.4911 140.359 13.4645 140.227C13.438 140.096 13.4519 139.96 13.5046 139.836C13.5573 139.712 13.6463 139.606 13.7604 139.532C13.8746 139.458 14.0087 139.418 14.1458 139.419C14.3294 139.419 14.5054 139.491 14.6351 139.618C14.7647 139.745 14.8375 139.917 14.8375 140.097Z" fill="white"/>
<path d="M2.86295 129.476C3.46582 128.997 3.55808 128.132 3.069 127.543C2.57993 126.954 1.69473 126.863 1.09185 127.341C0.488974 127.82 0.396712 128.685 0.885785 129.274C1.37486 129.863 2.26007 129.954 2.86295 129.476Z" fill="white"/>
<path d="M114.238 110.949C114.066 110.949 113.9 110.882 113.779 110.763C113.657 110.644 113.588 110.482 113.588 110.314V83.1629C113.588 82.9943 113.657 82.8327 113.779 82.7135C113.9 82.5943 114.066 82.5274 114.238 82.5274C114.411 82.5274 114.576 82.5943 114.698 82.7135C114.82 82.8327 114.888 82.9943 114.888 83.1629V110.314C114.888 110.482 114.82 110.644 114.698 110.763C114.576 110.882 114.411 110.949 114.238 110.949Z" fill="#371A45"/>
<path d="M111.605 109.817C111.451 109.817 111.302 109.764 111.184 109.666C111.067 109.569 110.989 109.433 110.964 109.285L104.285 69.6927C104.257 69.5263 104.298 69.3559 104.399 69.2189C104.499 69.0819 104.651 68.9895 104.821 68.9621C104.992 68.9347 105.166 68.9746 105.306 69.0728C105.446 69.1711 105.541 69.3198 105.569 69.4861L112.246 109.078C112.274 109.245 112.234 109.415 112.133 109.552C112.033 109.689 111.881 109.781 111.711 109.808C111.676 109.815 111.64 109.817 111.605 109.817Z" fill="#371A45"/>
<path d="M116.012 112.604C115.972 112.604 115.932 112.601 115.893 112.593C115.723 112.562 115.573 112.467 115.476 112.328C115.378 112.189 115.341 112.018 115.373 111.852L124.533 63.8078C124.548 63.7254 124.58 63.6467 124.627 63.5763C124.673 63.5058 124.733 63.4451 124.804 63.3975C124.874 63.3499 124.954 63.3164 125.038 63.299C125.122 63.2815 125.208 63.2805 125.292 63.2959C125.377 63.3112 125.457 63.3427 125.529 63.3886C125.6 63.4344 125.662 63.4937 125.71 63.5629C125.759 63.6322 125.792 63.7101 125.81 63.7921C125.827 63.8742 125.828 63.9588 125.811 64.0411L116.651 112.085C116.623 112.231 116.544 112.363 116.427 112.457C116.311 112.552 116.164 112.604 116.012 112.604Z" fill="#371A45"/>
<path d="M61.9412 143.789L61.7396 147.92L61.6376 150.026L59.8685 186.336C59.8685 186.336 57.3426 186.077 53.984 185.464C53.3266 185.344 52.6381 185.21 51.9301 185.064C46.6535 183.968 40.3151 182.08 38.1859 179.111C35.0001 174.671 36.7965 155.029 41.0329 147.653C42.9736 144.272 50.8047 143.621 56.3115 143.599C56.9272 143.595 57.5143 143.599 58.0598 143.612C60.3613 143.658 61.9412 143.789 61.9412 143.789Z" fill="white"/>
<g opacity="0.35">
<path opacity="0.35" d="M61.7371 147.922L61.635 150.028L60.2307 178.859L59.8659 186.338L59.7131 186.322L59.615 186.31L59.5226 186.299C59.4979 186.299 59.4732 186.294 59.4485 186.292C59.4394 186.292 59.4277 186.292 59.4186 186.288C59.3731 186.283 59.3224 186.277 59.2697 186.27C59.2575 186.269 59.2454 186.268 59.2333 186.266L59.0955 186.249C59.0305 186.242 58.9616 186.233 58.89 186.224C58.8387 186.216 58.7841 186.21 58.7295 186.203L58.5578 186.181C58.4844 186.172 58.4063 186.161 58.3277 186.151C58.1671 186.13 57.9967 186.108 57.8173 186.081C57.6593 186.061 57.4922 186.037 57.3193 186.012C57.119 185.982 56.9097 185.952 56.6925 185.919C55.8902 185.797 54.9722 185.648 53.9814 185.467C53.7863 185.432 53.5913 185.395 53.3962 185.358L52.9749 185.277C52.6336 185.213 52.2825 185.14 51.9295 185.067C46.6509 183.97 40.3145 182.083 38.1872 179.113C35.5651 175.458 36.3161 161.494 39.0324 152.558C37.7828 160.458 37.8413 169.065 39.8178 171.821C40.793 173.183 42.7981 174.322 45.2011 175.264C46.225 175.665 47.2894 174.8 47.1041 173.739C47.1041 173.73 47.1008 173.721 47.0995 173.713C46.7673 171.765 46.6743 169.565 46.9617 167.02C47.5767 161.567 49.2535 153.807 56.0294 148.117C56.1867 147.981 58.6996 147.945 61.7371 147.922Z" fill="#371A45"/>
</g>
<path d="M60.8568 187.462L59.7613 187.351C59.0142 187.274 41.4321 185.415 37.3309 179.698C34.9156 176.33 35.5385 167.134 35.7875 164.395C36.292 158.831 37.6963 151.38 40.1221 147.158C43.4287 141.402 60.1331 142.618 62.027 142.773L63.0263 142.856L60.8568 187.462ZM56.647 144.608C50.951 144.608 43.5893 145.283 41.9399 148.154C37.6326 155.653 36.3278 174.748 39.0382 178.532C41.7897 182.369 53.4099 184.528 58.8829 185.204L60.8535 144.734C59.6858 144.658 58.2301 144.608 56.647 144.608Z" fill="#371A45"/>
<path d="M40.0876 164.627L47.2965 165.825C47.6095 165.877 47.8961 166.028 48.1113 166.256C48.3264 166.484 48.4579 166.776 48.485 167.085C48.6891 169.413 48.8751 174.815 46.4279 176.368C44.3968 177.658 41.343 177.205 39.6864 175.551C37.8341 173.702 38.1397 168.449 38.4206 165.861C38.4408 165.67 38.5009 165.486 38.5971 165.319C38.6933 165.152 38.8237 165.006 38.98 164.89C39.1363 164.775 39.3153 164.692 39.5058 164.646C39.6964 164.601 39.8944 164.595 40.0876 164.627Z" fill="white"/>
<g opacity="0.35">
<path opacity="0.35" d="M48.4862 167.085C48.691 169.413 48.8763 174.815 46.4285 176.368C44.3967 177.658 41.3443 177.205 39.687 175.55C38.5486 174.412 38.2255 171.988 38.2112 169.688C38.429 170.856 38.8535 171.828 39.4341 172.493C42.7603 176.306 45.885 172.456 45.885 172.456C45.885 172.456 46.2633 173.495 46.6359 173.585C48.1962 173.967 48.3302 169.102 48.3412 166.583C48.4221 166.74 48.4713 166.911 48.4862 167.085Z" fill="#371A45"/>
</g>
<path d="M43.6901 178.129C41.9457 178.129 40.1676 177.484 38.944 176.263C36.9285 174.254 36.9864 169.439 37.3836 165.753C37.4193 165.425 37.5235 165.107 37.6898 164.819C37.8561 164.531 38.0809 164.28 38.3504 164.08C38.6199 163.881 38.9284 163.737 39.2568 163.659C39.5852 163.58 39.9266 163.568 40.2599 163.624L47.4688 164.822C48.0089 164.911 48.5032 165.174 48.8744 165.568C49.2456 165.961 49.4727 166.464 49.52 166.998C49.7872 170.048 49.8139 175.43 46.9922 177.221C46.0326 177.831 44.8688 178.129 43.6901 178.129ZM39.847 165.624C39.7618 165.625 39.679 165.652 39.611 165.703C39.5683 165.734 39.5326 165.774 39.5063 165.82C39.48 165.866 39.4637 165.916 39.4583 165.968C38.9804 170.363 39.3536 173.763 40.4335 174.839C41.7787 176.179 44.3143 176.497 45.8629 175.515C47.2178 174.654 47.8257 171.458 47.4499 167.172C47.4426 167.087 47.4066 167.008 47.3477 166.945C47.2889 166.883 47.2104 166.842 47.1249 166.828L39.9153 165.63C39.8927 165.626 39.8699 165.624 39.847 165.624Z" fill="#371A45"/>
<path d="M42.4979 176.443C42.5667 176.421 42.6339 176.395 42.6988 176.363C42.7761 176.326 42.8548 176.288 42.9322 176.242C43.091 176.152 43.243 176.052 43.3873 175.941C43.6883 175.715 43.9618 175.456 44.2026 175.169C44.7065 174.571 45.1005 173.893 45.367 173.164C45.6433 172.425 45.8175 171.639 45.9521 170.836C46.0744 170.037 46.1829 169.224 46.088 168.412C46.2909 169.209 46.2915 170.044 46.2759 170.865C46.2499 171.685 46.181 172.517 45.9918 173.343C45.8027 174.187 45.4655 174.993 44.9951 175.725C44.753 176.103 44.4679 176.454 44.1454 176.77C43.9807 176.933 43.8047 177.085 43.6187 177.224C43.5264 177.296 43.4237 177.364 43.3242 177.43C43.2104 177.504 43.0911 177.569 42.9673 177.626L42.912 177.651C42.8338 177.686 42.7492 177.707 42.663 177.71C42.5768 177.714 42.4907 177.701 42.4097 177.672C42.3286 177.643 42.2542 177.599 42.1906 177.542C42.127 177.485 42.0756 177.416 42.0392 177.34C42.0028 177.263 41.9821 177.181 41.9784 177.096C41.9747 177.012 41.988 176.928 42.0175 176.849C42.0471 176.769 42.0923 176.697 42.1506 176.635C42.2089 176.572 42.2792 176.522 42.3574 176.487C42.4025 176.467 42.4496 176.452 42.4979 176.443Z" fill="#371A45"/>
<path d="M51.9535 148.63C51.0816 148.503 50.1922 148.396 49.31 148.303C48.4277 148.21 47.5415 148.132 46.6599 148.079C45.7783 148.025 44.8974 147.987 44.0281 147.995C43.1588 148.002 42.2967 148.038 41.4977 148.162C41.3625 148.183 41.2245 148.177 41.0915 148.146C40.9584 148.115 40.833 148.058 40.7223 147.98C40.6117 147.901 40.518 147.802 40.4465 147.688C40.3751 147.574 40.3273 147.447 40.306 147.315C40.2846 147.183 40.2901 147.048 40.3221 146.918C40.3541 146.788 40.412 146.665 40.4925 146.557C40.573 146.449 40.6744 146.357 40.7911 146.287C40.9078 146.217 41.0375 146.171 41.1726 146.15C41.2051 146.145 41.2376 146.141 41.2714 146.139C42.2571 146.079 43.1888 146.132 44.1126 146.208C45.0365 146.284 45.9402 146.408 46.8433 146.546C47.7463 146.684 48.6344 146.846 49.5219 147.022C50.4094 147.198 51.289 147.387 52.1758 147.601C52.3105 147.632 52.4276 147.713 52.5025 147.827C52.5775 147.941 52.6045 148.079 52.578 148.212C52.5515 148.345 52.4734 148.462 52.3602 148.54C52.247 148.618 52.1073 148.651 51.9704 148.63L51.9535 148.63Z" fill="#371A45"/>
<path d="M119.964 28.3084C119.934 28.3752 119.91 28.4448 119.894 28.5162L119.964 28.3084Z" fill="#D66B09"/>
<path d="M121.275 50.5975L124.158 54.0566C124.346 54.2817 124.471 54.5512 124.518 54.8381C124.566 55.1249 124.536 55.419 124.43 55.6908C124.325 55.9625 124.148 56.2023 123.918 56.3861C123.687 56.5699 123.412 56.6912 123.118 56.7378L118.611 57.4496C118.318 57.4959 118.017 57.4659 117.739 57.3625C117.461 57.2591 117.215 57.086 117.027 56.8606C116.84 56.6351 116.716 56.3653 116.668 56.0783C116.621 55.7912 116.652 55.497 116.758 55.2253L118.383 51.0545C118.489 50.784 118.667 50.5455 118.897 50.3628C119.127 50.1802 119.402 50.0597 119.695 50.0135C119.987 49.9672 120.287 49.9968 120.564 50.0993C120.842 50.2018 121.087 50.3736 121.275 50.5975Z" fill="#E25A5A"/>
<g opacity="0.35">
<path opacity="0.35" d="M121.407 50.5594L124.312 54.0013C124.501 54.2256 124.627 54.4946 124.676 54.7813C124.726 55.0681 124.697 55.3624 124.593 55.6348C124.489 55.9072 124.313 56.148 124.084 56.3331C123.854 56.5181 123.579 56.6408 123.286 56.6889L118.784 57.4273C118.491 57.4755 118.189 57.4474 117.911 57.3457C117.632 57.244 117.386 57.0724 117.196 56.8481C117.007 56.6238 116.881 56.3548 116.832 56.068C116.783 55.7813 116.812 55.4869 116.916 55.2145L118.512 51.0341C118.616 50.7619 118.792 50.5212 119.021 50.3362C119.251 50.1513 119.526 50.0286 119.819 49.9805C120.113 49.9324 120.414 49.9605 120.692 50.0622C120.971 50.1638 121.217 50.3353 121.407 50.5594Z" fill="#371A45"/>
</g>
<path d="M118.325 58.5706C117.869 58.5682 117.421 58.458 117.019 58.2495C116.617 58.041 116.272 57.7404 116.014 57.3733C115.757 57.0062 115.594 56.5835 115.54 56.1415C115.486 55.6995 115.542 55.2513 115.704 54.8351L117.329 50.6643C117.504 50.2122 117.799 49.8133 118.182 49.5076C118.565 49.202 119.024 49.0004 119.513 48.9231C120.001 48.8458 120.502 48.8955 120.964 49.0673C121.427 49.2391 121.835 49.5268 122.147 49.9017L125.031 53.3607C125.344 53.7355 125.55 54.1842 125.629 54.6615C125.708 55.1389 125.657 55.6282 125.481 56.0801C125.305 56.5321 125.01 56.9309 124.627 57.2363C124.243 57.5417 123.784 57.7431 123.296 57.8201L118.79 58.5319C118.636 58.5571 118.481 58.5701 118.325 58.5706ZM119.963 51.0862C119.932 51.0861 119.9 51.0884 119.869 51.0932C119.77 51.1079 119.677 51.1484 119.599 51.2103C119.521 51.2722 119.462 51.3534 119.427 51.4453L117.805 55.6161C117.769 55.7076 117.758 55.8067 117.774 55.9035C117.79 56.0002 117.832 56.0912 117.895 56.1671C117.958 56.2431 118.041 56.3013 118.135 56.336C118.229 56.3707 118.33 56.3807 118.429 56.3648L122.935 55.653C123.034 55.6375 123.127 55.5968 123.205 55.5351C123.282 55.4733 123.342 55.3926 123.378 55.3011C123.413 55.2096 123.424 55.1106 123.408 55.0139C123.392 54.9173 123.35 54.8265 123.287 54.7506L120.403 51.2915C120.35 51.2267 120.284 51.1746 120.207 51.139C120.131 51.1034 120.048 51.0854 119.963 51.0862Z" fill="#371A45"/>
<path d="M93.5392 28.363C96.2523 40.84 112.11 53.7198 120.177 52.0446C128.243 50.3694 137.369 32.2962 134.656 19.8199C131.942 7.3436 120.539 -0.85826 109.184 1.50138C97.8302 3.86102 90.8254 15.8867 93.5392 28.363Z" fill="#00D7ED"/>
<g opacity="0.7">
<path opacity="0.7" d="M93.5392 28.3637C93.5476 28.4005 93.5554 28.4374 93.5639 28.4749C92.2987 16.9868 99.0902 6.45072 109.64 4.26203C120.883 1.92654 132.175 9.94411 135.028 22.2151C134.95 21.4117 134.826 20.6133 134.656 19.8237C131.942 7.34679 120.539 -0.855075 109.184 1.50393C97.8302 3.86294 90.8254 15.8867 93.5392 28.3637Z" fill="white"/>
</g>
<g opacity="0.35">
<path opacity="0.35" d="M93.5388 28.3636C96.2526 40.8406 112.11 53.7204 120.176 52.0452C128.241 50.37 137.369 32.2955 134.655 19.8205C134.63 19.7049 134.605 19.5917 134.578 19.4792C134.378 29.4809 125.915 41.8593 118.738 43.3502C110.672 45.0267 95.3872 34.7785 93.1357 24.4273C93.0707 24.1229 93.0122 23.8166 92.9622 23.5135C92.9973 25.1444 93.1903 26.7683 93.5388 28.3636Z" fill="#371A45"/>
</g>
<path d="M118.712 53.2845C114.638 53.2845 109.231 50.7424 104.108 46.3358C98.0917 41.1602 93.7298 34.5268 92.4392 28.5918C89.6013 15.5429 97.0079 2.90839 108.95 0.426734C120.892 -2.05492 132.917 6.54223 135.754 19.5898C137.046 25.5248 135.819 33.3168 132.48 40.4389C129.217 47.3908 124.593 52.2486 120.41 53.118C119.851 53.2311 119.282 53.2869 118.712 53.2845ZM113.099 2.19662C111.861 2.19751 110.627 2.32531 109.416 2.57793C98.6885 4.80792 92.057 16.2738 94.6368 28.1374C97.0709 39.3313 110.859 51.1002 118.619 51.1009C119.063 51.1037 119.506 51.0611 119.941 50.9738C127.335 49.4371 136.135 31.9142 133.555 20.0519C131.272 9.545 122.523 2.19662 113.099 2.19662Z" fill="#371A45"/>
<g opacity="0.5">
<path opacity="0.5" d="M110.941 7.60097C105.344 8.09095 101.767 10.3337 99.3426 14.0628C96.7713 18.0163 98.1451 21.2472 101.255 20.756C104.366 20.2647 104.831 15.3631 111.779 12.066C116.269 9.93455 115.359 7.21395 110.941 7.60097Z" fill="white"/>
</g>
<path d="M103.959 49.1683C103.928 49.2349 103.904 49.3046 103.888 49.3761L103.959 49.1683Z" fill="#D66B09"/>
<path d="M77.536 49.2229C80.2491 61.6992 96.1077 74.5797 104.174 72.9039C112.239 71.228 121.366 53.1554 118.653 40.6792C115.94 28.2029 104.533 20.0016 93.1788 22.3606C81.8245 24.7196 74.8204 36.7485 77.536 49.2229Z" fill="#FF2222"/>
<g opacity="0.7">
<path opacity="0.7" d="M77.5361 49.2229C77.5446 49.2604 77.553 49.2973 77.5608 49.3341C76.2963 37.8467 83.0871 27.31 93.6378 25.1213C104.88 22.7858 116.172 30.8027 119.026 43.0738C118.948 42.2703 118.823 41.4719 118.652 40.6823C115.939 28.2054 104.536 20.0042 93.1814 22.3632C81.8271 24.7222 74.8198 36.7485 77.5361 49.2229Z" fill="white"/>
</g>
<g opacity="0.35">
<path opacity="0.35" d="M77.8611 46.6809C80.5749 59.1578 96.4321 72.0376 104.498 70.3631C112.564 68.6885 121.691 50.6128 118.977 38.1377C118.953 38.0227 118.927 37.9096 118.901 37.7965C118.701 47.7987 110.237 60.1765 103.06 61.6681C94.9953 63.3439 79.7095 53.0976 77.4587 42.7452C77.3937 42.4408 77.3351 42.1345 77.2844 41.8313C77.3196 43.462 77.5127 45.0858 77.8611 46.6809Z" fill="#371A45"/>
</g>
<path d="M102.706 74.1437C98.6324 74.1437 93.2251 71.6017 88.1012 67.1951C82.086 62.0195 77.7241 55.3861 76.4329 49.4511C75.0637 43.1538 76.0116 36.7625 79.1031 31.4541C82.2193 26.1044 87.1351 22.4935 92.9442 21.286C98.7533 20.0786 104.747 21.4239 109.82 25.0717C114.853 28.6941 118.379 34.1531 119.749 40.451C121.039 46.386 119.814 54.178 116.473 61.3001C113.211 68.2513 108.586 73.1098 104.404 73.9785C103.845 74.0915 103.276 74.1469 102.706 74.1437ZM97.1228 23.0527C95.8755 23.0525 94.6316 23.1803 93.4117 23.434C88.2384 24.5087 83.8505 27.7428 81.0587 32.5402C78.2397 37.3796 77.3789 43.2225 78.6337 48.9935C81.0678 60.1867 94.8563 71.9557 102.617 71.957C103.06 71.9597 103.503 71.9171 103.938 71.8299C111.333 70.2932 120.132 52.7703 117.552 40.9073C116.297 35.1369 113.079 30.1418 108.489 26.8416C105.021 24.3485 101.088 23.0527 97.1228 23.0527Z" fill="#371A45"/>
<g opacity="0.5">
<path opacity="0.5" d="M94.9345 27.8247C89.3374 28.3147 85.7609 30.5612 83.3371 34.2872C80.7651 38.2401 82.1395 41.4684 85.2498 40.9797C88.3602 40.491 88.8257 35.5875 95.7732 32.2898C100.263 30.159 99.3523 27.4377 94.9345 27.8247Z" fill="white"/>
</g>
<path d="M133.345 49.5591C133.285 49.6029 133.23 49.6527 133.181 49.7078L133.345 49.5591Z" fill="#D66B09"/>
<path d="M123.523 69.7155L124.35 74.1005C124.404 74.3864 124.379 74.6812 124.28 74.9551C124.18 75.229 124.009 75.4724 123.782 75.6609C123.556 75.8495 123.283 75.9764 122.99 76.029C122.698 76.0816 122.396 76.0581 122.116 75.9607L117.814 74.466C117.534 74.3686 117.285 74.2008 117.092 73.9795C116.899 73.7582 116.77 73.4912 116.716 73.2053C116.662 72.9194 116.686 72.6247 116.786 72.3508C116.885 72.0769 117.057 71.8335 117.283 71.6449L120.758 68.7508C120.985 68.5623 121.258 68.4354 121.551 68.383C121.844 68.3305 122.146 68.3544 122.426 68.4522C122.706 68.55 122.955 68.7183 123.148 68.9401C123.341 69.1618 123.47 69.4293 123.523 69.7155Z" fill="#3BD8E0"/>
<g opacity="0.35">
<path opacity="0.35" d="M123.659 69.7441L124.513 74.1291C124.568 74.4147 124.546 74.7096 124.448 74.9841C124.35 75.2586 124.18 75.503 123.955 75.6929C123.73 75.8828 123.457 76.0113 123.165 76.0657C122.873 76.1201 122.571 76.0983 122.291 76.0026L117.98 74.5333C117.699 74.4377 117.449 74.2715 117.254 74.0514C117.06 73.8313 116.929 73.565 116.873 73.2793C116.817 72.9937 116.84 72.6988 116.938 72.4242C117.036 72.1497 117.206 71.9052 117.431 71.7155L120.888 68.801C121.113 68.6112 121.386 68.4826 121.678 68.4282C121.97 68.3737 122.271 68.3954 122.552 68.4909C122.833 68.5865 123.083 68.7526 123.277 68.9726C123.472 69.1926 123.603 69.4586 123.659 69.7441Z" fill="#371A45"/>
</g>
<path d="M122.695 77.1618C122.369 77.1614 122.046 77.1063 121.74 76.9991L117.439 75.5044C116.973 75.3423 116.558 75.0632 116.238 74.6951C115.917 74.3271 115.701 73.8829 115.611 73.4073C115.522 72.9318 115.562 72.4416 115.727 71.986C115.893 71.5303 116.179 71.1254 116.555 70.8118L120.03 67.9183C120.406 67.6046 120.861 67.3934 121.347 67.3058C121.834 67.2182 122.335 67.2574 122.802 67.4194C123.268 67.5814 123.682 67.8605 124.003 68.2286C124.324 68.5968 124.54 69.041 124.629 69.5166L125.456 73.9048C125.53 74.3014 125.515 74.7091 125.41 75.0992C125.306 75.4893 125.116 75.8524 124.852 76.1629C124.589 76.4733 124.26 76.7236 123.887 76.8962C123.514 77.0688 123.107 77.1594 122.695 77.1618ZM121.849 69.4562C121.716 69.4561 121.587 69.5038 121.487 69.5903L118.012 72.4838C117.935 72.5472 117.876 72.6294 117.842 72.722C117.808 72.8146 117.8 72.9144 117.818 73.0111C117.836 73.1079 117.88 73.1983 117.945 73.2731C118.011 73.3479 118.095 73.4045 118.19 73.4371L122.492 74.9318C122.586 74.9645 122.688 74.9723 122.786 74.9546C122.885 74.9368 122.977 74.894 123.053 74.8305C123.129 74.7671 123.187 74.6851 123.22 74.5929C123.254 74.5007 123.262 74.4014 123.244 74.3051L122.418 69.9201C122.4 69.8235 122.357 69.733 122.292 69.6583C122.227 69.5835 122.143 69.5271 122.048 69.495C121.985 69.4716 121.918 69.4585 121.851 69.4562H121.849Z" fill="#371A45"/>
<path d="M110.15 37.182C106.389 49.3958 113.953 68.1445 121.852 70.468C129.752 72.7914 146.643 61.2378 150.405 49.0234C154.166 36.8089 148.201 24.2576 137.086 20.988C125.971 17.7183 113.911 24.9675 110.15 37.182Z" fill="#068FFF"/>
<g opacity="0.7">
<path opacity="0.7" d="M110.15 37.182L110.116 37.2913C114.66 26.6249 125.801 20.5812 136.128 23.6196C147.134 26.8607 153.088 39.1959 149.551 51.296C149.878 50.555 150.162 49.7965 150.401 49.024C154.162 36.8121 148.201 24.2576 137.085 20.988C125.97 17.7183 113.911 24.9675 110.15 37.182Z" fill="white"/>
</g>
<g opacity="0.35">
<path opacity="0.35" d="M110.15 34.3222C106.389 46.5366 113.954 65.2835 121.849 67.6082C129.743 69.9328 146.641 58.3768 150.401 46.1642C150.436 46.0517 150.47 45.9405 150.501 45.8287C145.404 54.504 131.893 61.3764 124.867 59.3097C116.972 56.9869 108.613 40.8164 111.734 30.682C111.826 30.3839 111.929 30.0884 112.032 29.7993C111.26 31.2454 110.629 32.7598 110.15 34.3222Z" fill="#371A45"/>
</g>
<path d="M124.06 71.8553C123.202 71.8648 122.348 71.7517 121.524 71.5197C117.428 70.3123 113.232 65.1011 110.57 57.9078C107.843 50.5416 107.283 42.6753 109.074 36.8655C110.973 30.7011 114.95 25.5427 120.272 22.3429C125.637 19.1177 131.723 18.2629 137.41 19.9362C143.097 21.6095 147.688 25.6056 150.342 31.1891C152.973 36.7289 153.377 43.1755 151.478 49.3405C149.689 55.1503 144.782 61.4082 138.345 66.0792C133.244 69.7842 128.031 71.8553 124.06 71.8553ZM111.226 37.4985C107.65 49.1117 114.936 67.2866 122.174 69.4156C129.412 71.5445 145.75 60.3202 149.326 48.7069C151.065 43.0579 150.702 37.1655 148.303 32.1144C145.925 27.1073 141.826 23.5294 136.762 22.0397C131.698 20.5501 126.259 21.3222 121.449 24.2138C116.596 27.1314 112.966 31.8494 111.226 37.4959V37.4985Z" fill="#371A45"/>
<g opacity="0.5">
<path opacity="0.5" d="M135.936 26.6039C130.788 24.4019 126.547 24.6898 122.587 26.8162C118.387 29.0729 118.002 32.5516 120.971 33.5837C123.94 34.6158 126.761 30.5377 134.473 30.9146C139.458 31.156 139.999 28.342 135.936 26.6039Z" fill="white"/>
</g>
<path d="M112.652 128.378C110.555 128.794 109.012 128.525 109.012 128.525C108.956 128.622 108.898 128.721 108.84 128.818C101.961 140.744 96.0027 147.601 91.6583 151.509C90.9867 152.102 90.1994 152.556 89.3438 152.844C84.0775 154.697 76.0735 151.605 76.0735 151.605L77.0097 147.387L79.2852 137.108C79.2852 137.108 80.4633 136.5 82.4808 135.074C82.694 134.921 82.919 134.76 83.1511 134.589C84.9214 133.296 87.2145 131.454 89.8535 128.955C94.034 124.995 99.0857 119.382 104.299 111.674C104.299 111.674 106.46 107.902 111.6 109.179C114.34 109.86 115.765 110.983 116.225 112.513C116.225 112.513 118.811 112.234 118.884 115.817C118.951 118.861 117.594 127.399 112.652 128.378Z" fill="white"/>
<g opacity="0.35">
<path opacity="0.35" d="M108.837 128.823C101.958 140.747 96.0027 147.601 91.6583 151.51C86.8979 155.791 76.0735 151.608 76.0735 151.608L77.2223 146.425C80.8021 147.229 85.253 145.988 88.8198 144.418C102.945 138.199 104.144 128.813 104.992 124.119C105.103 125.6 105.899 127.508 108.837 128.823Z" fill="#371A45"/>
</g>
<g opacity="0.35">
<path opacity="0.35" d="M110.622 128.606C110.622 128.606 106.254 128.978 105.226 122.404C105.226 122.404 106.549 123.553 110.372 124.358C114.167 125.158 117.668 122.344 117.668 122.344C117.668 122.344 116.182 128.745 110.622 128.606Z" fill="#371A45"/>
</g>
<path d="M80.1007 137.301C79.8653 137.302 79.6366 137.225 79.4519 137.082C79.2673 136.939 79.1376 136.74 79.0841 136.515C79.0306 136.291 79.0564 136.056 79.1573 135.848C79.2583 135.641 79.4283 135.472 79.6397 135.371C79.7496 135.318 90.7437 129.856 103.413 111.146C104.318 109.601 107.215 107.043 111.859 108.195C114.485 108.847 116.144 109.924 116.931 111.488C117.754 113.124 117.581 115.151 116.376 117.865C115.201 120.521 112.766 121.959 110.705 121.208C108.811 120.517 107.39 117.913 109.08 112.675C109.163 112.417 109.347 112.203 109.592 112.078C109.837 111.954 110.123 111.929 110.386 112.01C110.649 112.092 110.869 112.272 110.996 112.511C111.124 112.751 111.149 113.03 111.066 113.287C109.895 116.902 110.436 118.939 111.431 119.301C112.276 119.61 113.675 118.839 114.464 117.057C115.392 114.96 115.587 113.435 115.06 112.386C114.559 111.39 113.344 110.664 111.344 110.168C107.027 109.097 105.224 112.143 105.207 112.175L105.167 112.239C92.1389 131.491 81.0232 136.973 80.5564 137.196C80.4146 137.265 80.2588 137.3 80.1007 137.301Z" fill="#371A45"/>
<path d="M84.0659 157.552C83.8124 157.553 83.567 157.464 83.3758 157.302C83.1846 157.139 83.0609 156.913 83.0277 156.668C82.9946 156.422 83.0544 156.173 83.1959 155.967C83.3374 155.762 83.5508 155.614 83.7961 155.551C83.8897 155.525 94.0796 152.441 108.103 128.027L108.465 127.397L109.193 127.524C109.203 127.524 110.59 127.749 112.444 127.382C116.678 126.542 117.905 118.514 117.847 115.841C117.827 114.897 117.604 114.207 117.2 113.846C116.959 113.635 116.644 113.521 116.32 113.529C116.185 113.543 116.047 113.532 115.917 113.494C115.786 113.457 115.664 113.395 115.558 113.311C115.452 113.227 115.364 113.124 115.299 113.007C115.234 112.889 115.193 112.761 115.18 112.628C115.151 112.359 115.233 112.089 115.407 111.879C115.581 111.668 115.834 111.533 116.109 111.504C116.55 111.472 116.993 111.525 117.413 111.662C117.832 111.798 118.22 112.015 118.553 112.298C119.432 113.052 119.895 114.23 119.927 115.798C120.005 119.597 118.333 128.288 112.857 129.374C111.78 129.589 110.679 129.667 109.581 129.605C95.1959 154.417 84.7759 157.399 84.3364 157.515C84.2483 157.539 84.1573 157.551 84.0659 157.552Z" fill="#371A45"/>
<path d="M109.012 129.543C108.964 129.543 108.915 129.54 108.868 129.533C107.031 129.285 105.695 128.489 104.895 127.166C103.614 125.047 103.841 121.739 105.568 117.333C107.247 113.051 109.444 112.89 109.859 112.901L109.803 114.935C109.828 114.938 109.853 114.938 109.878 114.935C109.866 114.935 108.665 115.126 107.513 118.062C106.066 121.752 105.774 124.618 106.689 126.133C107.155 126.905 107.961 127.359 109.154 127.52C109.417 127.553 109.658 127.683 109.826 127.883C109.994 128.083 110.078 128.339 110.06 128.598C110.042 128.856 109.924 129.098 109.729 129.275C109.535 129.451 109.278 129.548 109.013 129.545L109.012 129.543Z" fill="#371A45"/>
<path d="M89.3893 181.4C88.3133 186.802 85.79 199.453 78.1852 206.723C78.1852 206.723 78.7827 216.435 74.6607 219.929C71.8475 222.315 63.6568 220.614 61.9229 215.167C60.4275 210.469 62.6146 203.227 63.848 201.063C66.6079 196.228 68.5817 190.099 68.5648 187.336L65.21 187.18C63.1686 192.377 58.0583 200.075 54.0345 203.582C54.0345 203.582 53.8395 212.297 48.1181 215.813C43.9702 218.365 35.9486 216.903 34.3791 210.129C33.281 205.391 36.2099 198.719 37.8841 196.16C40.5347 192.114 45.3823 182.588 47.3152 175.462C47.4452 174.972 47.5668 174.492 47.6708 174.027C48.1064 172.078 48.5368 170.092 48.9555 168.137C49.3372 166.345 49.7123 164.578 50.068 162.883C51.0815 158.064 51.9618 153.846 52.5593 151.399C52.5593 151.399 52.8279 149.652 53.2875 147.28C53.6458 145.441 54.1197 143.225 54.6782 141.159C55.6339 137.619 56.8335 134.524 58.1039 134.524H79.2859C80.5127 134.524 81.5699 134.727 82.4814 135.078C84.3668 135.794 85.6359 137.125 86.4824 138.546C88.0207 141.116 88.1878 143.97 88.1878 143.97C88.4875 146.474 88.9257 149.496 89.3418 152.846C90.3931 161.308 91.2929 171.865 89.3893 181.4Z" fill="white"/>
<g opacity="0.35">
<path opacity="0.35" d="M51.4379 168.418C51.3775 168.699 51.317 168.98 51.2539 169.261C50.4398 168.989 49.667 168.61 48.9563 168.136C48.9608 168.117 48.9634 168.099 48.968 168.079L51.4379 168.418Z" fill="#371A45"/>
</g>
<g opacity="0.35">
<path opacity="0.35" d="M66.6128 200.047C65.3776 202.207 63.1898 209.452 64.6877 214.151C66.0108 218.305 71.0853 220.279 74.6676 219.924C71.8589 222.316 63.6599 220.618 61.9246 215.166C60.4292 210.468 62.6164 203.226 63.8497 201.062C66.6096 196.227 68.5835 190.099 68.5666 187.335L65.2118 187.179C64.9263 187.905 64.5831 188.678 64.1858 189.485C64.771 187.415 64.0942 186.235 63.3868 185.217C62.7951 184.366 63.7216 183.293 64.6799 183.72C66.1408 184.371 68.3748 185.025 71.6327 185.21C75.9126 185.453 79.6588 184.356 81.7699 183.552C82.699 183.198 83.5669 184.214 83.0305 185.036C80.1952 189.382 68.9137 196.01 66.6128 200.047Z" fill="#371A45"/>
</g>
<path d="M52.8979 151.477C51.9435 159.177 50.4384 166.78 48.7324 174.366C48.2857 176.325 47.6564 178.204 46.962 180.049C46.2676 181.894 45.505 183.706 44.6969 185.495C43.8887 187.284 43.0305 189.049 42.1307 190.795C41.2309 192.541 40.2869 194.265 39.2369 195.958L38.4697 197.179L38.1271 197.78L37.802 198.399C37.3813 199.234 37.0055 200.096 36.6662 200.97C36.3268 201.844 36.0459 202.737 35.7982 203.634C35.5633 204.525 35.3881 205.43 35.2735 206.343C35.1838 207.245 35.1481 208.148 35.2469 209.012C35.3574 209.864 35.5719 210.717 35.9406 211.491C36.305 212.264 36.8029 212.97 37.4125 213.578C38.0307 214.185 38.7487 214.687 39.5366 215.063C41.1454 215.828 42.9476 216.117 44.7222 215.895C45.5836 215.791 46.4197 215.541 47.1928 215.155C47.3802 215.057 47.5621 214.949 47.7376 214.831L48.0113 214.651L48.2714 214.452C48.6197 214.184 48.9478 213.892 49.2531 213.578C49.8654 212.926 50.3966 212.205 50.8356 211.431C51.2804 210.634 51.6522 209.801 51.9467 208.941C52.2463 208.069 52.4833 207.177 52.656 206.272C52.7451 205.818 52.816 205.36 52.8745 204.902C52.933 204.444 52.9753 203.968 52.9909 203.557L53.0078 203.112L53.3387 202.818C54.5233 201.77 55.6142 200.556 56.646 199.296C57.6778 198.035 58.644 196.708 59.5594 195.35C60.4748 193.993 61.3323 192.597 62.1249 191.172C62.9174 189.748 63.6436 188.292 64.2327 186.812L64.5064 186.125L65.2541 186.16L68.6115 186.316L69.6212 186.363L69.603 187.327C69.5756 188.721 69.3078 189.945 68.999 191.167C68.6901 192.389 68.3046 193.57 67.8814 194.739C67.0313 197.079 65.9908 199.35 64.7697 201.527C64.2645 202.458 63.8595 203.592 63.5266 204.705C63.1917 205.829 62.9311 206.973 62.7464 208.129C62.5573 209.272 62.4623 210.427 62.4623 211.584C62.4708 212.724 62.5924 213.856 62.9174 214.879C63.2525 215.875 63.8359 216.773 64.615 217.494C65.401 218.232 66.3704 218.812 67.4106 219.23C68.4504 219.649 69.5557 219.892 70.679 219.949C71.2199 219.977 71.7623 219.945 72.2959 219.854C72.8121 219.765 73.2939 219.6 73.6716 219.369C73.7644 219.314 73.8526 219.253 73.9356 219.185C74.0214 219.121 74.1183 219.019 74.2099 218.938C74.396 218.758 74.5679 218.565 74.7242 218.36C75.0528 217.93 75.336 217.469 75.5694 216.984C76.044 215.984 76.3828 214.886 76.6194 213.753C76.8559 212.608 77.0136 211.45 77.0914 210.285C77.1763 209.118 77.1939 207.948 77.1441 206.78L77.1226 206.312L77.4555 205.994C79.3618 204.163 80.9351 201.984 82.2465 199.659C83.5579 197.334 84.6157 194.849 85.4973 192.306C86.373 189.749 87.101 187.146 87.6779 184.509C87.8261 183.848 87.9681 183.185 88.1037 182.519C88.239 181.853 88.3807 181.18 88.4867 180.523C88.5927 179.866 88.7246 179.203 88.8209 178.539L89.0705 176.538C89.3408 173.854 89.4699 171.158 89.4574 168.461C89.4418 165.757 89.2766 163.05 89.025 160.348L88.2227 152.23C88.1011 150.872 87.9828 149.511 87.9119 148.141C87.8411 146.771 87.7923 145.394 87.8469 144.01C87.8499 143.928 87.8825 143.85 87.9391 143.79C87.9956 143.73 88.0723 143.691 88.1553 143.682C88.2384 143.672 88.3223 143.691 88.392 143.736C88.4616 143.782 88.5125 143.85 88.5354 143.928V143.931C88.9216 145.26 89.2337 146.595 89.5217 147.935C89.8097 149.275 90.0562 150.626 90.2785 151.981C90.7148 154.692 91.0314 157.428 91.2115 160.179C91.3916 162.931 91.5177 165.686 91.5366 168.451C91.5494 171.223 91.4164 173.994 91.138 176.753L90.8779 178.823C90.7791 179.512 90.6458 180.198 90.5314 180.886C90.417 181.573 90.2778 182.244 90.1413 182.919C90.0048 183.594 89.8598 184.268 89.7083 184.943C89.1156 187.655 88.3677 190.331 87.4679 192.961C86.5577 195.594 85.4524 198.182 84.0669 200.644C82.6815 203.107 80.9989 205.443 78.9093 207.45L79.2207 206.662C79.2762 207.918 79.258 209.176 79.1661 210.43C79.0822 211.687 78.9119 212.936 78.6563 214.17C78.3963 215.413 78.0205 216.655 77.4497 217.856C77.1549 218.47 76.797 219.052 76.3815 219.594C76.1661 219.875 75.9302 220.14 75.6754 220.387C75.5382 220.51 75.4231 220.631 75.2651 220.755C75.1097 220.881 74.945 220.996 74.7723 221.099C74.1289 221.481 73.4169 221.74 72.6743 221.861C71.9847 221.98 71.2835 222.023 70.584 221.988C69.2229 221.921 67.8834 221.628 66.6233 221.12C65.3705 220.615 64.1826 219.913 63.1775 218.968C62.1724 218.023 61.3668 216.83 60.9364 215.497C60.5242 214.199 60.3942 212.892 60.3818 211.608C60.3811 210.339 60.4846 209.071 60.6913 207.818C60.8903 206.577 61.1705 205.35 61.53 204.144C61.8967 202.933 62.2978 201.758 62.9538 200.542C64.1188 198.463 65.1117 196.295 65.9231 194.06C66.3275 192.943 66.6896 191.811 66.9835 190.675C67.2774 189.539 67.5036 188.376 67.5244 187.341L68.5153 188.352L65.1585 188.196L66.1799 187.544C65.5414 189.147 64.7788 190.665 63.9577 192.147C63.1365 193.629 62.2491 195.071 61.3018 196.472C60.3545 197.873 59.3513 199.244 58.2773 200.567C57.2032 201.889 56.0518 203.168 54.7274 204.34L55.0753 203.604C55.0545 204.16 55.0064 204.64 54.9452 205.151C54.8841 205.662 54.8035 206.154 54.7066 206.651C54.5168 207.649 54.2561 208.634 53.9264 209.597C53.5917 210.574 53.1687 211.52 52.6625 212.423C52.1403 213.344 51.5073 214.201 50.7771 214.975C50.0204 215.764 49.1431 216.432 48.1765 216.958C47.1835 217.457 46.1082 217.782 44.9998 217.917C42.8177 218.191 40.601 217.835 38.6238 216.891C37.6277 216.416 36.7201 215.78 35.9386 215.012C35.1578 214.235 34.5199 213.332 34.0532 212.343C33.5896 211.356 33.3211 210.309 33.1839 209.244C33.0637 208.183 33.1079 207.142 33.2106 206.118C33.3358 205.109 33.5289 204.109 33.7886 203.125C34.0506 202.154 34.3624 201.197 34.7228 200.256C35.0863 199.32 35.4874 198.399 35.9425 197.498L36.2956 196.824L36.6759 196.156L37.4632 194.902C38.4671 193.284 39.391 191.587 40.2771 189.882C41.1633 188.176 41.9961 186.433 42.7731 184.671C43.55 182.908 44.2834 181.135 44.9296 179.336C45.5826 177.555 46.1277 175.739 46.5622 173.896C47.3891 170.124 48.2174 166.337 49.0977 162.562C49.5412 160.675 50.0002 158.79 50.5131 156.914C51.0261 155.039 51.5612 153.165 52.2302 151.322C52.259 151.243 52.3167 151.177 52.392 151.137C52.4674 151.097 52.5553 151.085 52.6388 151.104C52.7224 151.123 52.7958 151.172 52.845 151.241C52.8943 151.309 52.9159 151.393 52.9057 151.477L52.8979 151.477Z" fill="#371A45"/>
<path d="M103.972 161.186C101.702 161.186 100.105 160.373 100.071 160.355C99.9193 160.275 99.8063 160.139 99.757 159.978C99.7076 159.816 99.7259 159.642 99.8078 159.494C99.8897 159.345 100.028 159.235 100.194 159.187C100.359 159.138 100.537 159.156 100.689 159.236C100.949 159.371 107.144 162.47 112.17 154.591C115.035 150.101 113.382 145.514 111.633 140.657C110.215 136.722 108.749 132.65 109.709 128.471C109.75 128.311 109.854 128.172 109.998 128.085C110.143 127.998 110.316 127.97 110.482 128.006C110.647 128.042 110.792 128.14 110.884 128.279C110.977 128.418 111.01 128.587 110.977 128.749C110.1 132.574 111.503 136.469 112.86 140.235C114.634 145.162 116.469 150.255 113.274 155.264C110.206 160.071 106.629 161.186 103.972 161.186Z" fill="#371A45"/>
<path d="M82.7818 180.622C81.551 180.726 80.172 180.819 78.6897 180.887C79.5746 180.909 80.3905 180.919 81.118 180.921C81.6867 180.922 82.2506 180.821 82.7818 180.622Z" fill="white"/>
<path d="M93.9385 168.178C94.0799 166.216 92.5679 164.514 90.5614 164.376C88.5548 164.238 86.8136 165.716 86.6722 167.677C86.5309 169.639 88.0429 171.341 90.0494 171.479C92.056 171.617 93.7972 170.139 93.9385 168.178Z" fill="white"/>
<g opacity="0.35">
<path opacity="0.35" d="M93.9523 167.99C93.9454 168.458 93.8444 168.919 93.6551 169.348C93.4658 169.778 93.1918 170.166 92.8489 170.492C92.5059 170.818 92.1007 171.074 91.6563 171.247C91.212 171.419 90.7372 171.505 90.2591 171.498C89.7809 171.491 89.3089 171.393 88.8698 171.208C88.4307 171.023 88.0331 170.755 87.6999 170.42C87.3667 170.084 87.1043 169.688 86.9277 169.254C86.751 168.82 86.6637 168.355 86.6705 167.888C86.677 167.362 86.8043 166.843 87.0431 166.371C87.3288 166.985 87.7871 167.507 88.3645 167.876C88.9419 168.245 89.6146 168.446 90.3044 168.456C90.9942 168.465 91.6726 168.283 92.2607 167.931C92.8487 167.578 93.3222 167.069 93.6259 166.464C93.8503 166.942 93.9619 167.464 93.9523 167.99Z" fill="#371A45"/>
</g>
<path d="M90.314 172.294H90.249C89.0498 172.286 87.9029 171.813 87.0595 170.98C86.2161 170.146 85.745 169.02 85.7493 167.848C85.7536 166.676 86.233 165.553 87.0825 164.726C87.932 163.899 89.0823 163.434 90.2815 163.434C91.4807 163.434 92.631 163.899 93.4805 164.726C94.33 165.553 94.8094 166.676 94.8137 167.848C94.818 169.02 94.3468 170.146 93.5035 170.98C92.6601 171.813 91.5132 172.286 90.314 172.294ZM90.314 165.176C89.5782 165.193 88.8778 165.488 88.3615 166.001C87.8451 166.514 87.5534 167.203 87.5482 167.922C87.5431 168.641 87.8249 169.334 88.3338 169.854C88.8428 170.374 89.5389 170.679 90.2743 170.705H90.3153C91.0556 170.696 91.7626 170.403 92.2845 169.89C92.8064 169.377 93.1017 168.684 93.107 167.96C93.1123 167.237 92.8271 166.54 92.3127 166.019C91.7983 165.499 91.0957 165.196 90.3556 165.176H90.314Z" fill="#371A45"/>
<g opacity="0.35">
<path opacity="0.35" d="M87.2883 176.417C87.3296 177.376 86.9809 178.312 86.3183 179.021C85.6558 179.73 84.7332 180.153 83.7521 180.199L66.5536 180.956C65.5721 180.997 64.6139 180.656 63.8886 180.009C63.1633 179.361 62.7299 178.459 62.6832 177.5L62.6351 176.424C56.1336 177.618 51.7957 176.975 49.5124 176.355C47.3207 183.188 43.0707 191.45 40.6495 195.143C38.9754 197.701 36.0458 204.373 37.1439 209.112C38.4091 214.577 43.8736 216.583 48.1165 215.815C43.9653 218.364 35.9515 216.9 34.382 210.128C33.2839 205.39 36.2128 198.718 37.887 196.159C40.5377 192.114 45.3852 182.587 47.3181 175.461C47.4482 174.972 47.5697 174.492 47.6738 174.026C48.1094 172.077 48.5398 170.091 48.9585 168.136C49.6692 168.61 50.442 168.989 51.2561 169.261C55.3417 170.685 60.8231 170.292 62.3445 170.148L62.2704 168.553C62.2275 167.593 62.5757 166.656 63.2387 165.947C63.9018 165.237 64.8254 164.814 65.8072 164.77L83.0031 164.013C83.9848 163.972 84.9431 164.313 85.6685 164.961C86.3938 165.608 86.8271 166.511 86.8735 167.47L87.1986 174.556L87.2883 176.417Z" fill="#371A45"/>
</g>
<path d="M85.0455 177.362L67.8489 178.119C66.8674 178.159 65.9094 177.819 65.1841 177.171C64.4589 176.523 64.0254 175.621 63.9785 174.662L63.567 165.715C63.5312 164.881 63.7899 164.061 64.2998 163.391C64.8097 162.722 65.5397 162.244 66.3672 162.039C66.6083 161.978 66.8552 161.943 67.1038 161.933L84.2978 161.175C85.2795 161.134 86.238 161.475 86.9634 162.123C87.6887 162.771 88.122 163.673 88.1682 164.632L88.4933 171.718L88.5797 173.578C88.6212 174.537 88.2729 175.474 87.6107 176.182C86.9485 176.891 86.0263 177.315 85.0455 177.362Z" fill="white"/>
<g opacity="0.35">
<path opacity="0.35" d="M85.0455 177.362L67.8489 178.119C66.8674 178.159 65.9094 177.819 65.1841 177.171C64.4589 176.523 64.0254 175.621 63.9785 174.662L63.567 165.715C63.5312 164.881 63.7899 164.061 64.2998 163.391C64.8097 162.722 65.5397 162.244 66.3672 162.039C67.373 162.63 68.0121 163.008 68.0121 163.008C69.1824 170.152 71.4371 173.641 80.5666 173.385C84.5078 173.273 86.966 172.577 88.4985 171.718L88.5849 173.578C88.6264 174.538 88.2773 175.475 87.614 176.184C86.9508 176.893 86.0273 177.316 85.0455 177.362Z" fill="#371A45"/>
</g>
<path d="M67.6775 178.918C66.5153 178.914 65.399 178.474 64.5592 177.689C63.7195 176.904 63.2205 175.833 63.1655 174.698L62.7526 165.751C62.7002 164.581 63.1247 163.438 63.933 162.573C64.7413 161.709 65.8675 161.193 67.0645 161.138L84.2623 160.381C85.459 160.332 86.6272 160.747 87.5115 161.537C88.3957 162.326 88.9241 163.426 88.9811 164.596L89.3933 173.543C89.4444 174.713 89.0194 175.855 88.2114 176.719C87.4033 177.583 86.278 178.1 85.0815 178.155L67.8843 178.912C67.8154 178.916 67.7458 178.918 67.6775 178.918ZM84.4671 161.965C84.4229 161.965 84.3793 161.965 84.3371 161.965L67.1392 162.723C66.3727 162.757 65.6516 163.088 65.1339 163.642C64.6163 164.195 64.3445 164.927 64.378 165.677L64.7909 174.624C64.8283 175.372 65.167 176.076 65.733 176.582C66.2991 177.087 67.0466 177.354 67.8128 177.323L85.01 176.565C85.7759 176.529 86.4959 176.198 87.0131 175.644C87.5303 175.091 87.8028 174.36 87.7712 173.612L87.359 164.664C87.3223 163.938 87.0021 163.253 86.4644 162.75C85.9267 162.248 85.2124 161.966 84.4684 161.962L84.4671 161.965Z" fill="#371A45"/>
<path d="M85.7327 177.265C85.5077 177.321 85.2774 177.353 85.0455 177.362L67.8489 178.119C67.1377 178.148 66.4328 177.977 65.8181 177.627C65.2034 177.276 64.7048 176.76 64.3816 176.14C64.1404 175.681 64.0038 175.177 63.9811 174.662L63.7965 170.688L63.736 169.376L63.567 165.715C63.5258 164.756 63.8747 163.82 64.5374 163.111C65.2 162.402 66.1227 161.979 67.1038 161.933L70.8201 161.77C69.9805 161.965 69.2366 162.44 68.7157 163.112C68.1948 163.785 67.9295 164.613 67.9653 165.456L68.187 170.286L68.3775 174.402C68.4249 175.361 68.8583 176.263 69.5833 176.91C70.3083 177.558 71.2659 177.899 72.2472 177.859L85.7327 177.265Z" fill="white"/>
<g opacity="0.35">
<path opacity="0.35" d="M85.7319 177.265C85.507 177.321 85.2766 177.353 85.0447 177.362L67.8481 178.119C66.8668 178.16 65.9088 177.819 65.1839 177.171C64.459 176.523 64.0263 175.621 63.9804 174.662L63.7327 169.379C64.2079 170.294 65.0382 171.406 66.2871 171.472C66.9724 171.509 67.6219 171 68.1836 170.292L68.3741 174.408C68.4215 175.367 68.855 176.268 69.5799 176.916C70.3049 177.564 71.2625 177.905 72.2438 177.865L85.7319 177.265Z" fill="#371A45"/>
</g>
<path d="M67.6744 178.918C66.5127 178.914 65.3969 178.474 64.5578 177.688C63.7187 176.903 63.2203 175.833 63.1656 174.698L62.7534 165.751C62.7024 164.581 63.1272 163.439 63.9351 162.575C64.743 161.711 65.8682 161.194 67.0646 161.138L70.7795 160.975L71.0032 162.542C70.3469 162.693 69.7653 163.064 69.3585 163.59C68.9517 164.115 68.7452 164.763 68.7745 165.422L69.1873 174.369C69.2243 175.117 69.5621 175.821 70.1273 176.326C70.6924 176.832 71.4391 177.099 72.2047 177.069L85.6947 176.473L85.9262 178.038C85.6475 178.105 85.3626 178.145 85.0758 178.156L67.8825 178.912C67.8129 178.916 67.7433 178.918 67.6744 178.918ZM68.0203 162.687L67.138 162.725C66.3722 162.762 65.6521 163.093 65.1349 163.646C64.6177 164.2 64.3452 164.93 64.3768 165.679L64.789 174.628C64.826 175.376 65.1642 176.08 65.73 176.585C66.2958 177.091 67.0431 177.357 67.809 177.326L68.8044 177.282C68.051 176.514 67.61 175.503 67.5639 174.44L67.151 165.493C67.1044 164.488 67.4111 163.497 68.0203 162.687Z" fill="#371A45"/>
<path d="M75.6032 169.704C75.6162 170.036 75.2476 172.725 75.2476 172.725L73.3192 172.799C71.991 172.85 70.8604 171.547 70.7934 169.889C70.7264 168.231 71.7491 166.846 73.0774 166.794L75.0064 166.721C75.0064 166.721 75.5811 169.166 75.6032 169.704Z" fill="#22A7F0"/>
<g opacity="0.35">
<path opacity="0.35" d="M75.9294 169.704C75.9424 170.036 75.5738 172.725 75.5738 172.725L73.6454 172.799C72.3171 172.85 71.1865 171.547 71.1196 169.889C71.0526 168.231 72.0753 166.846 73.4036 166.794L75.3326 166.721C75.3326 166.721 75.9073 169.166 75.9294 169.704Z" fill="#371A45"/>
</g>
<path d="M73.5699 173.437C71.9289 173.437 70.548 171.88 70.4686 169.915C70.388 167.909 71.6922 166.224 73.3768 166.16L74.7232 166.108C75.04 166.094 75.3516 166.19 75.6027 166.379C75.8538 166.568 76.0281 166.838 76.0944 167.141C76.4013 168.501 76.5645 169.355 76.5775 169.68C76.5775 169.768 76.5905 170.003 76.294 172.234C76.2537 172.544 76.1023 172.829 75.8669 173.039C75.6315 173.249 75.3273 173.371 75.0087 173.382L73.6693 173.434C73.6349 173.436 73.6037 173.437 73.5699 173.437ZM74.7759 167.378L73.4301 167.429C72.4783 167.466 71.7182 168.581 71.7696 169.865C71.821 171.126 72.6408 172.166 73.5725 172.166H73.6206L74.9599 172.114C74.9713 172.114 74.9823 172.11 74.9909 172.102C74.9994 172.095 75.005 172.085 75.0067 172.074C75.2089 170.552 75.2798 169.86 75.2798 169.727C75.2713 169.54 75.1497 168.838 74.8247 167.417C74.8225 167.406 74.8166 167.396 74.8078 167.389C74.799 167.382 74.7879 167.378 74.7766 167.378H74.7759Z" fill="#371A45"/>
<path d="M75.5695 172.729C76.8977 172.678 77.9205 171.292 77.8538 169.634C77.7872 167.976 76.6564 166.673 75.3281 166.724C73.9999 166.775 72.9771 168.16 73.0438 169.819C73.1104 171.477 74.2412 172.78 75.5695 172.729Z" fill="#22A7F0"/>
<g opacity="0.7">
<path opacity="0.7" d="M77.8563 169.633C77.8653 169.832 77.8575 170.032 77.8329 170.23C77.5078 168.967 76.5326 168.069 75.4273 168.111C74.2629 168.154 73.3345 169.223 73.1648 170.604C73.0978 170.346 73.059 170.083 73.0491 169.818C72.9841 168.16 74.0068 166.774 75.3344 166.722C76.662 166.67 77.792 167.973 77.8563 169.633Z" fill="white"/>
</g>
<g opacity="0.35">
<path opacity="0.35" d="M77.8569 169.633C77.9219 171.291 76.9018 172.677 75.5742 172.728C74.2466 172.78 73.1147 171.475 73.0477 169.818C73.0358 169.55 73.0539 169.281 73.1017 169.017C73.4801 170.172 74.4072 170.976 75.4539 170.935C76.5592 170.893 77.4532 169.922 77.6827 168.642C77.7855 168.964 77.8441 169.297 77.8569 169.633Z" fill="#371A45"/>
</g>
<path d="M75.4996 173.362C73.8579 173.362 72.477 171.806 72.3983 169.84C72.3177 167.835 73.6219 166.151 75.3058 166.086C75.3396 166.086 75.3708 166.086 75.4059 166.086C77.0469 166.086 78.4278 167.642 78.5072 169.608C78.5878 171.613 77.2829 173.294 75.599 173.362C75.5659 173.362 75.5327 173.362 75.4996 173.362ZM75.4053 167.354H75.3572C74.406 167.391 73.646 168.506 73.6973 169.789C73.7487 171.072 74.5841 172.128 75.5477 172.089C76.4988 172.052 77.2595 170.937 77.2082 169.654C77.1574 168.394 76.337 167.354 75.4053 167.354Z" fill="#371A45"/>
<path d="M80.345 178.168C80.1749 178.168 80.0115 178.103 79.89 177.987C79.7685 177.87 79.6984 177.712 79.6948 177.546L79.596 173.016C79.5813 172.394 79.725 171.778 80.0142 171.223C80.3033 170.668 80.7289 170.193 81.2526 169.838C81.6072 169.6 81.8939 169.277 82.0855 168.9C82.2772 168.523 82.3676 168.105 82.3481 167.685L82.077 161.308C82.0734 161.225 82.0867 161.141 82.1161 161.063C82.1455 160.984 82.1905 160.912 82.2483 160.851C82.3652 160.727 82.5277 160.653 82.7002 160.646C82.8726 160.639 83.0408 160.699 83.1678 160.814C83.2307 160.87 83.2815 160.938 83.3175 161.014C83.3534 161.09 83.3737 161.172 83.3773 161.255L83.6484 167.637C83.6774 168.272 83.5408 168.903 83.2516 169.471C82.9624 170.04 82.53 170.527 81.9951 170.888C81.6483 171.122 81.3665 171.437 81.175 171.805C80.9835 172.172 80.8882 172.58 80.8976 172.992L80.9964 177.522C80.9983 177.605 80.9834 177.688 80.9525 177.766C80.9215 177.844 80.8752 177.915 80.8162 177.975C80.7571 178.036 80.6865 178.084 80.6083 178.118C80.5301 178.151 80.446 178.169 80.3606 178.171L80.345 178.168Z" fill="#371A45"/>
<path d="M49.8081 164.97C49.8081 164.97 46.8531 165.53 46.7426 168.925C46.6626 171.366 48.8745 172.822 48.8745 172.822C48.8745 172.822 53.8611 175.521 64.2974 173.517C64.2974 173.517 67.4181 169.607 64.0432 167.268C64.0432 167.268 54.1433 168.485 49.8081 164.97Z" fill="white"/>
<g opacity="0.35">
<path opacity="0.35" d="M64.2976 173.517C53.86 175.52 48.8746 172.822 48.8746 172.822C48.8746 172.822 46.6641 171.366 46.7415 168.926C46.7479 168.731 46.7648 168.537 46.7922 168.344C47.1918 169.135 47.78 169.819 48.5073 170.34C48.5073 170.34 52.8575 172.691 61.9323 171.371C63.5174 171.139 64.8249 169.993 65.1499 168.458C65.1499 168.444 65.1558 168.43 65.159 168.415C66.5484 170.697 64.2976 173.517 64.2976 173.517Z" fill="#371A45"/>
</g>
<path d="M56.9906 175.054C51.4058 175.054 48.6348 173.601 48.4788 173.517L48.4183 173.481C48.313 173.411 45.8352 171.746 45.9276 168.9C46.0316 165.713 48.4086 164.426 49.651 164.19L50.0287 164.118L50.3246 164.359C54.3419 167.616 63.8432 166.491 63.9394 166.48L64.2528 166.442L64.5129 166.62C65.5804 167.36 66.2085 168.311 66.3788 169.448C66.7234 171.736 65.0135 173.914 64.9381 174.006L64.7515 174.239L64.4537 174.297C61.5657 174.851 59.0815 175.054 56.9906 175.054ZM49.298 172.144C49.731 172.354 54.4992 174.518 63.8198 172.797C64.1741 172.273 64.9615 170.939 64.7684 169.673C64.6748 169.059 64.3594 168.54 63.8074 168.093C62.0306 168.274 53.8881 168.905 49.6341 165.846C48.9748 166.085 47.6225 166.831 47.5536 168.951C47.4944 170.765 49.0587 171.968 49.2993 172.144H49.298Z" fill="#371A45"/>
<path d="M104.926 136.028C104.867 136.028 104.807 136.022 104.749 136.009C93.6427 133.6 94.4892 123.342 94.4989 123.241C94.521 123.032 94.626 122.84 94.7913 122.706C94.9566 122.572 95.1691 122.506 95.3832 122.524C95.5976 122.543 95.7954 122.645 95.933 122.807C96.0707 122.969 96.1369 123.178 96.1172 123.387C96.084 123.754 95.415 132.359 105.102 134.461C105.297 134.504 105.469 134.615 105.586 134.774C105.702 134.933 105.754 135.128 105.733 135.323C105.711 135.517 105.617 135.697 105.468 135.827C105.319 135.958 105.126 136.03 104.926 136.031V136.028Z" fill="#371A45"/>
<path d="M115.644 83.3522L117.926 87.2161C118.075 87.4679 118.153 87.7536 118.153 88.0444C118.153 88.3352 118.075 88.6209 117.926 88.8728C117.778 89.1246 117.564 89.3338 117.306 89.4792C117.048 89.6245 116.756 89.701 116.458 89.701H111.894C111.596 89.7008 111.304 89.6242 111.047 89.4788C110.789 89.3334 110.575 89.1243 110.426 88.8725C110.278 88.6207 110.199 88.335 110.199 88.0443C110.199 87.7536 110.278 87.4679 110.426 87.2161L112.709 83.3522C112.858 83.1004 113.072 82.8913 113.329 82.7459C113.587 82.6006 113.879 82.524 114.176 82.524C114.474 82.524 114.766 82.6006 115.024 82.7459C115.281 82.8913 115.495 83.1004 115.644 83.3522Z" fill="#FFE000"/>
<g opacity="0.35">
<path opacity="0.35" d="M110.249 87.64C110.187 87.8845 110.182 88.1396 110.235 88.3862C110.289 88.6327 110.399 88.8641 110.557 89.0628C110.716 89.2615 110.919 89.4222 111.15 89.5328C111.382 89.6434 111.636 89.7009 111.894 89.701C111.636 89.7009 111.382 89.6434 111.15 89.5328C110.919 89.4222 110.716 89.2615 110.557 89.0628C110.399 88.8641 110.289 88.6327 110.235 88.3862C110.182 88.1396 110.187 87.8845 110.249 87.64Z" fill="#371A45"/>
</g>
<g opacity="0.35">
<path opacity="0.35" d="M111.894 87.7944H116.459C116.732 87.7952 117.001 87.7306 117.243 87.6062C117.485 87.4818 117.691 87.3014 117.845 87.0808L115.642 83.3503C115.493 83.0985 115.279 82.8894 115.022 82.744C114.764 82.5987 114.472 82.5221 114.175 82.5221C113.877 82.5221 113.585 82.5987 113.327 82.744C113.07 82.8894 112.856 83.0985 112.707 83.3503L110.503 87.0808C110.658 87.3019 110.865 87.4826 111.108 87.607C111.35 87.7314 111.62 87.7958 111.894 87.7944Z" fill="#371A45"/>
</g>
<g opacity="0.35">
<path opacity="0.35" d="M116.697 89.6863C117.023 89.6416 117.329 89.5044 117.577 89.2917C117.825 89.0789 118.004 88.7999 118.092 88.489C118.004 88.7999 117.825 89.0789 117.577 89.2917C117.329 89.5044 117.023 89.6416 116.697 89.6863Z" fill="#371A45"/>
</g>
<g opacity="0.35">
<path opacity="0.35" d="M118.092 88.4878C118.132 88.3519 118.153 88.2116 118.156 88.0702C118.153 88.2116 118.132 88.3519 118.092 88.4878Z" fill="#371A45"/>
</g>
<path d="M116.459 90.7991H111.895C111.4 90.7989 110.915 90.6716 110.486 90.4299C110.058 90.1882 109.702 89.8406 109.455 89.422C109.208 89.0035 109.078 88.5287 109.077 88.0453C109.077 87.562 109.207 87.0871 109.454 86.6683L111.737 82.8038C111.982 82.3831 112.337 82.0338 112.766 81.7918C113.195 81.5497 113.682 81.4237 114.177 81.4267C114.672 81.4238 115.159 81.5498 115.588 81.7919C116.017 82.0339 116.372 82.3832 116.617 82.8038L118.9 86.6683C119.147 87.0871 119.277 87.5621 119.277 88.0455C119.277 88.5289 119.146 89.0037 118.899 89.4223C118.651 89.8409 118.296 90.1884 117.867 90.4301C117.439 90.6718 116.953 90.7991 116.459 90.7991H116.459ZM114.177 83.6223C114.077 83.6213 113.978 83.6466 113.891 83.6957C113.804 83.7448 113.732 83.8158 113.683 83.9013L111.401 87.7659C111.351 87.8506 111.324 87.9468 111.325 88.0446C111.325 88.1424 111.351 88.2385 111.401 88.3233C111.451 88.408 111.523 88.4783 111.61 88.5273C111.696 88.5762 111.795 88.6021 111.895 88.6022H116.459C116.56 88.6022 116.658 88.5765 116.745 88.5276C116.832 88.4786 116.904 88.4082 116.954 88.3234C117.004 88.2385 117.031 88.1423 117.031 88.0443C117.031 87.9463 117.004 87.8501 116.954 87.7652L114.672 83.9013C114.622 83.8159 114.55 83.7449 114.463 83.6959C114.377 83.6468 114.278 83.6214 114.177 83.6223Z" fill="#371A45"/>
<path d="M91.8934 57.0778C92.5357 69.8172 106.088 85.0058 114.324 84.6093C122.559 84.2127 134.519 67.795 133.877 55.0581C133.235 42.3213 123.316 32.4404 111.722 32.999C100.129 33.5576 91.251 44.3378 91.8934 57.0778Z" fill="#FFE000"/>
<g opacity="0.7">
<path opacity="0.7" d="M91.8915 57.0778L91.8973 57.1916C92.5241 45.6539 100.949 36.3113 111.721 35.7927C123.2 35.2405 133.039 44.9161 133.853 57.4744C133.907 56.6692 133.915 55.8616 133.876 55.0556C133.233 42.3156 123.314 32.4411 111.721 32.999C100.127 33.557 91.2485 44.3378 91.8915 57.0778Z" fill="white"/>
</g>
<g opacity="0.35">
<path opacity="0.35" d="M91.892 54.218C92.5343 66.9581 106.087 82.1454 114.322 81.7508C122.558 81.3561 134.519 64.9346 133.876 52.1958C133.87 52.0783 133.864 51.9626 133.856 51.847C132.026 61.6897 121.65 72.5899 114.322 72.9458C106.087 73.3424 92.6689 60.8438 92.1364 50.2728C92.1202 49.962 92.1143 49.6506 92.1143 49.3437C91.8826 50.9579 91.8081 52.59 91.892 54.218Z" fill="#371A45"/>
</g>
<path d="M114.022 85.7151C109.792 85.7151 104.228 82.209 99.3931 76.4678C94.2991 70.4203 91.0757 63.192 90.7701 57.1318C90.445 50.7011 92.4254 44.5392 96.3432 39.7825C100.293 34.9869 105.735 32.1888 111.667 31.9022C123.853 31.315 134.328 41.6769 135 55.001C135.306 61.0618 132.825 68.5646 128.364 75.0722C124.008 81.4273 118.65 85.5009 114.379 85.7068C114.261 85.7119 114.139 85.7151 114.022 85.7151ZM112.656 34.075C112.364 34.075 112.071 34.082 111.779 34.0966C106.497 34.3508 101.637 36.8591 98.096 41.1596C94.5241 45.4969 92.7199 51.1314 93.017 57.0238C93.2999 62.629 96.3328 69.3755 101.13 75.0722C105.592 80.3692 110.765 83.6821 114.271 83.513C121.821 83.1489 133.368 67.2231 132.757 55.1096C132.16 43.3197 123.23 34.075 112.654 34.075H112.656Z" fill="#371A45"/>
<g opacity="0.7">
<path opacity="0.7" d="M112.565 39.3027C106.96 38.9137 103.063 40.5737 100.061 43.8739C96.8753 47.3749 97.7062 50.7793 100.858 50.7793C104.009 50.7793 105.268 46.013 112.664 43.8415C117.444 42.4376 116.99 39.6083 112.565 39.3027Z" fill="white"/>
</g>
<path d="M57.2323 140.219L55.1395 148.18L51.3998 162.409C50.9863 162.558 50.5436 162.712 50.067 162.882C47.5314 163.79 44.0856 165.216 39.5345 169.579C37.9403 171.108 36.1576 172.248 33.3639 173.92C27.3584 177.514 16.7466 171.667 25.2058 160.457C32.5109 150.779 40.9694 146.339 48.0912 143.541C50.4688 142.61 52.6969 141.858 54.6824 141.158C55.5848 140.839 56.4385 140.527 57.2323 140.219Z" fill="white"/>
<g opacity="0.35">
<path opacity="0.35" d="M51.3995 162.409C48.78 163.363 44.9363 164.4 39.5374 169.579C37.9432 171.108 36.1605 172.248 33.3668 173.92C28.386 176.894 20.2486 173.395 22.4136 165.731C24.3309 178.923 36.0019 170.356 40.0978 166.072C46.6267 159.247 54.2985 157.2 55.0384 158.506C55.7782 159.811 51.3995 162.409 51.3995 162.409Z" fill="#371A45"/>
</g>
<path d="M29.4249 175.988C27.0278 175.988 24.6345 175.073 23.0111 173.342C19.9502 170.077 20.4573 165.035 24.3686 159.854C33.7913 147.37 44.9252 143.485 53.0547 140.648C54.42 140.172 55.7034 139.723 56.8445 139.278C56.9713 139.228 57.107 139.203 57.2436 139.205C57.3803 139.206 57.5152 139.234 57.6408 139.287C57.7664 139.34 57.8802 139.416 57.9757 139.511C58.0711 139.607 58.1464 139.72 58.1971 139.844C58.2479 139.968 58.2731 140.101 58.2715 140.234C58.2698 140.368 58.2413 140.5 58.1874 140.623C58.1336 140.745 58.0556 140.857 57.9578 140.95C57.86 141.043 57.7444 141.117 57.6175 141.166C56.4407 141.626 55.1359 142.082 53.7549 142.564C45.8777 145.314 35.0897 149.078 26.0441 161.063C22.7211 165.465 22.175 169.439 24.5487 171.967C26.5817 174.135 30.2194 174.612 32.8291 173.052C35.7216 171.323 37.3548 170.256 38.8105 168.855C43.9031 163.97 47.7781 162.608 50.3416 161.707C50.5835 161.621 50.8169 161.54 51.0405 161.459C51.1686 161.412 51.3048 161.391 51.4413 161.396C51.5778 161.401 51.712 161.432 51.8362 161.488C51.9604 161.543 52.0721 161.622 52.1651 161.72C52.258 161.818 52.3304 161.933 52.3779 162.058C52.4255 162.183 52.4473 162.316 52.4423 162.45C52.4372 162.583 52.4053 162.714 52.3483 162.836C52.2914 162.957 52.2106 163.066 52.1105 163.157C52.0103 163.248 51.8929 163.319 51.7648 163.365C51.5347 163.448 51.2954 163.533 51.0457 163.619C48.5101 164.509 45.0364 165.731 40.2688 170.304C38.6655 171.842 36.942 172.973 33.9116 174.786C32.5573 175.596 30.9904 175.988 29.4249 175.988Z" fill="#371A45"/>
<path d="M94.8062 117.708C94.7271 117.729 94.6445 117.734 94.5631 117.724C94.4818 117.714 94.4033 117.688 94.3322 117.648C94.2611 117.608 94.1987 117.555 94.1486 117.492C94.0985 117.428 94.0617 117.356 94.0403 117.278L89.3365 100.31C89.315 100.233 89.3093 100.152 89.3198 100.073C89.3303 99.993 89.3567 99.9163 89.3975 99.8468C89.4383 99.7773 89.4927 99.7163 89.5577 99.6673C89.6226 99.6184 89.6968 99.5824 89.776 99.5615C90.6063 99.3417 91.4728 99.2838 92.3261 99.3913C93.1793 99.4988 94.0025 99.7695 94.7487 100.188C95.4949 100.606 96.1495 101.164 96.6751 101.83C97.2006 102.496 97.5869 103.256 97.8119 104.068L99.4164 109.851C99.6416 110.663 99.7009 111.51 99.5911 112.344C99.4812 113.178 99.2043 113.983 98.7762 114.713C98.3481 115.442 97.7772 116.082 97.096 116.596C96.4148 117.11 95.6367 117.488 94.8062 117.708Z" fill="white"/>
<path d="M94.6412 117.945C94.4557 117.945 94.2756 117.885 94.1285 117.775C93.9814 117.664 93.8755 117.51 93.8272 117.335L89.1233 100.367C89.0938 100.262 89.0857 100.152 89.0997 100.044C89.1136 99.9362 89.1492 99.8319 89.2045 99.7374C89.2598 99.6429 89.3336 99.5601 89.4218 99.4936C89.5099 99.4271 89.6107 99.3782 89.7182 99.3499C91.4517 98.8928 93.2998 99.1266 94.8572 99.9999C96.4146 100.873 97.5539 102.315 98.0252 104.008L99.6291 109.795C99.8618 110.634 99.9232 111.51 99.8096 112.372C99.6961 113.234 99.4099 114.066 98.9674 114.82C98.525 115.574 97.9348 116.235 97.2308 116.766C96.5267 117.297 95.7225 117.688 94.8642 117.915C94.7915 117.935 94.7165 117.945 94.6412 117.945ZM91.4873 99.552C90.9288 99.5523 90.3728 99.6249 89.8339 99.7681C89.7827 99.7815 89.7347 99.8046 89.6926 99.8362C89.6506 99.8678 89.6153 99.9072 89.5889 99.9521C89.5624 99.997 89.5453 100.047 89.5385 100.098C89.5317 100.149 89.5353 100.202 89.5491 100.252L94.253 117.22C94.2668 117.27 94.2906 117.317 94.323 117.358C94.3553 117.399 94.3957 117.433 94.4417 117.459C94.4878 117.485 94.5385 117.502 94.5912 117.508C94.6438 117.515 94.6972 117.511 94.7484 117.497C95.5509 117.285 96.3026 116.92 96.9608 116.424C97.619 115.927 98.1706 115.309 98.5843 114.604C98.998 113.899 99.2656 113.122 99.3718 112.316C99.478 111.51 99.4207 110.691 99.2033 109.907L97.5994 104.12C97.2334 102.809 96.4371 101.652 95.3328 100.827C94.2285 100.001 92.8774 99.5535 91.4873 99.552Z" fill="#371A45"/>
<g opacity="0.35">
<path opacity="0.35" d="M98.6654 107.139L99.4183 109.853C99.6435 110.665 99.7028 111.512 99.5929 112.347C99.483 113.181 99.206 113.987 98.7777 114.716C98.3494 115.446 97.7782 116.086 97.0968 116.601C96.4153 117.115 95.6369 117.492 94.8061 117.712C94.6461 117.754 94.4755 117.733 94.3317 117.652C94.188 117.571 94.0829 117.438 94.0396 117.282L92.7874 112.77C92.8635 112.861 92.9648 112.929 93.0793 112.965C93.1938 113.001 93.3166 113.005 93.433 112.975L93.8445 112.865C95.1567 112.518 96.3258 111.78 97.1897 110.754C98.0536 109.728 98.5693 108.465 98.6654 107.139Z" fill="#371A45"/>
</g>
<path d="M94.6402 118.748C94.2749 118.746 93.92 118.628 93.6301 118.411C93.3402 118.194 93.1314 117.889 93.0356 117.544L88.3318 100.576C88.2162 100.16 88.2745 99.7156 88.494 99.3412C88.7134 98.9668 89.076 98.6928 89.5021 98.5797C91.4455 98.0675 93.5173 98.3296 95.2633 99.3085C97.0092 100.287 98.2867 101.903 98.8155 103.802L100.419 109.589C100.946 111.488 100.679 113.515 99.6768 115.222C98.6748 116.929 97.02 118.178 95.0765 118.692C94.9342 118.729 94.7875 118.748 94.6402 118.748ZM90.4545 100.45L94.9322 116.605C96.2421 116.152 97.3285 115.232 97.9738 114.029C98.619 112.826 98.7755 111.429 98.4118 110.119L96.8078 104.332C96.4429 103.022 95.5862 101.895 94.4085 101.175C93.2309 100.456 91.8189 100.197 90.4545 100.45Z" fill="#371A45"/>
<path d="M32.4713 114.737C32.5504 114.716 32.633 114.71 32.7143 114.721C32.7957 114.731 32.8742 114.757 32.9453 114.796C33.0164 114.836 33.0788 114.89 33.1289 114.953C33.1789 115.017 33.2157 115.089 33.2371 115.166L37.9417 132.138C37.9631 132.216 37.9688 132.296 37.9583 132.376C37.9478 132.455 37.9214 132.532 37.8806 132.602C37.8398 132.671 37.7854 132.732 37.7204 132.781C37.6555 132.83 37.5813 132.866 37.5022 132.887C35.8252 133.331 34.0364 133.106 32.5293 132.261C31.0222 131.416 29.9202 130.02 29.4656 128.381L27.8643 122.592C27.4097 120.953 27.6397 119.205 28.5036 117.732C29.3676 116.259 30.7947 115.182 32.4713 114.737Z" fill="white"/>
<path d="M35.79 133.324C34.3026 133.323 32.857 132.843 31.6756 131.96C30.4943 131.077 29.6427 129.838 29.2521 128.435L27.6482 122.649C27.1806 120.954 27.42 119.147 28.3138 117.625C29.2076 116.102 30.6829 114.989 32.4157 114.528C32.6321 114.471 32.8627 114.5 33.0571 114.609C33.2514 114.718 33.3935 114.898 33.4521 115.11L38.1566 132.078C38.1861 132.183 38.1942 132.292 38.1802 132.4C38.1663 132.508 38.1307 132.613 38.0754 132.707C38.0201 132.802 37.9463 132.885 37.8581 132.951C37.77 133.018 37.6692 133.066 37.5617 133.095C36.9841 133.247 36.3884 133.325 35.79 133.324ZM32.5289 114.945C30.9095 115.376 29.5311 116.417 28.696 117.84C27.8609 119.263 27.6372 120.952 28.074 122.536L29.6786 128.325C30.1178 129.909 31.1826 131.258 32.6389 132.074C34.0952 132.891 35.8236 133.108 37.444 132.679C37.5473 132.652 37.6353 132.585 37.6886 132.495C37.742 132.404 37.7564 132.297 37.7288 132.195L33.0243 115.227C33.0104 115.177 32.9866 115.131 32.9542 115.089C32.9218 115.048 32.8814 115.014 32.8354 114.988C32.7894 114.962 32.7387 114.946 32.6861 114.939C32.6335 114.933 32.5801 114.936 32.5289 114.95V114.945Z" fill="#371A45"/>
<g opacity="0.35">
<path opacity="0.35" d="M36.6376 127.428L37.9419 132.138C37.985 132.295 37.9629 132.461 37.8804 132.602C37.7978 132.742 37.6617 132.845 37.5017 132.888C36.6715 133.108 35.805 133.166 34.9517 133.059C34.0985 132.951 33.2753 132.681 32.529 132.263C31.7828 131.844 31.1283 131.286 30.6028 130.62C30.0773 129.955 29.6911 129.194 29.4664 128.382L28.7903 125.944C29.5921 126.893 30.6568 127.597 31.8568 127.97C33.0569 128.343 34.3415 128.37 35.5571 128.049L36.1903 127.88C36.2996 127.851 36.3989 127.794 36.4776 127.714C36.5563 127.635 36.6116 127.536 36.6376 127.428Z" fill="#371A45"/>
</g>
<path d="M35.7905 134.126C34.1228 134.124 32.502 133.586 31.1776 132.595C29.8532 131.605 28.8986 130.216 28.4607 128.643L26.8561 122.86C26.3321 120.96 26.6003 118.935 27.602 117.228C28.6036 115.521 30.2568 114.272 32.1991 113.756C32.6251 113.643 33.0794 113.7 33.4623 113.915C33.8453 114.129 34.1256 114.483 34.2418 114.899L38.9463 131.868C39.062 132.284 39.0036 132.728 38.7842 133.103C38.5647 133.477 38.2021 133.751 37.7761 133.864C37.129 134.037 36.4613 134.125 35.7905 134.126ZM32.3447 115.84C31.0361 116.295 29.951 117.215 29.306 118.417C28.661 119.619 28.5036 121.015 28.8651 122.326L30.469 128.113C30.8326 129.424 31.6892 130.552 32.8673 131.272C34.0455 131.991 35.4583 132.25 36.823 131.995L32.3447 115.84Z" fill="#371A45"/>
<g opacity="0.35">
<path opacity="0.35" d="M89.856 128.961C89.3912 132.728 88.0275 136.336 85.875 139.494C83.7224 142.652 80.8412 145.272 77.4632 147.142C74.0853 149.013 70.3052 150.081 66.4274 150.262C62.5496 150.443 58.6825 149.731 55.1378 148.184C54.5062 147.909 53.8895 147.609 53.2874 147.282C51.3947 146.263 49.6462 145.006 48.0862 143.544C50.4638 142.613 52.6919 141.861 54.6774 141.161C55.6332 137.621 56.8327 134.527 58.1031 134.527H79.2851C80.512 134.527 81.5691 134.73 82.4806 135.08C82.6939 134.926 82.9188 134.765 83.1509 134.595C84.9239 133.299 87.217 131.457 89.856 128.961Z" fill="#371A45"/>
</g>
<path d="M63.643 146.182C80.5713 146.182 94.2945 132.768 94.2945 116.221C94.2945 99.6743 80.5713 86.2603 63.643 86.2603C46.7146 86.2603 32.9915 99.6743 32.9915 116.221C32.9915 132.768 46.7146 146.182 63.643 146.182Z" fill="white"/>
<path d="M63.5786 146.407C57.5068 146.407 51.5722 144.651 46.4204 141.267C39.5762 136.77 34.9334 129.938 33.347 122.027C31.7607 114.117 33.4199 106.076 38.0204 99.3874C42.6208 92.6987 49.61 88.1592 57.7025 86.6086C65.7949 85.058 74.0213 86.6798 80.8649 91.176C87.7084 95.6722 92.3518 102.505 93.9382 110.415C97.2136 126.744 86.2878 142.636 69.5827 145.835C67.6049 146.215 65.5942 146.406 63.5786 146.407ZM63.7086 86.4669C61.7224 86.4679 59.741 86.6571 57.7922 87.0318C49.8161 88.5609 42.9258 93.0342 38.3909 99.6282C33.8561 106.222 32.221 114.148 33.7853 121.945C35.3495 129.742 39.9253 136.476 46.6713 140.908C53.4173 145.34 61.526 146.941 69.5021 145.411C85.9679 142.256 96.7377 126.593 93.509 110.499C91.9454 102.702 87.369 95.9664 80.623 91.5344C75.5407 88.1986 69.69 86.4669 63.706 86.4669H63.7086Z" fill="#371A45"/>
<g opacity="0.35">
<path opacity="0.35" d="M92.6195 106.442C93.0829 107.754 93.4522 109.095 93.7247 110.457C96.9794 126.695 86.1537 142.439 69.539 145.624C52.9243 148.809 36.82 138.223 33.5614 121.986C33.4678 121.52 33.3852 121.05 33.3157 120.588C38.2139 134.511 52.988 143.123 68.1873 140.211C84.3216 137.115 94.9958 122.176 92.6195 106.442Z" fill="#371A45"/>
</g>
<path d="M63.5768 147.209C57.3438 147.209 51.2518 145.406 45.9635 141.935C38.9373 137.318 34.171 130.305 32.5424 122.184C30.9137 114.064 32.6171 105.81 37.3398 98.9425C42.0626 92.0746 49.2377 87.4163 57.5453 85.8244C65.853 84.2324 74.2965 85.8975 81.3221 90.5131C88.3477 95.1288 93.1146 102.143 94.7432 110.263C98.1052 127.026 86.8894 143.337 69.7403 146.624C67.7099 147.013 65.6458 147.209 63.5768 147.209ZM63.7068 87.2689C61.7737 87.2697 59.8452 87.4538 57.9484 87.8186C50.1869 89.3057 43.4825 93.6589 39.0699 100.075C34.6573 106.491 33.0664 114.204 34.5884 121.79C36.1104 129.377 40.5627 135.93 47.1273 140.243C53.6919 144.555 61.5808 146.112 69.3424 144.624C85.3648 141.554 95.844 126.314 92.7024 110.652C91.181 103.066 86.7281 96.5123 80.1635 92.1998C75.2204 88.9536 69.527 87.2714 63.7042 87.2714L63.7068 87.2689Z" fill="#371A45"/>
<path d="M93.7773 111.23C95.0197 116.966 94.2688 122.685 91.9659 127.765C90.2391 131.574 81.4523 139.433 69.0805 142.109C57.6073 144.587 45.8505 140.764 42.6927 137.967C38.4804 134.235 35.4221 129.305 34.1757 123.568C30.8872 108.39 42.865 99.3359 59.3237 95.9283C75.7823 92.5207 90.4882 96.0522 93.7773 111.23Z" fill="#371A45"/>
<g opacity="0.5">
<path opacity="0.5" d="M83.8068 117.103C85.9768 117.04 87.665 114.616 87.5775 111.689C87.4899 108.762 85.6599 106.44 83.4899 106.503C81.3199 106.567 79.6317 108.991 79.7193 111.918C79.8068 114.845 81.6369 117.166 83.8068 117.103Z" fill="white"/>
</g>
<g opacity="0.5">
<path opacity="0.5" d="M83.2765 123.274C83.4262 121.938 82.5967 120.754 81.4238 120.628C80.2509 120.503 79.1788 121.484 79.0291 122.82C78.8794 124.156 79.7089 125.34 80.8818 125.466C82.0546 125.591 83.1268 124.61 83.2765 123.274Z" fill="white"/>
</g>
<g opacity="0.35">
<path opacity="0.35" d="M84.9131 98.2702C89.2925 100.914 92.4548 105.134 93.7766 111.229C95.0197 116.967 94.2675 122.686 91.9666 127.766C90.2398 131.575 81.4516 139.434 69.0812 142.111C64.7128 143.056 60.3041 143.086 56.342 142.605C71.4802 138.998 82.1727 129.371 84.3136 124.647C87.2393 118.199 88.1892 110.94 86.6113 103.662C86.2177 101.817 85.6492 100.012 84.9131 98.2702Z" fill="#111A28"/>
</g>
<path d="M33.6153 111.112C33.4531 111.111 33.2936 111.071 33.1512 110.996C33.0088 110.92 32.888 110.81 32.7998 110.677C32.7116 110.544 32.6587 110.392 32.6459 110.234C32.6331 110.076 32.6608 109.917 32.7265 109.772C36.3765 101.074 45.6932 94.59 58.2932 91.978C70.8002 89.389 81.9685 91.4779 88.946 97.709C89.1296 97.8581 89.2508 98.0679 89.2868 98.2986C89.3227 98.5292 89.2709 98.7648 89.1411 98.9606C89.0113 99.1564 88.8125 99.2988 88.5825 99.361C88.3524 99.4231 88.107 99.4007 87.8927 99.2978L87.8459 99.273L87.7478 99.219L87.6645 99.1446C81.163 93.3094 70.6019 91.3762 58.6969 93.8407C46.7282 96.3192 37.9167 102.395 34.5216 110.512L34.4793 110.6C34.3969 110.754 34.2728 110.883 34.1205 110.974C33.9682 111.064 33.7934 111.112 33.6153 111.112Z" fill="#371A45"/>
<g opacity="0.5">
<path opacity="0.5" d="M42.8255 131.213C42.8255 131.213 34.7721 117.236 41.7346 109.559C48.6971 101.883 60.5799 99.4484 60.4635 100.25C60.4635 100.25 47.9884 106.084 45.0451 117.311C42.7761 125.967 42.8255 131.213 42.8255 131.213Z" fill="white"/>
</g>
<path d="M68.6169 186.347C69.7436 186.28 70.91 186.24 72.0562 186.186C73.2024 186.132 74.3597 186.086 75.5066 185.984C76.6535 185.883 77.8003 185.757 78.9342 185.555C80.0681 185.352 81.1915 185.092 82.2968 184.709C82.3235 184.7 82.3526 184.701 82.3787 184.711C82.4048 184.722 82.4261 184.741 82.4389 184.765C82.4516 184.79 82.4548 184.818 82.448 184.845C82.4411 184.872 82.4246 184.895 82.4015 184.911C81.4106 185.565 80.3099 186.062 79.1832 186.47C78.0505 186.858 76.8918 187.17 75.7153 187.403C74.544 187.641 73.3589 187.809 72.1667 187.907C70.9718 187.996 69.7911 188.038 68.572 187.937C68.3644 187.923 68.17 187.833 68.0288 187.683C67.8876 187.534 67.8103 187.337 67.8128 187.134C67.8153 186.93 67.8974 186.736 68.0422 186.59C68.1871 186.443 68.3836 186.357 68.5916 186.348L68.6169 186.347Z" fill="#371A45"/>
<path d="M77.2016 199.977C71.0674 199.977 66.1282 195.906 66.058 195.847C65.8991 195.708 65.8022 195.514 65.7881 195.306C65.7741 195.099 65.8441 194.894 65.983 194.736C66.1218 194.578 66.3185 194.48 66.5308 194.462C66.743 194.445 66.9538 194.509 67.1177 194.642C67.489 194.953 76.2888 202.171 84.5093 195.806C84.5926 195.738 84.689 195.687 84.7926 195.657C84.8963 195.626 85.0053 195.616 85.1131 195.626C85.2208 195.637 85.3253 195.669 85.4203 195.72C85.5153 195.771 85.5989 195.84 85.6662 195.923C85.7335 196.006 85.7831 196.102 85.8121 196.204C85.8412 196.306 85.8491 196.412 85.8353 196.518C85.8215 196.623 85.7864 196.724 85.732 196.816C85.6775 196.907 85.6049 196.987 85.5184 197.051C82.7208 199.219 79.8497 199.977 77.2016 199.977Z" fill="#371A45"/>
<path d="M55.8439 197.388C53.1094 197.388 50.2825 196.351 47.4712 194.291C43.9994 191.749 41.796 188.566 41.7037 188.432C41.5835 188.257 41.5394 188.043 41.5809 187.836C41.6225 187.629 41.7464 187.447 41.9254 187.33C42.1044 187.212 42.3238 187.169 42.5353 187.21C42.7469 187.25 42.9332 187.371 43.0534 187.546C43.136 187.667 51.4651 199.557 60.4776 194.555C60.665 194.45 60.8871 194.423 61.095 194.479C61.3028 194.535 61.4795 194.67 61.5861 194.853C61.6926 195.036 61.7204 195.253 61.6632 195.456C61.606 195.659 61.4686 195.832 61.2811 195.936C59.5329 196.905 57.7072 197.388 55.8439 197.388Z" fill="#371A45"/>
<path d="M46.554 165.185C46.3592 165.184 46.171 165.116 46.0236 164.991C45.8763 164.866 45.7795 164.694 45.751 164.506C44.5411 156.479 37.2418 149.381 37.169 149.31C37.0153 149.163 36.9279 148.961 36.9261 148.751C36.9242 148.54 37.0081 148.337 37.1592 148.187C37.3104 148.037 37.5164 147.951 37.732 147.949C37.9475 147.948 38.155 148.03 38.3087 148.177C38.6247 148.48 46.069 155.712 47.3595 164.275C47.391 164.483 47.3364 164.695 47.2079 164.864C47.0794 165.033 46.8874 165.146 46.6742 165.176C46.6344 165.182 46.5942 165.184 46.554 165.185Z" fill="#371A45"/>
<path d="M41.7786 200.286C42.4527 201.25 43.2797 202.103 44.2283 202.812C45.1626 203.507 46.212 204.033 47.3049 204.273C48.3823 204.507 49.5026 204.47 50.5615 204.166C51.6082 203.864 52.5893 203.353 53.4911 202.713C53.7153 202.554 53.9948 202.489 54.2683 202.532C54.5418 202.574 54.7868 202.721 54.9494 202.94C55.112 203.159 55.1789 203.433 55.1354 203.7C55.0918 203.967 54.9414 204.207 54.7173 204.366C54.6783 204.393 54.6375 204.418 54.595 204.441L54.5807 204.448C53.4339 205.036 52.1804 205.482 50.871 205.663C50.215 205.739 49.5512 205.773 48.8958 205.693C48.2465 205.623 47.6087 205.473 46.9974 205.248C45.7874 204.793 44.7465 204.054 43.8831 203.195C43.028 202.341 42.3175 201.359 41.7786 200.286Z" fill="#371A45"/>
<path d="M66.9211 203.708C67.5513 204.559 68.3254 205.299 69.2103 205.895C70.0587 206.478 71.0216 206.881 72.0379 207.081C73.0187 207.261 74.028 207.226 74.9935 206.979C75.9555 206.729 76.8728 206.337 77.7137 205.816C77.836 205.742 77.9727 205.694 78.1152 205.674C78.2576 205.654 78.4028 205.663 78.5415 205.7C78.6803 205.737 78.8097 205.802 78.9215 205.891C79.0333 205.98 79.1253 206.09 79.1915 206.215C79.2578 206.339 79.2969 206.476 79.3065 206.617C79.316 206.757 79.2958 206.898 79.2471 207.03C79.1984 207.163 79.1222 207.284 79.0234 207.386C78.9245 207.488 78.8051 207.569 78.6727 207.625L78.6558 207.631C77.5683 208.085 76.4161 208.374 75.2392 208.487C74.0601 208.596 72.8709 208.45 71.7557 208.06C70.6824 207.671 69.7035 207.068 68.8807 206.289C68.0818 205.544 67.419 204.671 66.9211 203.708Z" fill="#371A45"/>
</svg>
