<svg width="45" height="57" viewBox="0 0 45 57" fill="none" xmlns="http://www.w3.org/2000/svg">
<path d="M22.4982 40.2032C19.8812 40.1991 17.3136 40.9151 15.0763 42.2727V42.9792H29.9201V42.2752C27.6831 40.9166 25.1154 40.1998 22.4982 40.2032Z" fill="#FED100"/>
<path d="M31.8849 42.9767H13.1107V54.7113H31.8849V42.9767Z" fill="#97512C"/>
<path d="M33.1827 54.7113H11.8151V56.487H33.1827V54.7113Z" fill="#7C3E25"/>
<path d="M23.9821 28.6765C23.0254 29.0321 21.9728 29.0321 21.0161 28.6765V28.6708C21.0161 27.8022 20.5994 26.8968 19.7652 26.2615L19.7496 26.2533C16.8185 24.2831 14.4814 21.5494 12.9908 18.3476C10.3035 12.6049 8.91517 6.34038 8.92461 0H36.0727C36.0818 6.34078 34.6929 12.6056 32.0048 18.3484C30.5143 21.5502 28.1772 24.2839 25.2461 26.2542L25.2313 26.2623C24.3971 26.8976 23.9804 27.803 23.9804 28.6716L23.9821 28.6765Z" fill="#FED100"/>
<path d="M23.7612 28.7518C23.761 29.135 23.8446 29.5135 24.0061 29.861C24.1676 30.2084 24.4031 30.5164 24.6961 30.7633C24.8457 30.8989 24.9506 31.0768 24.997 31.2734C25.0434 31.4699 25.029 31.6759 24.9558 31.8641C24.8827 32.0524 24.7541 32.214 24.5871 32.3276C24.4202 32.4412 24.2227 32.5015 24.0207 32.5004H20.977C20.7756 32.5011 20.5787 32.4408 20.4123 32.3274C20.2458 32.2141 20.1175 32.0531 20.0443 31.8655C19.9711 31.6779 19.9563 31.4726 20.0019 31.2764C20.0475 31.0803 20.1514 30.9025 20.2999 30.7665C20.5929 30.5197 20.8284 30.2117 20.9899 29.8643C21.1514 29.5168 21.235 29.1383 21.2348 28.7551L23.7612 28.7518Z" fill="#FED100"/>
<path d="M25.028 41.0554C23.3764 41.54 21.6204 41.54 19.9688 41.0554L19.9761 41.0316V39.3771C20.8918 37.1997 21.1703 34.8071 20.7792 32.4775H24.2176C23.8265 34.8071 24.105 37.1997 25.0207 39.3771V41.0333L25.028 41.0554Z" fill="#FFDB31"/>
<path d="M12.9089 25.9185C12.2182 25.9178 11.5504 25.6705 11.026 25.221C10.8224 25.0463 10.6966 24.798 10.6762 24.5305C10.6557 24.2631 10.7424 23.9985 10.9171 23.7949C11.0917 23.5914 11.3401 23.4655 11.6076 23.4451C11.875 23.4247 12.1396 23.5114 12.3432 23.686C12.5009 23.8224 12.7028 23.8969 12.9113 23.8956C13.0431 23.895 13.1731 23.8647 13.2916 23.8069C13.4101 23.7492 13.514 23.6655 13.5957 23.5621C13.6774 23.4587 13.7348 23.3382 13.7636 23.2096C13.7923 23.0809 13.7918 22.9475 13.7619 22.8191C13.6235 22.3338 13.3618 21.8927 13.0022 21.5387C12.9245 21.4782 12.8529 21.4102 12.7885 21.3357L3.93807 13.0297C1.00566 10.2782 -1.14412 5.96878 0.663464 2.546C1.05037 1.82463 1.61892 1.21677 2.31286 0.782579C3.00679 0.348384 3.80207 0.102894 4.62001 0.0703964C4.64402 0.0703964 4.66858 0.0703964 4.69369 0.0703964H4.77555C4.80011 0.0703964 4.82385 0.0703964 4.84759 0.0703964C5.72077 0.0995681 6.56725 0.378612 7.28659 0.874418C8.00594 1.37022 8.56796 2.06198 8.90596 2.86761C9.24397 3.67324 9.34377 4.55892 9.19353 5.41956C9.04329 6.28021 8.64931 7.07969 8.05834 7.72315C7.96847 7.82093 7.86021 7.90005 7.73976 7.95599C7.61931 8.01193 7.48902 8.0436 7.35633 8.04918C7.22364 8.05477 7.09115 8.03417 6.96642 7.98855C6.84169 7.94293 6.72716 7.8732 6.62939 7.78332C6.53161 7.69345 6.45249 7.58519 6.39655 7.46474C6.34061 7.34429 6.30894 7.214 6.30336 7.08131C6.29777 6.94862 6.31837 6.81612 6.36399 6.69139C6.4096 6.56667 6.47934 6.45214 6.56922 6.35437C6.90102 5.993 7.12123 5.54339 7.20332 5.05972C7.28541 4.57605 7.22588 4.07896 7.0319 3.62835C6.83792 3.17774 6.51776 2.79285 6.11002 2.52005C5.70227 2.24725 5.22433 2.09819 4.7338 2.09083C4.26346 2.1011 3.8043 2.23612 3.40327 2.48209C3.00224 2.72805 2.67375 3.07614 2.4514 3.49072C1.14811 5.95814 3.02445 9.40057 5.32159 11.5553L14.2015 19.8883C14.2269 19.9112 14.2482 19.9333 14.2662 19.953C14.2842 19.9726 14.312 19.9906 14.3333 20.0111C14.9926 20.6311 15.4694 21.4199 15.7119 22.2919C15.7146 22.2996 15.7168 22.3076 15.7185 22.3156C15.8253 22.7428 15.8334 23.1887 15.7422 23.6194C15.6509 24.0502 15.4628 24.4545 15.192 24.8017C14.9211 25.1489 14.5748 25.4299 14.1792 25.6232C13.7836 25.8166 13.3492 25.9173 12.9089 25.9177V25.9185ZM12.8139 21.3594H12.818H12.8139Z" fill="#FED100"/>
<path d="M29.1918 23.0221C29.1918 22.784 29.221 22.5467 29.2785 22.3156C29.2802 22.3076 29.2824 22.2996 29.2851 22.2919C29.5276 21.4199 30.0044 20.6311 30.6637 20.0111C30.685 19.9906 30.7079 19.9718 30.7308 19.953C30.7538 19.9342 30.7701 19.9112 30.7955 19.8883L39.6746 11.5553C41.9709 9.40057 43.8497 5.95814 42.5448 3.49072C42.3225 3.07626 41.9942 2.72825 41.5933 2.48229C41.1924 2.23633 40.7334 2.10124 40.2632 2.09083C39.7729 2.09865 39.2953 2.24805 38.8879 2.52103C38.4805 2.79401 38.1607 3.17893 37.967 3.62945C37.7734 4.07996 37.714 4.57686 37.7962 5.06031C37.8784 5.54376 38.0986 5.99315 38.4303 6.35436C38.6118 6.55184 38.7074 6.81332 38.6961 7.08131C38.6848 7.34929 38.5676 7.60181 38.3701 7.78332C38.1726 7.96483 37.9111 8.06047 37.6431 8.04918C37.3752 8.0379 37.1226 7.92062 36.9411 7.72315C36.3502 7.07969 35.9562 6.28021 35.8059 5.41956C35.6557 4.55892 35.7555 3.67324 36.0935 2.86761C36.4315 2.06198 36.9935 1.37022 37.7129 0.874418C38.4322 0.378612 39.2787 0.0995681 40.1519 0.0703964C40.1756 0.0703964 40.1994 0.0703964 40.2239 0.0703964H40.3058C40.3309 0.0703964 40.3554 0.0703964 40.3795 0.0703964C41.1974 0.102894 41.9927 0.348384 42.6866 0.782579C43.3805 1.21677 43.9491 1.82463 44.336 2.546C46.1444 5.96878 43.9946 10.2782 41.0614 13.0296L32.2077 21.3357C32.1435 21.4101 32.0722 21.4781 31.9948 21.5387C31.6364 21.8931 31.3758 22.3342 31.2384 22.8191C31.2085 22.9475 31.2079 23.0809 31.2367 23.2095C31.2655 23.3382 31.3228 23.4587 31.4046 23.5621C31.4863 23.6655 31.5902 23.7492 31.7087 23.8069C31.8272 23.8647 31.9572 23.895 32.089 23.8956C32.2975 23.8969 32.4994 23.8224 32.6571 23.686C32.8607 23.5114 33.1253 23.4247 33.3927 23.4451C33.6602 23.4655 33.9085 23.5914 34.0832 23.7949C34.2579 23.9985 34.3445 24.2631 34.3241 24.5305C34.3037 24.798 34.1779 25.0463 33.9743 25.221C33.5538 25.5816 33.0386 25.8141 32.49 25.8908C31.9413 25.9675 31.3822 25.8852 30.8789 25.6537C30.3756 25.4223 29.9492 25.0514 29.6503 24.5849C29.3514 24.1185 29.1926 23.5761 29.1926 23.0221H29.1918Z" fill="#FED100"/>
<path d="M14.6878 1.23534H10.0927C10.0873 5.7725 10.9625 10.2676 12.6698 14.4713C11.763 9.95933 12.4776 5.27208 14.6878 1.23534Z" fill="#FFDF5A"/>
<path d="M13.1107 54.7113H31.8857V42.9792C31.8857 42.9792 25.6091 54.7113 13.1107 54.7113Z" fill="#8D492B"/>
<path d="M29.3445 45.6848H15.6526V52.3896H29.3445V45.6848Z" fill="#FED100"/>
<path d="M1.43135 3.88287C1.84235 3.11658 2.44631 2.4709 3.18347 2.00971C3.92063 1.54851 4.76545 1.2878 5.63431 1.25336C5.65969 1.25336 5.68588 1.25336 5.71208 1.25336H5.79395C5.81932 1.25336 5.8447 1.25336 5.87008 1.25336C6.38666 1.27033 6.89717 1.37011 7.38213 1.54889C6.66187 0.880773 5.72468 0.495028 4.74279 0.46254C4.72151 0.46254 4.70022 0.46254 4.67894 0.46254H4.60772C4.58479 0.46254 4.56351 0.46254 4.54141 0.46254C3.80898 0.491808 3.09687 0.711715 2.47547 1.10052C1.85407 1.48932 1.3449 2.03357 0.998283 2.67945C0.254947 4.08671 0.261496 5.66098 0.734677 7.19104C0.658097 6.04522 0.899169 4.90048 1.43135 3.88287Z" fill="#FFDF5A"/>
<path d="M15.806 22.7307C16.9542 24.079 18.2819 25.2634 19.7519 26.2509L19.7675 26.2591C20.6017 26.8943 21.0184 27.7998 21.0184 28.6684V28.6741C21.9751 29.0296 23.0277 29.0296 23.9844 28.6741V28.6684C23.9844 27.7998 24.4011 26.8943 25.2353 26.2591L25.25 26.2509C28.1811 24.2806 30.5182 21.547 32.0088 18.3452C34.6949 12.603 36.0824 6.33937 36.0726 0C30.0743 23.7614 15.8715 22.7307 15.806 22.7307Z" fill="#FCC200"/>
<path d="M28.7441 14.0086C29.304 10.5597 26.9619 7.30998 23.513 6.75014C20.0641 6.1903 16.8144 8.53236 16.2545 11.9813C15.6947 15.4302 18.0367 18.6799 21.4856 19.2397C24.9346 19.7996 28.1843 17.4575 28.7441 14.0086Z" fill="#FFF3C0"/>
<path d="M21.9044 17.7336V10.1374H20.5184V8.45094H23.7865V17.7336H21.9044Z" fill="#D69A13"/>
</svg>
