<svg width="192" height="208" viewBox="0 0 192 208" fill="none" xmlns="http://www.w3.org/2000/svg">
<path d="M147.569 189.547C144.907 199.62 139.381 198.22 132.561 196.486C128.881 195.551 123.409 192.759 119.378 189.516C115.94 186.746 113.552 183.644 114.229 181.082C115.7 175.519 131.066 174.607 137.884 176.339C143.952 177.879 148.997 179.161 148.162 186.519C148.037 187.541 147.839 188.552 147.569 189.547Z" fill="white"/>
<path d="M139.46 197.841C137.35 197.841 134.989 197.242 132.527 196.616C128.617 195.624 123.174 192.747 119.291 189.62C115.325 186.425 113.48 183.381 114.097 181.048C114.996 177.64 120.708 176.323 124.032 175.841C128.771 175.154 134.352 175.299 137.92 176.207C143.945 177.737 149.149 179.058 148.301 186.533C148.175 187.562 147.975 188.581 147.704 189.583L147.571 189.549L147.704 189.583C146.469 194.258 144.549 196.797 141.662 197.578C140.944 197.762 140.203 197.85 139.46 197.841ZM130.235 175.684C128.173 175.681 126.114 175.823 124.073 176.111C120.817 176.585 115.224 177.861 114.364 181.118C113.776 183.343 115.589 186.289 119.467 189.413C123.322 192.517 128.721 195.372 132.597 196.356C135.919 197.2 139.058 197.997 141.589 197.314C144.371 196.564 146.229 194.086 147.437 189.515C147.704 188.526 147.901 187.521 148.026 186.506C148.847 179.264 143.995 178.032 137.851 176.472C135.801 175.95 133.078 175.682 130.236 175.682L130.235 175.684Z" fill="#371A45"/>
<g opacity="0.35">
<path opacity="0.35" d="M147.059 187.225C142.754 190.108 137.757 186.598 137.757 186.598C132.275 189.877 122.934 189.935 116.207 186.038C112.769 183.268 113.553 183.644 114.229 181.082C115.7 175.519 131.066 174.607 137.884 176.339C143.952 177.879 149.392 178.394 147.059 187.225Z" fill="#371A45"/>
</g>
<path d="M139.456 198.667C137.244 198.667 134.831 198.058 132.316 197.417C128.649 196.486 123.575 193.901 119.692 190.984C116.231 188.386 112.31 184.517 113.281 180.841C114.252 177.165 119.597 175.649 123.909 175.023C128.748 174.322 134.465 174.476 138.132 175.407C144.969 177.142 151.426 178.782 148.519 189.786C147.2 194.777 145.092 197.504 141.883 198.369C141.091 198.575 140.275 198.675 139.456 198.667ZM130.202 176.482C123.424 176.482 116.031 178.093 115.18 181.324C114.641 183.366 116.72 186.331 120.885 189.458C124.58 192.232 129.372 194.683 132.808 195.556C136.157 196.406 139.05 197.141 141.364 196.517C142.913 196.099 145.142 194.897 146.618 189.306C149.037 180.165 144.502 179.013 137.64 177.269L137.886 176.338L137.64 177.269C135.574 176.744 132.937 176.482 130.202 176.482Z" fill="#371A45"/>
<path d="M158.322 186.67C154.673 185.675 150.97 187.498 150.05 190.741C149.13 193.984 151.342 197.419 154.991 198.413C157.645 199.136 165.7 197.983 169.892 197.301C170.127 197.263 170.346 197.16 170.524 197.004C170.701 196.848 170.829 196.645 170.893 196.42C170.957 196.195 170.954 195.957 170.884 195.734C170.814 195.511 170.681 195.312 170.499 195.16C167.267 192.454 160.976 187.391 158.322 186.67Z" fill="#D73C2C"/>
<path d="M156.18 187.715C155.607 187.543 155.004 187.486 154.408 187.546C153.811 187.607 153.233 187.783 152.708 188.066C152.182 188.348 151.719 188.731 151.347 189.192C150.974 189.652 150.7 190.181 150.539 190.748C150.379 191.314 150.335 191.906 150.412 192.489C150.488 193.072 150.683 193.634 150.984 194.142C151.286 194.65 151.688 195.094 152.167 195.447C152.646 195.8 153.193 196.056 153.774 196.199C156.176 196.854 165.405 194.798 165.405 194.798C165.405 194.798 158.583 188.37 156.18 187.715Z" fill="#E5A900"/>
<path d="M154.337 189.186C152.771 188.759 151.182 189.541 150.788 190.933C150.393 192.325 151.341 193.798 152.908 194.225C154.475 194.651 160.416 193.557 160.416 193.557C160.416 193.557 155.902 189.612 154.337 189.186Z" fill="#FFFF00"/>
<path d="M158.544 199.468C156.831 199.468 155.401 199.353 154.502 199.069C152.526 198.443 150.892 197.166 149.899 195.473C148.888 193.75 148.66 191.803 149.256 189.992C149.853 188.182 151.199 186.734 153.049 185.916C154.865 185.112 156.952 185.014 158.924 185.64C161.557 186.474 166.999 191.096 171.1 194.827C171.411 195.11 171.634 195.475 171.741 195.878C171.849 196.281 171.836 196.706 171.706 197.102C171.575 197.499 171.331 197.85 171.003 198.116C170.676 198.381 170.277 198.549 169.855 198.6C166.204 199.043 161.846 199.468 158.544 199.468ZM156.32 187.156C155.471 187.153 154.631 187.328 153.856 187.668C152.518 188.26 151.548 189.294 151.123 190.582C150.699 191.869 150.868 193.266 151.6 194.512C152.349 195.79 153.594 196.757 155.104 197.236C156.84 197.785 162.266 197.581 169.621 196.689C169.672 196.683 169.72 196.663 169.76 196.631C169.799 196.599 169.829 196.556 169.844 196.508C169.86 196.46 169.862 196.409 169.849 196.36C169.836 196.312 169.809 196.268 169.771 196.234C164.341 191.294 160.063 188.017 158.327 187.467C157.679 187.261 157.002 187.156 156.32 187.156Z" fill="#371A45"/>
<path d="M149.558 196.061L152.562 185.554C152.925 184.285 151.871 182.953 150.35 182.761L148.153 182.484L144.16 196.442L146.184 197.322C147.585 197.932 149.195 197.332 149.558 196.061Z" fill="#F92323"/>
<g opacity="0.7">
<path opacity="0.7" d="M150.354 182.761L148.156 182.484L147.566 184.543L149.565 184.795C151.086 184.988 152.139 186.319 151.777 187.589L149.139 196.809C149.335 196.595 149.479 196.34 149.559 196.064L152.562 185.554C152.927 184.285 151.871 182.953 150.354 182.761Z" fill="white"/>
</g>
<g opacity="0.35">
<path opacity="0.35" d="M152.563 185.555L149.557 196.057C149.193 197.329 147.585 197.928 146.185 197.317L144.16 196.436L146.159 189.457L148.044 190.28C149.445 190.89 151.052 190.29 151.416 189.021L152.62 184.814C152.651 185.062 152.632 185.314 152.563 185.555Z" fill="#371A45"/>
</g>
<path d="M147.591 198.68C147.125 198.679 146.664 198.582 146.238 198.394L142.989 196.979L147.44 181.424L150.965 181.869C151.425 181.923 151.867 182.073 152.262 182.309C152.657 182.546 152.996 182.863 153.254 183.239C153.474 183.552 153.62 183.909 153.684 184.283C153.748 184.658 153.728 185.041 153.625 185.407L150.386 196.723C150.281 197.089 150.096 197.428 149.842 197.716C149.589 198.005 149.275 198.235 148.921 198.392C148.505 198.583 148.051 198.681 147.591 198.68ZM145.338 195.898L147.036 196.638C147.2 196.713 147.379 196.752 147.56 196.754C147.741 196.757 147.92 196.721 148.087 196.651C148.184 196.611 148.272 196.551 148.344 196.474C148.415 196.398 148.469 196.307 148.501 196.208L151.734 184.889C151.76 184.788 151.762 184.684 151.742 184.582C151.722 184.48 151.679 184.384 151.617 184.3C151.513 184.155 151.378 184.034 151.222 183.943C151.066 183.853 150.893 183.796 150.713 183.776L148.871 183.543L145.338 195.898Z" fill="#371A45"/>
<path d="M132.222 197.357C131.962 197.357 131.713 197.255 131.529 197.075C131.345 196.894 131.242 196.65 131.242 196.395V194.328C131.252 188.474 132.774 182.718 135.666 177.597L136.689 175.789C136.818 175.572 137.028 175.412 137.276 175.345C137.523 175.278 137.788 175.309 138.012 175.431C138.237 175.553 138.404 175.756 138.477 175.997C138.55 176.239 138.524 176.498 138.404 176.721L137.382 178.529C134.652 183.365 133.217 188.8 133.208 194.326V196.394C133.208 196.52 133.183 196.646 133.134 196.763C133.084 196.88 133.011 196.987 132.92 197.076C132.828 197.166 132.719 197.237 132.6 197.285C132.48 197.333 132.352 197.358 132.222 197.357Z" fill="#371A45"/>
<path d="M146.888 142.266C153.707 143.997 159.234 145.401 156.572 155.474C153.91 165.548 148.383 164.147 141.565 162.414C134.747 160.681 121.763 152.574 123.233 147.01C124.703 141.447 140.07 140.536 146.888 142.266Z" fill="white"/>
<path d="M148.46 163.768C146.351 163.768 143.99 163.169 141.53 162.544C137.962 161.638 133.009 159.111 129.207 156.256C126.539 154.253 122.199 150.384 123.099 146.973C124.575 141.389 139.784 140.319 146.923 142.132C153.619 143.832 159.402 145.3 156.705 155.505C155.471 160.18 153.55 162.72 150.663 163.5C149.945 163.686 149.204 163.776 148.46 163.768ZM139.327 141.62C132.335 141.62 124.369 143.246 123.367 147.041C122.506 150.299 126.762 154.076 129.375 156.038C133.151 158.874 138.063 161.382 141.599 162.28C144.921 163.123 148.059 163.919 150.59 163.237C153.372 162.487 155.23 160.008 156.438 155.437C159.064 145.494 153.676 144.126 146.854 142.394L146.889 142.263L146.854 142.394C144.864 141.893 142.176 141.622 139.327 141.622V141.62Z" fill="#371A45"/>
<g opacity="0.35">
<path opacity="0.35" d="M156.572 155.474C153.91 165.549 148.382 164.147 141.565 162.414C134.749 160.682 121.762 152.575 123.232 147.01C123.287 146.801 123.362 146.598 123.457 146.404C127.204 150.803 134.987 155.135 139.757 156.345C146.573 158.076 152.102 159.479 154.763 149.407C155.114 148.081 155.323 146.905 155.404 145.861C157.217 147.691 157.875 150.546 156.572 155.474Z" fill="#371A45"/>
</g>
<path d="M148.459 164.596C146.247 164.596 143.834 163.986 141.319 163.345C137.655 162.414 132.578 159.829 128.695 156.913C125.234 154.315 121.313 150.446 122.284 146.77C123.255 143.094 128.599 141.577 132.912 140.952C137.751 140.25 143.468 140.405 147.134 141.336C153.971 143.071 160.429 144.711 157.521 155.715C156.202 160.706 154.094 163.433 150.885 164.298C150.094 164.504 149.277 164.604 148.459 164.596ZM139.205 142.41C132.426 142.41 125.034 144.021 124.183 147.252C123.643 149.294 125.722 152.259 129.887 155.386C133.583 158.161 138.374 160.611 141.811 161.484C145.16 162.334 148.053 163.069 150.367 162.445C151.916 162.027 154.145 160.826 155.62 155.235C158.036 146.092 153.503 144.94 146.641 143.198L146.887 142.267L146.641 143.198C144.577 142.673 141.94 142.41 139.205 142.41Z" fill="#371A45"/>
<path d="M167.325 152.596C163.677 151.602 159.973 153.425 159.054 156.668C158.135 159.911 160.346 163.345 163.994 164.34C166.649 165.063 174.703 163.91 178.896 163.228C179.131 163.19 179.35 163.087 179.527 162.931C179.704 162.775 179.832 162.573 179.896 162.348C179.959 162.123 179.956 161.885 179.887 161.662C179.817 161.438 179.684 161.239 179.503 161.088C176.273 158.382 169.983 153.32 167.325 152.596Z" fill="#D73C2C"/>
<path d="M164.989 153.591C162.693 152.965 160.294 154.357 159.629 156.7C158.964 159.042 160.287 161.449 162.583 162.074C164.878 162.7 173.749 160.548 173.749 160.548C173.749 160.548 167.286 154.214 164.989 153.591Z" fill="#E5A900"/>
<path d="M163.338 155.114C161.773 154.687 160.183 155.47 159.789 156.861C159.394 158.252 160.342 159.726 161.909 160.153C163.476 160.58 169.418 159.485 169.418 159.485C169.418 159.485 164.904 155.541 163.338 155.114Z" fill="#FFFF00"/>
<path d="M167.548 165.394C165.833 165.394 164.404 165.279 163.504 164.995C161.529 164.369 159.895 163.093 158.902 161.399C157.891 159.676 157.663 157.729 158.26 155.918C158.857 154.108 160.203 152.661 162.052 151.842C163.867 151.039 165.956 150.94 167.928 151.566C170.561 152.4 176.002 157.022 180.103 160.753C180.415 161.036 180.637 161.401 180.745 161.804C180.852 162.207 180.839 162.632 180.709 163.029C180.578 163.425 180.334 163.777 180.007 164.042C179.679 164.308 179.281 164.476 178.859 164.526C175.207 164.972 170.85 165.394 167.548 165.394ZM165.324 153.082C164.474 153.079 163.634 153.254 162.859 153.595C161.521 154.187 160.551 155.221 160.126 156.509C159.702 157.796 159.871 159.192 160.602 160.439C161.352 161.717 162.597 162.685 164.108 163.162C165.844 163.712 171.269 163.508 178.621 162.616C178.672 162.61 178.72 162.59 178.76 162.558C178.8 162.526 178.829 162.483 178.845 162.435C178.861 162.387 178.863 162.336 178.849 162.287C178.836 162.238 178.809 162.194 178.771 162.16C173.342 157.221 169.064 153.944 167.327 153.394C166.68 153.189 166.004 153.084 165.324 153.084V153.082Z" fill="#371A45"/>
<path d="M158.561 161.99L161.567 151.483C161.931 150.213 160.876 148.881 159.355 148.689L157.158 148.412L153.165 162.37L155.19 163.251C156.592 163.86 158.198 163.26 158.561 161.99Z" fill="#F92323"/>
<g opacity="0.7">
<path opacity="0.7" d="M159.356 148.689L157.159 148.412L156.621 150.293L158.809 150.569C160.33 150.761 161.383 152.093 161.021 153.363L158.512 162.131C158.53 162.084 158.548 162.038 158.562 161.99L161.568 151.483C161.931 150.216 160.877 148.881 159.356 148.689Z" fill="white"/>
</g>
<g opacity="0.35">
<path opacity="0.35" d="M161.567 151.483L158.561 161.99C158.197 163.261 156.59 163.86 155.19 163.249L153.165 162.368L155.163 155.389L157.049 156.212C158.45 156.822 160.057 156.221 160.421 154.952L161.625 150.746C161.656 150.993 161.636 151.243 161.567 151.483Z" fill="#371A45"/>
</g>
<path d="M156.593 164.608C156.126 164.607 155.665 164.51 155.239 164.323L151.99 162.907L156.441 147.352L159.966 147.797C160.426 147.851 160.868 148.001 161.263 148.238C161.658 148.474 161.997 148.791 162.256 149.167C162.475 149.48 162.622 149.837 162.685 150.211C162.749 150.586 162.729 150.969 162.626 151.335L159.388 162.651C159.282 163.016 159.096 163.355 158.842 163.642C158.589 163.93 158.274 164.16 157.921 164.316C157.505 164.507 157.052 164.607 156.593 164.608ZM154.34 161.826L156.037 162.566C156.201 162.641 156.38 162.681 156.561 162.683C156.742 162.685 156.921 162.65 157.088 162.579C157.186 162.539 157.273 162.479 157.345 162.403C157.417 162.326 157.47 162.235 157.502 162.136L160.741 150.82C160.766 150.72 160.769 150.615 160.749 150.513C160.728 150.412 160.686 150.315 160.623 150.232C160.519 150.086 160.384 149.964 160.228 149.874C160.072 149.784 159.899 149.727 159.719 149.707L157.876 149.474L154.34 161.826Z" fill="#371A45"/>
<path d="M141.225 163.285C141.096 163.285 140.969 163.26 140.85 163.212C140.731 163.163 140.623 163.093 140.532 163.003C140.441 162.914 140.369 162.808 140.319 162.691C140.27 162.574 140.245 162.449 140.245 162.323V160.256C140.255 154.402 141.777 148.647 144.669 143.526L145.692 141.717C145.818 141.494 146.029 141.329 146.279 141.259C146.529 141.189 146.798 141.219 147.025 141.342C147.253 141.466 147.421 141.673 147.493 141.918C147.565 142.163 147.534 142.426 147.408 142.65L146.381 144.457C143.651 149.293 142.215 154.729 142.206 160.256V162.324C142.206 162.579 142.103 162.823 141.919 163.004C141.735 163.184 141.485 163.285 141.225 163.285Z" fill="#371A45"/>
<path d="M148.894 171.687C147.77 175.988 144.046 179.383 138.375 181.796C137.784 182.049 137.171 182.29 136.537 182.519C135.411 182.931 134.221 183.307 132.969 183.648C129.959 184.472 126.598 185.096 122.946 185.517C120.313 185.817 117.526 186.01 114.61 186.097C111.983 186.173 109.25 186.165 106.43 186.059C103.817 185.969 101.132 185.797 98.3762 185.544C89.593 184.749 80.1448 183.156 70.4395 180.714C54.5861 176.726 40.8321 169.619 30.1548 162.168C14.2738 151.097 5.19406 139.258 6.1079 135.77C7.05148 132.171 20.5048 126.21 39.4883 123.988C39.7136 123.958 39.9383 123.934 40.1678 123.907C47.2385 123.117 54.3645 122.911 61.4704 123.291C68.9084 123.692 76.6982 124.766 84.5655 126.743C94.2715 129.183 103.336 132.249 111.426 135.696C111.718 135.819 112.006 135.943 112.293 136.067C114.518 137.032 116.665 138.026 118.733 139.048C121.258 140.29 123.654 141.566 125.922 142.877C126.567 143.249 127.2 143.623 127.82 144C129.626 145.092 131.334 146.198 132.943 147.32C134.949 148.72 136.788 150.136 138.46 151.568C139.259 152.246 140.016 152.93 140.733 153.62C142.136 154.943 143.442 156.361 144.64 157.865C148.428 162.657 150.022 167.387 148.894 171.687Z" fill="white"/>
<path d="M111.156 186.281C109.598 186.281 108.015 186.253 106.423 186.195C103.792 186.102 101.079 185.928 98.361 185.679C89.3055 184.86 79.896 183.234 70.4029 180.845C52.6665 176.384 38.6816 168.286 30.0726 162.28C13.8058 150.936 5.0738 139.174 5.97452 135.738C6.99205 131.854 20.9998 126.016 39.4724 123.854C39.6798 123.826 39.8871 123.803 40.0945 123.779L40.1505 123.772C47.229 122.981 54.3629 122.775 61.4766 123.156C69.393 123.583 77.1724 124.745 84.5987 126.612C94.0828 128.998 103.124 132.012 111.48 135.572C111.771 135.695 112.061 135.819 112.348 135.943C114.543 136.895 116.713 137.898 118.794 138.924C121.292 140.153 123.714 141.443 125.993 142.758C126.641 143.133 127.281 143.511 127.892 143.881C129.665 144.953 131.392 146.072 133.024 147.206C135.024 148.603 136.884 150.034 138.554 151.463C139.36 152.15 140.127 152.842 140.835 153.521C142.242 154.847 143.552 156.27 144.754 157.778C148.707 162.784 150.146 167.475 149.032 171.721C147.922 175.969 144.356 179.401 138.433 181.922C137.84 182.175 137.219 182.419 136.589 182.648C135.46 183.059 134.256 183.44 133.01 183.779C130.015 184.6 126.634 185.23 122.962 185.652C120.336 185.951 117.53 186.147 114.615 186.233C113.478 186.265 112.325 186.281 111.156 186.281ZM54.5488 123.242C49.7488 123.241 44.9527 123.508 40.1837 124.042L40.127 124.048C39.9196 124.072 39.7122 124.095 39.5049 124.122C20.2007 126.382 7.12132 132.449 6.24204 135.804C5.36275 139.159 14.0609 150.778 30.2288 162.058C38.8185 168.053 52.7723 176.132 70.4679 180.583C79.9465 182.967 89.3393 184.591 98.3824 185.409C101.096 185.658 103.803 185.831 106.429 185.924C109.209 186.025 111.959 186.038 114.599 185.962C117.507 185.875 120.308 185.68 122.924 185.382C126.581 184.961 129.948 184.334 132.928 183.517C134.168 183.178 135.365 182.802 136.485 182.393C137.111 182.166 137.73 181.924 138.317 181.672C144.157 179.186 147.669 175.816 148.755 171.653C149.847 167.493 148.424 162.881 144.526 157.944C143.332 156.446 142.031 155.033 140.632 153.714C139.931 153.037 139.169 152.351 138.366 151.667C136.707 150.244 134.852 148.818 132.859 147.427C131.233 146.296 129.511 145.181 127.744 144.112C127.133 143.742 126.496 143.367 125.849 142.992C123.576 141.68 121.16 140.393 118.666 139.167C116.589 138.142 114.424 137.141 112.232 136.191C111.946 136.066 111.657 135.944 111.366 135.82C103.027 132.267 93.9964 129.257 84.5261 126.876C77.1178 125.014 69.3563 123.853 61.458 123.427C59.1621 123.304 56.859 123.242 54.5488 123.242Z" fill="#371A45"/>
<g opacity="0.35">
<path opacity="0.35" d="M127.746 144.291C121.84 144.726 108.183 142.24 92.7084 137.675C74.522 132.312 60.0463 125.912 58.0762 122.55C65.8874 122.971 74.0658 124.098 82.3263 126.175C92.5169 128.738 102.036 131.955 110.53 135.574C110.836 135.704 111.14 135.833 111.44 135.965C113.777 136.977 116.031 138.02 118.202 139.092C120.853 140.395 123.37 141.735 125.753 143.112C126.427 143.503 127.092 143.896 127.746 144.291Z" fill="#371A45"/>
</g>
<g opacity="0.35">
<path opacity="0.35" d="M132.882 183.264C132.909 183.393 132.937 183.521 132.968 183.648C134.221 183.308 135.41 182.932 136.536 182.521C137.132 182.304 137.711 182.077 138.268 181.844L137.699 181.595V181.582C136.13 182.24 134.522 182.802 132.882 183.264Z" fill="black"/>
<path opacity="0.35" d="M132.868 183.815L132.835 183.679C132.804 183.551 132.776 183.423 132.748 183.292L132.722 183.169L132.845 183.134C134.48 182.674 136.084 182.114 137.648 181.457L137.897 181.351L137.86 181.516L138.615 181.845L138.324 181.967C137.78 182.197 137.195 182.426 136.586 182.649C135.454 183.061 134.25 183.441 133.006 183.779L132.868 183.815ZM133.045 183.358L133.072 183.478C134.259 183.152 135.408 182.788 136.489 182.394C136.986 182.212 137.467 182.026 137.923 181.839L137.685 181.736C136.173 182.367 134.623 182.908 133.045 183.358Z" fill="#371A45"/>
</g>
<g opacity="0.35">
<path opacity="0.35" d="M29.5048 161.835C40.1723 169.297 53.9194 176.417 69.7694 180.423C79.4726 182.875 88.9174 184.481 97.7005 185.284C100.451 185.539 103.134 185.714 105.75 185.81C108.572 185.914 111.299 185.929 113.932 185.854C116.849 185.772 119.634 185.583 122.269 185.283C126.165 184.839 129.724 184.163 132.883 183.263C134.524 182.801 136.133 182.239 137.702 181.58V181.593L138.272 181.842C142.335 180.127 145.407 177.916 147.253 175.229C148.006 174.15 148.562 172.952 148.896 171.688C150.024 167.387 148.429 162.657 144.642 157.861C143.443 156.358 142.138 154.939 140.735 153.616C137.857 156.845 135.274 161.827 133.731 167.687C133.503 168.551 133.304 169.409 133.133 170.261C132.64 172.716 130.616 174.604 128.079 174.885C105.448 177.392 85.6173 175.113 68.8728 170.616C67.7723 170.32 67.7364 168.807 68.8189 168.453C71.5502 167.564 74.0103 166.018 75.9739 163.956C77.9375 161.894 79.3418 159.382 80.0581 156.65C82.4347 147.625 76.8928 138.419 67.6845 136.093C58.4762 133.767 49.0896 139.196 46.7123 148.222C46.1229 150.454 46.0076 152.782 46.3738 155.059C46.7399 157.337 47.5796 159.517 48.8407 161.464C49.4442 162.4 48.4205 163.538 47.3891 163.087C41.8732 160.681 36.5089 157.955 31.3249 154.922C14.4463 145.047 5.49447 135.408 5.49447 135.408C4.57509 138.896 13.641 150.74 29.5048 161.835Z" fill="#371A45"/>
</g>
<path d="M5.38002 136.285C5.39523 136.361 5.41528 136.44 5.43602 136.521C5.47404 136.673 5.52035 136.83 5.57427 136.995C5.60261 137.082 5.63441 137.167 5.66552 137.256C5.93803 137.966 6.26836 138.653 6.65333 139.31C6.71485 139.42 6.77568 139.529 6.84273 139.638C7.29758 140.409 7.85059 141.242 8.50176 142.128C8.59301 142.254 8.68979 142.383 8.78587 142.511C9.00569 142.806 9.23658 143.105 9.47714 143.411C9.58152 143.547 9.69212 143.682 9.80203 143.818C10.473 144.65 11.2154 145.518 12.0293 146.422C12.1482 146.553 12.2691 146.685 12.3929 146.819C13.1491 147.648 13.9639 148.495 14.8372 149.362C14.9913 149.517 15.1476 149.673 15.3065 149.827C16.178 150.685 17.1034 151.557 18.0827 152.441C18.261 152.604 18.4421 152.766 18.626 152.929C20.8152 154.885 23.2512 156.891 25.9153 158.892C26.1379 159.06 26.3626 159.226 26.5879 159.393C27.038 159.728 27.4935 160.06 27.9573 160.395C28.1875 160.561 28.4212 160.727 28.6541 160.893C28.7233 160.943 28.7924 160.99 28.8615 161.04C28.912 158.774 29.1995 156.221 29.5756 153.752C29.9212 151.499 30.3401 149.318 30.7251 147.498C30.9654 140.803 32.877 134.268 36.2926 128.466L37.2742 126.799L39.4233 123.143C21.2231 125.157 7.95981 130.624 5.65584 134.298C5.57624 134.424 5.50689 134.556 5.44846 134.693C5.40966 134.782 5.37755 134.875 5.35237 134.969C5.25905 135.323 5.26942 135.765 5.38002 136.285Z" fill="#F92323"/>
<g opacity="0.7">
<path opacity="0.7" d="M5.65527 134.298C8.53507 133.325 16.636 130.686 24.4749 129.04C29.5411 127.974 34.091 127.249 37.2743 126.8L39.4234 123.144C21.2225 125.157 7.95925 130.624 5.65527 134.298Z" fill="white"/>
</g>
<g opacity="0.35">
<path opacity="0.35" d="M5.37927 136.285C5.39448 136.361 5.41453 136.439 5.43526 136.521C5.47328 136.673 5.5196 136.83 5.57352 136.995C5.60186 137.082 5.63366 137.167 5.66476 137.256C5.93728 137.966 6.26761 138.653 6.65258 139.31C6.7141 139.419 6.77493 139.529 6.84198 139.638C7.29683 140.409 7.84984 141.242 8.50101 142.128C8.59226 142.254 8.68904 142.382 8.78512 142.511C9.00494 142.806 9.23582 143.105 9.47638 143.411C9.58076 143.547 9.69137 143.682 9.80128 143.818C10.4723 144.65 11.2147 145.518 12.0285 146.422C12.1474 146.553 12.2684 146.685 12.3921 146.819C13.1484 147.648 13.9631 148.495 14.8364 149.362C14.9906 149.517 15.1468 149.673 15.3058 149.827C16.1772 150.685 17.1026 151.557 18.0819 152.441C18.2603 152.604 18.4414 152.766 18.6252 152.929C20.8145 154.885 23.2505 156.891 25.9146 158.892C26.1372 159.06 26.3618 159.226 26.5872 159.393C27.0372 159.728 27.4927 160.06 27.9566 160.395C28.1868 160.561 28.4204 160.727 28.6534 160.893C28.7225 160.943 28.7916 160.99 28.8608 161.038C28.9112 158.771 29.1988 156.218 29.5748 153.749C22.8813 149.5 8.61991 140.043 5.44633 134.693C5.40753 134.782 5.37542 134.875 5.35024 134.969C5.2583 135.323 5.26867 135.765 5.37927 136.285Z" fill="black"/>
<path opacity="0.35" d="M28.9936 161.291L28.7862 161.15C28.7136 161.102 28.6445 161.054 28.5747 161.002L28.5367 160.975C28.3159 160.818 28.0966 160.662 27.8786 160.505C27.4141 160.166 26.9585 159.837 26.5078 159.502C26.2825 159.335 26.0571 159.169 25.8345 159C23.2693 157.072 20.8139 155.062 18.5362 153.027C18.3523 152.865 18.1712 152.702 17.9922 152.539C17.0182 151.659 16.0829 150.778 15.2126 149.921C15.0536 149.767 14.8967 149.61 14.7419 149.456C13.8633 148.582 13.0393 147.725 12.2934 146.908C12.1697 146.773 12.048 146.642 11.9291 146.51C11.0996 145.594 10.3516 144.716 9.69841 143.9L9.59817 143.776C9.52144 143.681 9.44541 143.587 9.37213 143.494C9.13019 143.187 8.89862 142.887 8.68087 142.591C8.58409 142.462 8.48663 142.333 8.39538 142.206C7.75458 141.334 7.19396 140.492 6.72943 139.705C6.66515 139.6 6.60501 139.493 6.54487 139.386C6.15427 138.719 5.81908 138.022 5.54254 137.302L5.50936 137.208C5.48862 137.151 5.46858 137.095 5.44991 137.037C5.39185 136.87 5.34415 136.709 5.30544 136.553C5.27917 136.45 5.26189 136.38 5.24806 136.312C5.13331 135.77 5.12364 135.308 5.22041 134.935C5.24718 134.834 5.28161 134.736 5.32341 134.64L5.43125 134.391L5.5695 134.625C8.76797 140.018 23.478 149.717 29.6538 153.636L29.7284 153.684L29.7153 153.771C29.2881 156.578 29.0482 159.024 29.0033 161.041L28.9936 161.291ZM5.48171 135.012C5.39737 135.343 5.40844 135.761 5.5142 136.257C5.52733 136.321 5.54392 136.387 5.5612 136.454C5.60614 136.635 5.65176 136.788 5.70775 136.95C5.72642 137.007 5.74577 137.062 5.76513 137.116L5.79831 137.21C6.06815 137.912 6.39525 138.592 6.77644 139.243C6.84073 139.358 6.89949 139.462 6.96308 139.567C7.42346 140.347 7.97924 141.181 8.61589 142.047C8.70714 142.174 8.80253 142.301 8.89862 142.429C9.11844 142.724 9.34794 143.022 9.58988 143.327C9.66315 143.42 9.73781 143.513 9.81385 143.607L9.91408 143.731C10.5639 144.544 11.3111 145.417 12.1351 146.329C12.2533 146.46 12.3743 146.592 12.498 146.726C13.2404 147.539 14.0617 148.394 14.9382 149.265C15.0916 149.418 15.2472 149.574 15.4062 149.728C16.2744 150.583 17.2034 151.461 18.1788 152.339C18.3572 152.501 18.5378 152.664 18.7208 152.825C20.9929 154.858 23.4428 156.86 26.0018 158.784C26.2244 158.953 26.4484 159.118 26.673 159.284C27.1231 159.619 27.5779 159.951 28.041 160.285L28.6977 160.755L28.7309 160.779C28.789 158.821 29.0226 156.481 29.4263 153.815C23.2838 149.917 8.98641 140.477 5.48171 135.012Z" fill="#371A45"/>
</g>
<path d="M110.45 186.42C108.851 186.42 107.221 186.39 105.573 186.329C102.913 186.229 100.186 186.052 97.4677 185.802C88.3673 184.967 78.9184 183.322 69.3838 180.912C51.5265 176.4 37.4544 168.232 28.7936 162.175C21.5354 157.1 14.9732 151.334 10.3162 145.949C7.77718 143.012 3.63306 137.648 4.40106 134.728C5.53611 130.412 19.8362 124.343 39.3139 122.188C49.8481 121.018 66.1625 120.573 84.0648 125.098C93.5994 127.507 102.682 130.545 111.06 134.128C113.562 135.196 116.037 136.333 118.414 137.507C120.939 138.754 123.374 140.056 125.655 141.376C128.174 142.834 130.563 144.347 132.743 145.872C137.81 149.421 141.81 153.037 144.633 156.623C148.746 161.84 150.232 166.775 149.046 171.282C147.861 175.788 144.128 179.402 137.951 182.022C133.712 183.822 128.427 185.092 122.241 185.797C119.576 186.097 116.742 186.292 113.817 186.373C112.716 186.405 111.594 186.42 110.45 186.42ZM53.6528 123.324C48.9356 123.323 44.222 123.581 39.5345 124.099C19.0365 126.365 7.00366 132.536 6.30064 135.208C5.6315 137.753 13.366 149.025 29.9335 160.61C38.4588 166.573 52.3083 174.611 69.8739 179.05C79.3076 181.434 88.6534 183.062 97.6516 183.887C100.334 184.134 103.024 184.309 105.648 184.407C108.428 184.51 111.158 184.525 113.762 184.451C116.632 184.371 119.409 184.18 122.017 183.886C128.01 183.204 133.11 181.983 137.174 180.257C142.765 177.886 146.122 174.701 147.148 170.801C148.175 166.902 146.802 162.525 143.081 157.798C140.374 154.361 136.514 150.876 131.606 147.437C129.469 145.947 127.131 144.462 124.66 143.033C122.417 141.735 120.019 140.454 117.534 139.226C115.189 138.068 112.748 136.946 110.276 135.891C101.993 132.35 93.0098 129.345 83.5754 126.961C72.6812 124.207 62.3793 123.324 53.6528 123.324Z" fill="#371A45"/>
<path d="M59.8588 164.963C61.8453 165.467 63.9138 165.582 65.9458 165.301C67.9778 165.021 69.9334 164.35 71.7007 163.328C73.468 162.306 75.0123 160.952 76.2452 159.344C77.4781 157.736 78.3754 155.906 78.8857 153.958C79.0827 153.214 79.2213 152.457 79.3005 151.692C80.0858 144.279 75.2442 137.22 67.6569 135.305C67.1623 135.177 66.6611 135.076 66.1555 135.001C59.7267 134.013 53.4362 137.062 50.2564 142.418C49.5323 143.635 48.9833 144.945 48.6251 146.31C46.4745 154.5 51.5 162.852 59.8588 164.963Z" fill="#EE346A"/>
<g opacity="0.7">
<path opacity="0.7" d="M48.6289 148.469C48.9872 147.104 49.5362 145.795 50.2603 144.577C53.4401 139.221 59.7306 136.175 66.1593 137.16C66.6649 137.235 67.1661 137.337 67.6607 137.464C74.3314 139.148 78.8779 144.809 79.3431 151.19C79.8629 143.963 75.0732 137.177 67.6607 135.305C67.166 135.178 66.6649 135.076 66.1593 135.001C59.7306 134.013 53.4401 137.062 50.2603 142.418C48.6768 145.081 47.9499 148.151 48.1748 151.226C48.2404 150.296 48.3925 149.373 48.6289 148.469Z" fill="white"/>
</g>
<g opacity="0.35">
<path opacity="0.35" d="M59.8596 164.963C61.6712 165.618 63.604 165.888 65.5301 165.755C67.4562 165.623 69.3316 165.091 71.0322 164.195C72.7328 163.299 74.2197 162.058 75.3945 160.557C76.5694 159.055 77.4053 157.325 77.8469 155.483C77.8739 155.383 77.8981 155.284 77.9216 155.185C74.222 159.906 67.8762 162.268 61.6251 160.688C53.3728 158.603 48.366 150.43 50.3202 142.338C50.3002 142.365 50.2773 142.391 50.2608 142.418C49.5366 143.635 48.9876 144.945 48.6294 146.31C46.4754 154.5 51.5009 162.852 59.8596 164.963Z" fill="#293856"/>
<path opacity="0.35" d="M63.7765 165.587C62.4433 165.586 61.1155 165.421 59.8245 165.094C51.4084 162.968 46.3256 154.524 48.4947 146.276C48.8569 144.899 49.4107 143.578 50.1406 142.349C50.1572 142.324 50.1738 142.302 50.1904 142.282L50.5844 141.777L50.4538 142.371C48.5279 150.352 53.5534 158.51 61.6619 160.557C64.6033 161.303 67.7037 161.184 70.5762 160.214C73.4488 159.243 75.9663 157.466 77.8146 155.102L78.2066 154.602L78.0586 155.216C78.0344 155.317 78.0102 155.419 77.9833 155.517C77.6208 156.9 77.065 158.226 76.3319 159.459C74.8647 161.362 72.9674 162.906 70.7889 163.969C68.6104 165.032 66.2101 165.586 63.7765 165.587ZM59.8937 164.832C61.6612 165.476 63.547 165.75 65.4291 165.634C67.3113 165.519 69.1477 165.018 70.8196 164.163C72.4915 163.308 73.9617 162.118 75.1348 160.671C76.308 159.223 77.1581 157.551 77.63 155.761C75.7203 158.007 73.199 159.675 70.3598 160.57C67.5205 161.466 64.4802 161.552 61.5928 160.819C53.6274 158.807 48.5832 150.995 50.0093 143.15C49.4736 144.165 49.0563 145.237 48.765 146.344C46.6339 154.449 51.6268 162.741 59.8943 164.832H59.8937Z" fill="#371A45"/>
</g>
<path d="M63.7865 166.417C62.3783 166.416 60.9759 166.24 59.6127 165.894C55.5527 164.858 52.0478 162.345 49.8103 158.866C47.5727 155.388 46.7705 151.205 47.5665 147.167C48.3626 143.129 50.6973 139.54 54.096 137.129C57.4947 134.719 61.7025 133.667 65.8641 134.188C70.0257 134.708 73.8287 136.763 76.5004 139.934C79.172 143.104 80.5117 147.153 80.2471 151.257C79.9825 155.361 78.1336 159.213 75.0761 162.029C72.0185 164.845 67.9819 166.414 63.7865 166.417ZM63.7333 135.776C60.1718 135.784 56.7354 137.064 54.0671 139.376C51.3988 141.688 49.6814 144.874 49.2364 148.337C48.7913 151.801 49.6491 155.305 51.6492 158.193C53.6492 161.082 56.6546 163.157 60.1028 164.03C61.9688 164.513 63.9138 164.629 65.8259 164.373C67.7379 164.116 69.5794 163.491 71.2443 162.534C72.9092 161.578 74.3647 160.308 75.5272 158.798C76.6896 157.288 77.5361 155.567 78.0179 153.735C78.4997 151.904 78.6073 149.996 78.3345 148.124C78.0617 146.251 77.414 144.45 76.4285 142.823C75.443 141.197 74.1392 139.777 72.5921 138.646C71.045 137.515 69.2851 136.695 67.4135 136.234C66.212 135.93 64.9762 135.776 63.7353 135.776H63.7333Z" fill="#371A45"/>
<path d="M63.7865 166.417C62.3783 166.416 60.9759 166.24 59.6127 165.894C55.5527 164.858 52.0478 162.345 49.8103 158.866C47.5727 155.388 46.7705 151.205 47.5665 147.167C48.3626 143.129 50.6973 139.54 54.096 137.129C57.4947 134.719 61.7025 133.667 65.8641 134.188C70.0257 134.708 73.8287 136.763 76.5004 139.934C79.172 143.104 80.5117 147.153 80.2471 151.257C79.9825 155.361 78.1336 159.213 75.0761 162.029C72.0185 164.845 67.9819 166.414 63.7865 166.417ZM63.7333 135.776C60.1718 135.784 56.7354 137.064 54.0671 139.376C51.3988 141.688 49.6814 144.874 49.2364 148.337C48.7913 151.801 49.6491 155.305 51.6492 158.193C53.6492 161.082 56.6546 163.157 60.1028 164.03C61.9688 164.513 63.9138 164.629 65.8259 164.373C67.7379 164.116 69.5794 163.491 71.2443 162.534C72.9092 161.578 74.3647 160.308 75.5272 158.798C76.6896 157.288 77.5361 155.567 78.0179 153.735C78.4997 151.904 78.6073 149.996 78.3345 148.124C78.0617 146.251 77.414 144.45 76.4285 142.823C75.443 141.197 74.1392 139.777 72.5921 138.646C71.045 137.515 69.2851 136.695 67.4135 136.234C66.212 135.93 64.9762 135.776 63.7353 135.776H63.7333Z" fill="#371A45"/>
<path d="M55.388 156.2C56.9059 158.21 59.1245 159.604 61.6219 160.115C64.1193 160.627 66.7214 160.221 68.9334 158.974C71.1454 157.728 72.8131 155.729 73.6193 153.356C74.4255 150.983 74.314 148.403 73.3061 146.106C72.2982 143.808 70.4641 141.954 68.1525 140.895C65.841 139.837 63.2132 139.648 60.7688 140.365C58.3244 141.081 56.2339 142.653 54.8948 144.782C53.5557 146.911 53.0613 149.447 53.5057 151.91C53.7864 153.463 54.4307 154.932 55.388 156.2Z" fill="#22A7F0"/>
<path d="M63.7826 161.303C63.2093 161.302 62.6367 161.26 62.0697 161.176C59.1707 160.745 56.5551 159.229 54.7721 156.947C52.9891 154.665 52.1775 151.795 52.5077 148.939C52.8378 146.083 54.2841 143.464 56.5428 141.631C58.8014 139.798 61.6968 138.894 64.6208 139.109C67.5449 139.324 70.2701 140.642 72.2244 142.785C74.1786 144.927 75.2097 147.729 75.1012 150.601C74.9927 153.474 73.7531 156.193 71.6426 158.188C69.5321 160.184 66.7149 161.3 63.7826 161.303ZM63.7467 140.895C62.0017 140.895 60.2911 141.371 58.8055 142.268C57.3199 143.165 56.1177 144.449 55.3328 145.977C54.5479 147.505 54.2111 149.216 54.36 150.92C54.5089 152.624 55.1375 154.255 56.176 155.629C57.133 156.899 58.4061 157.908 59.8739 158.559C61.3416 159.21 62.9551 159.482 64.5603 159.348C66.1656 159.215 67.7091 158.68 69.0438 157.796C70.3784 156.911 71.4596 155.706 72.1843 154.296C72.9089 152.885 73.2529 151.317 73.1833 149.739C73.1138 148.161 72.633 146.627 71.7869 145.284C70.9408 143.94 69.7576 142.831 68.3501 142.062C66.9426 141.294 65.3577 140.892 63.7467 140.895Z" fill="#371A45"/>
<g opacity="0.42">
<path opacity="0.42" d="M55.7383 152.866C56.9176 153.668 58.0298 154.326 59.1897 154.817C61.4578 155.797 63.9527 156.163 66.4141 155.876C67.6695 155.74 68.9289 155.431 70.2983 155.005C69.473 156.164 68.2245 157.02 66.833 157.527C65.4163 158.031 63.8935 158.18 62.4031 157.961C60.9126 157.741 59.5017 157.16 58.2987 156.27C57.1215 155.386 56.1835 154.209 55.7383 152.866Z" fill="#371A45"/>
</g>
<path d="M28.1358 161.396V160.844C28.1264 147.286 31.646 133.95 38.3616 122.097L40.5045 123.265C33.9922 134.76 30.5792 147.693 30.5884 160.841V161.393L28.1358 161.396Z" fill="#371A45"/>
<path d="M99.7006 185.043L97.2598 184.808L98.3962 173.472C99.4257 163.186 102.092 153.121 106.299 143.644L110.338 134.539L112.587 135.498L108.548 144.602C104.443 153.851 101.841 163.673 100.837 173.711L99.7006 185.043Z" fill="#371A45"/>
<path d="M128.893 107.853C128.893 107.853 133.598 106.689 134.591 105.3C135.584 103.912 139.637 101.904 138.808 92.9087C137.978 83.9139 137.776 73.4623 137.776 73.4623L124.526 71.565L124.432 103.656L128.893 107.853Z" fill="white"/>
<path d="M128.853 108.003L124.296 103.719L124.391 71.4146L137.915 73.3478V73.4623C137.915 73.5673 138.128 84.0094 138.946 92.8965C139.637 100.432 136.892 103.148 135.416 104.607C135.12 104.9 134.863 105.149 134.703 105.378C133.692 106.791 129.12 107.937 128.925 107.985L128.853 108.003ZM124.572 103.604L128.934 107.704C129.534 107.548 133.593 106.461 134.478 105.222C134.653 104.978 134.916 104.717 135.222 104.416C136.666 102.988 139.354 100.331 138.673 92.9209C137.901 84.5278 137.669 74.7503 137.643 73.5829L124.666 71.7284L124.572 103.604Z" fill="#371A45"/>
<path d="M137.949 78.935C137.773 76.9863 137.626 75.1115 137.506 73.425L137.779 73.4636C137.779 73.4636 137.822 75.6772 137.949 78.935Z" fill="white"/>
<path d="M137.812 78.9493C137.652 77.1768 137.503 75.3222 137.368 73.4372L137.356 73.2699L137.915 73.3485V73.4637C137.915 73.486 137.959 75.7105 138.085 78.9324L137.812 78.9493Z" fill="#371A45"/>
<g opacity="0.35">
<path opacity="0.35" d="M134.59 105.3C133.599 106.688 128.893 107.853 128.893 107.853L124.433 103.663L124.449 98.1301L126.75 100.138C126.75 100.138 129.88 100.346 133.749 98.2832C135.022 97.6057 137.815 96.1726 138.686 91.4905C138.724 91.9648 138.767 92.4391 138.81 92.9134C139.636 101.905 135.585 103.913 134.59 105.3Z" fill="#371A45"/>
</g>
<path d="M138.687 91.4905C138.314 87.0429 138.083 82.3967 137.949 78.9377C138.164 81.3018 138.422 83.7776 138.728 86.16C139.005 88.3269 138.952 90.0716 138.687 91.4905Z" fill="white"/>
<path d="M138.636 92.5238L138.55 91.5013C138.164 86.9169 137.936 82.1413 137.812 78.9425L138.088 78.9255C138.324 81.5349 138.586 83.9633 138.866 86.1431C139.125 88.169 139.111 89.9761 138.824 91.5149L138.636 92.5238ZM138.316 83.9017C138.421 85.8815 138.555 88.0349 138.721 90.1848C138.821 88.9781 138.778 87.6358 138.591 86.177C138.497 85.4456 138.406 84.6872 138.316 83.9017Z" fill="#371A45"/>
<path d="M154.298 73.2082C148.146 74.9922 129.357 77.9742 129.357 77.9742L129.241 76.8657L128.669 77.2045C128.833 79.4073 129.196 84.6992 129.42 91.1145C129.42 91.2202 129.426 91.3286 129.431 91.437C129.478 92.805 129.518 94.2225 129.547 95.6732C129.686 102.302 129.617 109.564 129.03 115.662C128.876 117.274 128.722 118.861 128.562 120.41C127.259 133.054 125.477 143.085 118.169 141.809C107.091 139.88 111.422 120.968 108.116 116.023C105.433 112.014 93.9039 108.874 91.4665 108.725C90.2693 108.649 84.5629 108.585 77.9482 119.146C71.0598 130.144 60.4254 125.903 61.4823 114.088C62.2572 105.449 67.2101 99.0218 71.5858 95.3236C72.5054 94.5388 73.4825 93.8211 74.5092 93.1763C76.4371 91.9776 78.1137 90.4289 79.4489 88.6135C81.3417 86.0472 82.48 83.0211 82.74 79.8647C83.3269 72.6885 83.4313 71.6572 83.4313 71.6572L83.629 71.6762L81.5607 58.4838L82.0149 58.5278L127.763 62.9998L127.596 61.4217C127.596 61.4217 128.909 61.2381 131.003 61.0254C138.262 60.2909 154.906 59.2305 158.878 64.4031C159.592 65.3341 159.925 66.2393 159.973 67.091C160.154 70.1056 156.774 72.4906 154.298 73.2082Z" fill="white"/>
<g opacity="0.35">
<path opacity="0.35" d="M154.299 73.2082C148.146 74.9922 129.358 77.9742 129.358 77.9742L129.241 76.8657L128.669 77.2045C128.833 79.4073 129.197 84.6992 129.42 91.1145C129.42 91.2202 129.427 91.3286 129.432 91.437L127.647 91.7839C127.647 91.7839 124.897 85.5428 126.087 78.9527C127.342 72.0048 142.647 71.4099 150.465 70.3414C157.004 69.4476 158.643 66.8288 159.507 65.8206C160.502 69.9307 156.774 72.4906 154.299 73.2082Z" fill="#371A45"/>
</g>
<g opacity="0.35">
<path opacity="0.35" d="M130.489 66.0889C127.591 75.6732 114.468 80.3146 101.179 76.4558C90.8068 73.4433 83.3945 66.1404 82.0195 58.5231L127.767 62.9951L127.601 61.417C127.601 61.417 128.914 61.2334 131.008 61.0206C131.161 62.727 130.985 64.4463 130.489 66.0889Z" fill="#293856"/>
</g>
<g opacity="0.35">
<path opacity="0.35" d="M118.169 141.803C107.091 139.874 111.422 120.962 108.116 116.017C105.433 112.008 93.9039 108.868 91.4665 108.719C90.2693 108.643 84.5629 108.579 77.9482 119.14C71.0598 130.137 60.4254 125.896 61.4823 114.082C62.2572 105.442 65.3652 102.256 66.9924 99.8999C67.0615 99.9589 63.3031 106.801 69.4878 110.495C76.5339 114.702 85.3544 107.571 88.9026 104.329C90.0366 103.284 91.3825 102.485 92.8525 101.983C93.4836 101.769 93.4256 100.876 92.7702 100.741L87.7828 99.7142C86.0546 99.3585 84.9092 97.8347 85.2334 96.3264L87.9874 83.468C88.3116 81.9591 89.9858 81.0159 91.7105 81.3675L115.099 86.1783C116.824 86.5334 117.971 88.0572 117.649 89.5662L117.24 91.477C120.175 92.0461 124.588 92.4933 128.427 91.2181C128.746 91.1112 129.085 91.0739 129.42 91.109C129.47 92.578 129.516 94.1039 129.547 95.6678C127.021 96.5608 122.289 97.6544 116.179 96.4253L114.889 102.429C114.567 103.938 112.89 104.881 111.166 104.53L106.015 103.463C105.342 103.328 104.922 104.169 105.457 104.593C107.198 105.978 108.619 107.71 109.625 109.675C113.236 116.725 110.589 121.842 117.184 125.758C123.079 129.258 127.109 126.482 128.562 120.405C127.263 133.048 125.477 143.078 118.169 141.803Z" fill="#371A45"/>
</g>
<path d="M128.973 78.8802C128.704 78.8793 128.444 78.7788 128.247 78.5989C128.05 78.4189 127.93 78.1728 127.909 77.9095C127.889 77.6462 127.971 77.3851 128.139 77.1785C128.307 76.9718 128.548 76.8347 128.814 76.7946C129.005 76.7662 147.98 73.9488 153.992 72.2027C155.838 71.6674 158.134 70.109 158.751 68.2727C159.115 67.194 158.877 66.1302 158.025 65.0204C154.14 59.9616 134.853 61.4468 127.748 62.4456C127.467 62.4851 127.182 62.4137 126.955 62.2471C126.728 62.0804 126.578 61.8322 126.537 61.5569C126.497 61.2817 126.57 61.0021 126.74 60.7795C126.91 60.5569 127.163 60.4097 127.444 60.3702C127.509 60.3607 134.137 59.4385 141.304 59.3538C151.189 59.2332 157.393 60.7157 159.733 63.7581C161.335 65.845 161.184 67.7219 160.781 68.9293C159.886 71.584 156.948 73.5267 154.597 74.209C148.445 75.9937 129.919 78.7487 129.132 78.8632C129.079 78.8728 129.026 78.8784 128.973 78.8802Z" fill="#371A45"/>
<path d="M143.126 60.3999C143.126 60.3999 144.058 71.5616 145.429 75.1765L143.126 60.3999Z" fill="white"/>
<path d="M145.43 76.2247C145.212 76.2247 144.999 76.1593 144.819 76.0372C144.64 75.9151 144.504 75.7422 144.427 75.5417C143.021 71.834 142.099 60.9474 142.061 60.486C142.043 60.212 142.136 59.9424 142.32 59.7349C142.503 59.5274 142.762 59.3986 143.041 59.3762C143.32 59.3538 143.597 59.4395 143.813 59.6149C144.028 59.7903 144.165 60.0415 144.193 60.3146C144.202 60.425 145.128 71.3733 146.433 74.8106C146.493 74.9692 146.513 75.1398 146.492 75.3077C146.47 75.4756 146.407 75.6359 146.309 75.7749C146.21 75.9138 146.079 76.0273 145.926 76.1057C145.773 76.184 145.602 76.2249 145.43 76.2247Z" fill="#371A45"/>
<path d="M86.1112 61.3716C88.8558 65.0201 92.5121 67.9149 96.7283 69.7776C97.6148 70.169 98.5218 70.5139 99.4457 70.8109C99.8991 70.9579 100.362 71.0921 100.828 71.2174C104.794 72.2732 108.954 72.4292 112.99 71.6734C113.501 71.5759 114.008 71.4654 114.511 71.3421C123.711 69.0648 131.419 62.1169 134.07 52.4994C137.977 38.334 129.429 23.7465 114.978 19.9182C112.269 19.1977 109.462 18.8951 106.658 19.0211C106.339 19.0326 106.018 19.0536 105.699 19.0807C104.843 19.1485 103.996 19.2555 103.158 19.4019C99.3106 20.0798 95.6565 21.5608 92.4439 23.7445C91.9369 24.0891 91.4418 24.4505 90.9583 24.8286C86.4663 28.354 83.2362 33.19 81.7362 38.6355C79.4889 46.7841 81.3622 55.0708 86.1112 61.3716Z" fill="white"/>
<path d="M129.738 108.403C129.466 108.403 129.205 108.303 129.006 108.121C128.808 107.94 128.687 107.692 128.669 107.426C128.65 107.161 128.735 106.898 128.906 106.692C129.078 106.486 129.323 106.352 129.592 106.316C134.569 105.638 138.216 100.832 137.887 95.371L136.767 76.7553C136.75 76.4777 136.847 76.205 137.035 75.9971C137.224 75.7892 137.488 75.6632 137.772 75.6467C138.055 75.6303 138.333 75.7248 138.545 75.9094C138.757 76.0941 138.886 76.3537 138.902 76.6313L140.023 95.2477C140.417 101.792 135.964 107.567 129.886 108.393C129.837 108.399 129.787 108.403 129.738 108.403Z" fill="#371A45"/>
<g opacity="0.35">
<path opacity="0.35" d="M86.112 61.3703C89.4475 65.7994 94.1088 69.0989 99.4471 70.8096C99.9006 70.9566 100.363 71.0908 100.83 71.2162C102.222 71.5853 103.641 71.8452 105.075 71.9933C107.716 72.2688 110.384 72.1606 112.992 71.6722C113.503 71.5746 114.01 71.4641 114.513 71.3408C123.713 69.0635 131.421 62.115 134.072 52.4974C135.443 47.557 135.321 42.3326 133.721 37.4586C133.67 39.602 133.355 41.7315 132.783 43.8008C131.789 47.4075 129.364 49.1197 127.135 51.87C123.421 56.4538 118.975 61.2206 113.225 62.6435C112.722 62.7668 112.215 62.8772 111.704 62.9748C109.095 63.4642 106.428 63.5724 103.787 63.296C102.353 63.1479 100.934 62.888 99.5418 62.5188C99.0724 62.3921 98.61 62.2572 98.1593 62.1122C97.2352 61.8157 96.3279 61.471 95.4412 61.0796C91.225 59.2167 87.5687 56.3216 84.8241 52.6729C83.065 50.337 81.7057 47.7359 80.7996 44.9716C80.6666 50.864 82.5353 56.6326 86.112 61.3703Z" fill="#293856"/>
<path opacity="0.35" d="M107.932 72.2799C106.973 72.2802 106.015 72.2302 105.061 72.1301C103.62 71.9809 102.193 71.7197 100.794 71.3489C100.276 71.2086 99.821 71.0779 99.4014 70.9383C98.4729 70.64 97.5612 70.2935 96.6703 69.9002C92.4353 68.0248 88.7614 65.1167 85.9993 61.4536C82.4158 56.6984 80.5189 50.8455 80.6586 44.9715L80.6779 44.1673L80.9288 44.9336C82.224 48.9137 84.4651 52.5352 87.4677 55.5C90.4703 58.4649 94.1485 60.6882 98.1993 61.9868C98.6141 62.1223 99.0662 62.2579 99.5819 62.3934C100.966 62.7602 102.378 63.0187 103.805 63.1665C106.432 63.4416 109.086 63.3338 111.681 62.8467C112.186 62.7505 112.695 62.6434 113.195 62.5174C118.849 61.1175 123.186 56.5344 127.03 51.7907C127.627 51.0541 128.237 50.3915 128.827 49.7505C130.424 48.0193 131.932 46.3843 132.652 43.7702C133.22 41.7112 133.534 39.5925 133.585 37.4599L133.604 36.657L133.855 37.422C134.99 40.899 135.386 44.5671 135.019 48.1999C134.652 51.8327 133.529 55.3532 131.72 58.5443C129.911 61.7353 127.454 64.5291 124.501 66.7534C121.547 68.9777 118.161 70.5853 114.549 71.477C114.045 71.6003 113.531 71.7127 113.021 71.8096C111.6 72.076 110.159 72.2303 108.713 72.2711C108.452 72.2769 108.191 72.2799 107.932 72.2799ZM80.9288 45.7785C80.9862 51.3656 82.838 56.7928 86.2212 61.2896C89.5397 65.6959 94.177 68.9786 99.4879 70.6808C99.9026 70.8163 100.354 70.9518 100.87 71.0874C102.255 71.4542 103.667 71.7127 105.093 71.8605C107.72 72.1356 110.375 72.0278 112.97 71.5406C113.475 71.4444 113.984 71.3374 114.483 71.2113C117.991 70.3446 121.285 68.7954 124.17 66.656C127.055 64.5165 129.471 61.8304 131.276 58.7573C133.08 55.6842 134.236 52.2869 134.675 48.7672C135.113 45.2476 134.825 41.6774 133.828 38.269C133.724 40.1517 133.419 42.0185 132.917 43.8386C132.179 46.5151 130.65 48.1751 129.03 49.9294C128.442 50.567 127.834 51.2269 127.243 51.956C123.372 56.7376 118.994 61.3574 113.258 62.7776C112.754 62.9016 112.24 63.0134 111.73 63.1102C107.672 63.8665 103.492 63.7099 99.5051 62.6522C98.9881 62.5119 98.5325 62.3812 98.1129 62.2416C97.1844 61.9433 96.2727 61.5968 95.3818 61.2036C92.0368 59.7195 89.0323 57.5881 86.5486 54.9374C84.065 52.2867 82.1535 49.1714 80.9288 45.7785Z" fill="#371A45"/>
</g>
<path d="M107.933 73.1933C106.94 73.1938 105.948 73.1422 104.96 73.0388C103.471 72.8842 101.996 72.6141 100.55 72.2311C100.018 72.0875 99.5479 71.9486 99.1083 71.8063C98.1496 71.4976 97.2081 71.1396 96.2879 70.7337C91.9064 68.7932 88.1058 65.7837 85.2492 61.9929C80.1013 55.1603 78.4444 46.5442 80.7027 38.3598C82.261 32.6992 85.6186 27.6725 90.2885 24.0087C90.782 23.6211 91.3018 23.2417 91.8334 22.8799C95.1724 20.6107 98.97 19.0717 102.969 18.3672C103.837 18.2154 104.726 18.103 105.611 18.0332C105.957 18.0034 106.297 17.9823 106.617 17.9702C109.529 17.8399 112.444 18.1547 115.258 18.9032C130.258 22.8785 139.16 38.0725 135.106 52.7725C133.795 57.5122 131.221 61.8247 127.648 65.2674C124.076 68.71 119.633 71.1589 114.776 72.3626C114.252 72.4906 113.722 72.6058 113.197 72.7061C111.726 72.9824 110.235 73.1424 108.738 73.1845C108.469 73.1908 108.201 73.1937 107.933 73.1933ZM86.9711 60.7482C89.6097 64.2495 93.1202 67.0292 97.1672 68.8215C98.019 69.1973 98.8906 69.5286 99.7781 69.8142C100.187 69.9463 100.623 70.0751 101.115 70.2079C102.45 70.5617 103.812 70.8109 105.188 70.9532C107.724 71.2187 110.287 71.1148 112.792 70.6449C113.276 70.5527 113.771 70.4416 114.255 70.3264C118.742 69.2142 122.847 66.9517 126.148 63.771C129.45 60.5904 131.828 56.6061 133.04 52.227C136.786 38.6423 128.559 24.6023 114.699 20.9291C112.097 20.2374 109.402 19.9464 106.709 20.0666C106.414 20.0781 106.109 20.0971 105.792 20.1242C104.967 20.1919 104.147 20.2929 103.346 20.4331C99.6505 21.0842 96.1406 22.5068 93.0549 24.6043C92.562 24.939 92.0823 25.2893 91.6281 25.6464C87.3122 29.0318 84.2092 33.6773 82.7696 38.9086C80.6827 46.4737 82.2166 54.4339 86.9711 60.7482Z" fill="#371A45"/>
<path d="M107.933 73.1933C106.94 73.1938 105.948 73.1422 104.96 73.0388C103.471 72.8842 101.996 72.6141 100.55 72.2311C100.018 72.0875 99.5479 71.9486 99.1083 71.8063C98.1496 71.4976 97.2081 71.1396 96.2879 70.7337C91.9064 68.7932 88.1058 65.7837 85.2492 61.9929C80.1013 55.1603 78.4444 46.5442 80.7027 38.3598C82.261 32.6992 85.6186 27.6725 90.2885 24.0087C90.782 23.6211 91.3018 23.2417 91.8334 22.8799C95.1724 20.6107 98.97 19.0717 102.969 18.3672C103.837 18.2154 104.726 18.103 105.611 18.0332C105.957 18.0034 106.297 17.9823 106.617 17.9702C109.529 17.8399 112.444 18.1547 115.258 18.9032C130.258 22.8785 139.16 38.0725 135.106 52.7725C133.795 57.5122 131.221 61.8247 127.648 65.2674C124.076 68.71 119.633 71.1589 114.776 72.3626C114.252 72.4906 113.722 72.6058 113.197 72.7061C111.726 72.9824 110.235 73.1424 108.738 73.1845C108.469 73.1908 108.201 73.1937 107.933 73.1933ZM86.9711 60.7482C89.6097 64.2495 93.1202 67.0292 97.1672 68.8215C98.019 69.1973 98.8906 69.5286 99.7781 69.8142C100.187 69.9463 100.623 70.0751 101.115 70.2079C102.45 70.5617 103.812 70.8109 105.188 70.9532C107.724 71.2187 110.287 71.1148 112.792 70.6449C113.276 70.5527 113.771 70.4416 114.255 70.3264C118.742 69.2142 122.847 66.9517 126.148 63.771C129.45 60.5904 131.828 56.6061 133.04 52.227C136.786 38.6423 128.559 24.6023 114.699 20.9291C112.097 20.2374 109.402 19.9464 106.709 20.0666C106.414 20.0781 106.109 20.0971 105.792 20.1242C104.967 20.1919 104.147 20.2929 103.346 20.4331C99.6505 21.0842 96.1406 22.5068 93.0549 24.6043C92.562 24.939 92.0823 25.2893 91.6281 25.6464C87.3122 29.0318 84.2092 33.6773 82.7696 38.9086C80.6827 46.4737 82.2166 54.4339 86.9711 60.7482Z" fill="#371A45"/>
<path d="M90.9198 66.2847C108.192 74.8899 128.482 64.2594 126.944 45.5116C125.897 32.7562 112.348 23.9125 99.9159 25.6823C90.8666 26.9697 82.6067 32.1091 80.8066 46.4222C80.8066 46.4222 81.0085 52.8795 83.374 56.8704C85.7395 60.8614 88.7285 64.3522 88.7285 64.3522L90.9198 66.2847Z" fill="#293856"/>
<path d="M103.593 69.4435C99.3103 69.4435 94.9339 68.436 90.8583 66.4053L90.8285 66.3856L88.6345 64.4532C88.5909 64.4044 85.5978 60.8946 83.253 56.9389C80.8972 52.9635 80.6691 46.4913 80.667 46.427C82.2078 34.1628 88.6766 27.1452 99.8951 25.5488C106.351 24.6307 113.4 26.5781 118.751 30.7614C123.659 34.5972 126.617 39.8314 127.082 45.5007C127.756 53.6994 124.266 60.9494 117.508 65.3923C113.409 68.085 108.564 69.4435 103.593 69.4435ZM90.9993 66.1715C99.7147 70.508 109.811 70.1225 117.354 65.1674C124.026 60.7841 127.472 53.6235 126.807 45.5224C126.348 39.9283 123.426 34.7618 118.581 30.9735C113.287 26.8362 106.316 24.9078 99.9359 25.8171C88.8564 27.3939 82.4663 34.3322 80.9442 46.4392C80.9442 46.4825 81.173 52.8876 83.4936 56.8027C85.8259 60.7374 88.8045 64.2303 88.8342 64.2648L90.9993 66.1715Z" fill="#371A45"/>
<g opacity="0.35">
<path opacity="0.35" d="M81.8818 48.5437C81.9186 48.9238 81.9754 49.3017 82.0519 49.676C82.9754 54.2015 84.6531 58.454 84.6531 58.454L86.093 60.9766C99.5996 74.5897 122.306 70.9579 127.032 52.7291C127.332 51.5723 127.522 50.3908 127.601 49.1996C117.814 62.8867 96.3811 63.8115 82.7618 50.0866L81.8818 48.5437Z" fill="#111A28"/>
</g>
<path d="M105.055 72.8118L104.99 72.805C103.512 72.652 102.048 72.3839 100.614 72.0034C100.087 71.8611 99.6212 71.7243 99.185 71.5827C98.2341 71.2767 97.3002 70.9216 96.3875 70.5189C92.0426 68.5958 88.2736 65.6124 85.4407 61.854C80.3371 55.0783 78.694 46.5408 80.933 38.4228C82.2222 33.7357 84.7618 29.4698 88.2907 26.0638L88.3523 26.0042L88.4214 25.9588C91.4533 24.0555 95.1066 22.7897 99.2804 22.1955C106.716 21.1371 114.834 23.3786 120.992 28.1927C126.656 32.6187 130.071 38.6674 130.608 45.2229C131.192 52.3442 129.111 58.786 124.594 63.8508C119.87 69.1434 112.773 72.4086 105.117 72.8084L105.055 72.8118ZM86.7783 60.8864C89.4415 64.4201 92.9846 67.2253 97.0691 69.0343C97.9286 69.4134 98.808 69.7477 99.7035 70.0358C100.118 70.1713 100.555 70.2987 101.051 70.4328C102.378 70.7839 103.731 71.0331 105.097 71.1781C112.282 70.7865 118.932 67.7266 123.347 62.7762C127.563 58.0494 129.506 52.0231 128.958 45.3496C128.458 39.246 125.263 33.6032 119.962 29.4598C114.156 24.92 106.515 22.8047 99.5224 23.8007C95.6181 24.3563 92.2102 25.5265 89.3926 27.2787C86.1061 30.4742 83.7409 34.4654 82.5374 38.8469C80.4311 46.4819 81.9768 54.5159 86.7783 60.8885V60.8864Z" fill="#371A45"/>
<path d="M103.591 70.3562C99.1669 70.3562 94.6439 69.3162 90.4348 67.2197L90.3097 67.1567L87.9062 65.0264C87.7818 64.8807 84.8315 61.4204 82.4452 57.3976C79.9719 53.2251 79.7424 46.7292 79.7334 46.4548V46.3741L79.7431 46.2942C81.3406 33.5923 88.0755 26.3057 99.7606 24.6449C106.466 23.6896 113.782 25.7101 119.332 30.0479C124.442 34.0456 127.525 39.5042 128.01 45.4289C128.711 53.9664 125.073 61.5234 118.026 66.1519C113.77 68.9455 108.744 70.3562 103.591 70.3562ZM91.5291 65.4099C99.9183 69.5377 109.603 69.1576 116.834 64.4071C123.219 60.2136 126.512 53.3565 125.877 45.5942C125.439 40.2549 122.641 35.3154 117.997 31.6863C112.901 27.7028 106.199 25.847 100.067 26.719C89.3302 28.2476 83.3791 34.7069 81.8756 46.4649C81.9088 47.1892 82.2296 52.8572 84.295 56.3426C86.4262 59.9378 89.1131 63.1658 89.4975 63.6225L91.5291 65.4099Z" fill="#371A45"/>
<path d="M138.996 48.9058C139.319 43.6674 136.433 39.2343 132.55 39.0041C128.667 38.774 125.257 42.834 124.934 48.0724C124.611 53.3109 127.497 57.744 131.38 57.9741C135.263 58.2043 138.673 54.1443 138.996 48.9058Z" fill="white"/>
<path d="M131.686 59.0333C129.974 59.0333 128.363 58.3557 127.011 57.0738C124.972 55.1359 123.819 52.1017 123.846 48.7497C123.893 42.9646 127.554 38.1213 132.003 37.9526C133.805 37.8848 135.51 38.5624 136.927 39.9074C138.965 41.8459 140.119 44.8794 140.092 48.2321C140.045 54.0165 136.384 58.8598 131.931 59.0286C131.848 59.0319 131.765 59.0333 131.686 59.0333ZM132.245 40.0422C132.192 40.0422 132.139 40.0422 132.086 40.0456C128.758 40.1716 126.02 44.0826 125.982 48.7633C125.959 51.5041 126.899 54.0484 128.497 55.5655C129.484 56.5039 130.64 56.9748 131.848 56.9301C135.176 56.8041 137.914 52.8931 137.953 48.2124C137.975 45.4716 137.035 42.9273 135.437 41.4102C134.494 40.5165 133.393 40.0422 132.245 40.0422Z" fill="#371A45"/>
<path d="M139.92 49.9694C140.329 45.7433 138.103 42.0795 134.947 41.786C131.792 41.4925 128.902 44.6805 128.493 48.9066C128.084 53.1328 130.31 56.7966 133.466 57.0901C136.622 57.3836 139.511 54.1956 139.92 49.9694Z" fill="white"/>
<g opacity="0.35">
<path opacity="0.35" d="M128.684 52.1538C128.339 50.7655 128.384 49.2796 128.738 47.8851C129.794 50.9857 132.653 52.2704 135.369 50.7499C137.125 49.7681 138.416 47.8363 138.964 45.6843C139.033 45.8795 139.091 46.0848 139.143 46.2942C140.018 49.8304 138.383 54.0084 135.498 55.6251C132.613 57.2417 129.559 55.6881 128.684 52.1538Z" fill="#371A45"/>
</g>
<path d="M133.995 57.6592C132.772 57.6592 131.612 57.172 130.631 56.2417C129.016 54.7137 128.073 52.1329 128.106 49.3385C128.164 44.5698 130.893 40.7123 134.318 40.5558C135.619 40.4982 136.856 40.9847 137.895 41.9679C139.509 43.4965 140.452 46.0774 140.418 48.871C140.36 53.6391 137.632 57.4972 134.207 57.6538C134.136 57.6592 134.066 57.6592 133.995 57.6592ZM134.525 42.1772C134.483 42.1772 134.439 42.1772 134.395 42.1772C131.931 42.2897 129.811 45.5766 129.763 49.3555C129.735 51.7101 130.489 53.8465 131.781 55.0695C132.27 55.5329 133.078 56.0736 134.128 56.0269C136.592 55.9144 138.712 52.6275 138.759 48.8493C138.788 46.4948 138.034 44.3584 136.742 43.1353C136.273 42.6929 135.514 42.1766 134.525 42.1766V42.1772Z" fill="#371A45"/>
<g opacity="0.7">
<path opacity="0.7" d="M121.884 44.1116C122.153 41.9323 120.824 39.9824 118.916 39.7564C117.008 39.5305 115.243 41.1139 114.975 43.2932C114.706 45.4725 116.035 47.4224 117.943 47.6484C119.851 47.8743 121.615 46.2909 121.884 44.1116Z" fill="white"/>
</g>
<g opacity="0.7">
<path opacity="0.7" d="M119.621 52.377C119.809 51.4896 119.331 50.6419 118.554 50.4836C117.777 50.3253 116.995 50.9163 116.806 51.8037C116.618 52.6911 117.096 53.5388 117.873 53.6971C118.65 53.8554 119.432 53.2643 119.621 52.377Z" fill="white"/>
</g>
<g opacity="0.7">
<path opacity="0.7" d="M84.5676 49.2098C84.5676 49.2098 82.4392 35.2598 89.9076 30.7268C97.376 26.1939 106.606 27.8499 106.316 28.4671C106.316 28.4671 94.8813 30.2214 89.7632 38.5549C85.8168 44.9803 84.5676 49.2098 84.5676 49.2098Z" fill="white"/>
</g>
<path d="M105.399 53.0211C104.154 56.5662 99.2327 59.2298 96.2824 59.4351C92.6076 59.6878 85.4627 60.3159 83.691 61.1005C83.5639 61.149 83.448 61.222 83.3502 61.3153L83.4367 71.6511C70.3842 66.1282 68.6754 59.4886 69.619 54.6493C70.7133 49.0336 75.0973 45.7731 78.6054 44.5535C82.2636 43.2796 99.8189 39.0536 105.067 48.9381C105.821 50.3664 105.845 51.75 105.399 53.0211Z" fill="white"/>
<g opacity="0.35">
<path opacity="0.35" d="M105.398 53.0212C104.154 56.5663 99.2321 59.2298 96.2817 59.4351C92.607 59.6878 84.4411 61.4001 82.6701 62.1834C79.4613 59.1512 82.9577 55.4327 87.5387 55.6109C92.578 55.8026 101.441 56.8217 105.398 53.0212Z" fill="#293856"/>
<path opacity="0.35" d="M82.6426 62.3446L82.5735 62.2809C81.3458 61.1202 80.9836 59.7664 81.5442 58.4695C82.3446 56.6306 84.8691 55.3764 87.5436 55.4733C88.1485 55.4963 88.8086 55.5315 89.5089 55.5688C94.7224 55.8466 101.862 56.2267 105.301 52.9263L105.719 52.5245L105.528 53.0665C104.24 56.7342 99.1962 59.368 96.2909 59.5712C92.5961 59.8253 84.4703 61.5362 82.7269 62.308L82.6426 62.3446ZM87.2374 55.7382C84.7841 55.7382 82.5278 56.9036 81.7999 58.5759C81.2939 59.7393 81.614 60.9603 82.6986 62.0227C84.623 61.2266 92.6127 59.5516 96.2701 59.2995C98.9578 59.1125 103.521 56.7925 105.049 53.5097C101.385 56.4734 94.5461 56.1088 89.4958 55.8398C88.7976 55.8026 88.1388 55.7673 87.5353 55.7443C87.4351 55.7402 87.3356 55.7382 87.2388 55.7382H87.2374Z" fill="#371A45"/>
</g>
<path d="M83.4364 72.7013C83.2906 72.7016 83.1463 72.6723 83.0126 72.6153C69.2814 66.8051 67.5781 59.532 68.5652 54.4563C69.7231 48.5099 74.3241 44.9343 78.2429 43.5703C83.7557 41.6528 100.69 38.4343 106.013 48.4584C107.063 50.4355 107.01 52.5448 105.862 54.5565C103.988 57.838 99.4329 60.2705 96.3567 60.4833C89.263 60.9739 84.8417 61.6528 84.0861 62.0776C83.8857 62.2624 83.6204 62.3643 83.3453 62.3624C83.0702 62.3604 82.8065 62.2547 82.6088 62.0671C82.4112 61.8796 82.2948 61.6246 82.2839 61.3552C82.2729 61.0857 82.3683 60.8225 82.5502 60.6202C82.8903 60.2455 83.7944 59.2488 96.2067 58.3916C98.3863 58.2405 102.403 56.3196 103.994 53.532C104.786 52.1471 104.824 50.7655 104.115 49.4266C99.4149 40.5741 83.0769 44.1137 78.9584 45.5461C75.5981 46.7156 71.6545 49.7735 70.6632 54.8486C69.4383 61.1385 73.8769 66.469 83.8553 70.6917C84.0802 70.7874 84.2648 70.956 84.378 71.1693C84.4912 71.3825 84.5262 71.6274 84.4771 71.863C84.428 72.0985 84.2978 72.3104 84.1083 72.463C83.9189 72.6156 83.6816 72.6998 83.4364 72.7013Z" fill="#371A45"/>
<path d="M119.377 142.961C118.909 142.96 118.442 142.918 117.982 142.836C109.87 141.422 109.211 132.218 108.681 124.823C108.432 121.342 108.197 118.054 107.219 116.592C104.896 113.119 94.7628 110.019 92.1899 109.864C90.5696 109.765 84.8169 110.177 78.8589 119.688C74.8241 126.129 69.8318 127.273 66.5054 126.193C62.2666 124.82 59.8769 120.027 60.4175 113.987C61.3465 103.594 68.2799 95.7979 73.9344 92.2799C78.364 89.5235 81.2569 84.8476 81.6765 79.7712C82.2579 72.6722 82.6443 68.5681 82.6443 68.5275C82.6768 68.2556 82.8164 68.007 83.0333 67.8346C83.2502 67.6623 83.5272 67.5799 83.8053 67.605C84.0833 67.6301 84.3404 67.7608 84.5215 67.9691C84.7026 68.1774 84.7935 68.4468 84.7748 68.7199C84.7748 68.7599 84.3884 72.8531 83.807 79.9392C83.3376 85.6681 80.0742 90.9437 75.0826 94.0504C69.8394 97.3129 63.4113 104.539 62.55 114.17C62.0993 119.208 63.9159 123.146 67.1815 124.202C70.4304 125.255 74.2116 123.104 77.0402 118.588C83.4434 108.368 89.8652 107.611 92.3289 107.767C94.9087 107.926 106.066 111.032 109.013 115.439C110.297 117.358 110.539 120.748 110.82 124.673C111.323 131.688 111.892 139.64 118.361 140.768C119.769 141.013 120.934 140.772 121.926 140.033C125.906 137.064 126.909 126.617 127.971 115.554C129.465 99.9954 127.929 78.1206 127.913 77.9017C127.903 77.7644 127.921 77.6265 127.965 77.4959C128.01 77.3653 128.08 77.2446 128.172 77.1407C128.265 77.0367 128.377 76.9516 128.502 76.8901C128.628 76.8286 128.765 76.792 128.905 76.7824C129.045 76.7727 129.186 76.7902 129.319 76.8339C129.452 76.8775 129.575 76.9464 129.681 77.0367C129.787 77.127 129.874 77.2369 129.937 77.3601C130 77.4833 130.037 77.6173 130.047 77.7547C130.063 77.9756 131.611 100.018 130.101 115.75C128.946 127.784 127.948 138.178 123.221 141.702C122.12 142.532 120.766 142.976 119.377 142.961Z" fill="#371A45"/>
<path d="M89.8077 61.0572C89.6461 61.0575 89.4866 61.0218 89.3411 60.9529C89.1956 60.884 89.068 60.7837 88.9678 60.6595C83.4273 53.7956 86.6099 43.0872 86.7475 42.636C86.8313 42.3724 87.0177 42.1519 87.2664 42.0222C87.515 41.8925 87.8058 41.8641 88.0756 41.9432C88.3455 42.0223 88.5726 42.2025 88.7078 42.4447C88.843 42.6869 88.8753 42.9716 88.7977 43.237C88.759 43.3637 85.8073 53.366 90.6462 59.3592C90.7708 59.5137 90.8485 59.6995 90.8704 59.8953C90.8923 60.0912 90.8575 60.289 90.77 60.4664C90.6825 60.6437 90.5459 60.7933 90.3757 60.898C90.2055 61.0028 90.0086 61.0584 89.8077 61.0586V61.0572Z" fill="#371A45"/>
<path d="M81.3371 115.504C81.1371 115.505 80.9411 115.45 80.7713 115.346C80.6016 115.243 80.4649 115.094 80.3769 114.918C75.8837 105.966 65.1 103.885 64.9908 103.866C64.7169 103.809 64.4764 103.65 64.3209 103.422C64.1654 103.194 64.1073 102.915 64.1591 102.645C64.2108 102.376 64.3682 102.137 64.5976 101.98C64.827 101.822 65.1101 101.76 65.3862 101.805C65.8701 101.894 77.3388 104.108 82.2966 113.993C82.3766 114.153 82.4138 114.33 82.4046 114.508C82.3955 114.686 82.3404 114.859 82.2444 115.01C82.1484 115.161 82.0148 115.286 81.856 115.372C81.6973 115.459 81.5187 115.504 81.3371 115.504Z" fill="#371A45"/>
<path d="M128.022 126.241C127.844 126.241 127.668 126.198 127.511 126.115C127.354 126.033 127.221 125.913 127.123 125.766C122.511 118.813 110.063 123.249 109.938 123.295C109.674 123.386 109.384 123.371 109.131 123.254C108.878 123.138 108.681 122.928 108.583 122.671C108.485 122.415 108.494 122.13 108.608 121.88C108.721 121.629 108.93 121.432 109.19 121.33C109.767 121.12 123.371 116.261 128.917 124.623C129.022 124.782 129.082 124.965 129.09 125.154C129.097 125.343 129.053 125.53 128.961 125.696C128.868 125.862 128.732 126 128.567 126.097C128.401 126.193 128.211 126.244 128.019 126.243L128.022 126.241Z" fill="#371A45"/>
<path d="M122.312 94.8249C120.136 94.8215 117.967 94.5714 115.849 94.0795C114.906 93.8711 114.085 93.3039 113.569 92.5027C113.052 91.7015 112.882 90.732 113.094 89.8074C113.307 88.8828 113.885 88.0789 114.703 87.5726C115.52 87.0662 116.509 86.8988 117.453 87.1073C119.963 87.6493 124.78 88.3669 128.803 87.0293C129.642 86.7469 130.56 86.7979 131.361 87.1713C132.162 87.5447 132.782 88.2108 133.088 89.0269C133.394 89.8429 133.361 90.744 132.998 91.5369C132.634 92.3298 131.968 92.9514 131.142 93.2685C129.372 93.946 126.31 94.8249 122.312 94.8249ZM116.66 89.1163C116.312 89.1174 115.975 89.2368 115.707 89.4541C115.438 89.6714 115.255 89.9732 115.188 90.3081C115.113 90.686 115.192 91.0775 115.406 91.3998C115.621 91.722 115.955 91.9497 116.338 92.0346C122.949 93.5551 127.961 92.2379 130.361 91.313C130.672 91.1998 130.925 90.9698 131.064 90.6738C131.203 90.3777 131.216 90.0397 131.1 89.7342C130.985 89.4287 130.75 89.1807 130.448 89.0448C130.146 88.9088 129.801 88.896 129.49 89.0092C125.198 90.4321 120.323 89.8718 116.99 89.1447C116.882 89.1236 116.771 89.114 116.66 89.1163Z" fill="#371A45"/>
<path d="M107.608 99.9541C107.387 99.9541 107.167 99.9341 106.951 99.8945L87.2495 96.3332C85.2131 95.9652 83.8755 93.9664 84.2688 91.8781L86.7 78.9561C87.0926 76.8678 89.0696 75.4686 91.1061 75.8392L110.807 79.4005C112.844 79.7691 114.181 81.7673 113.788 83.8556L111.357 96.7777C111.176 97.7632 110.618 98.6437 109.796 99.2386C109.164 99.7007 108.397 99.9515 107.608 99.9541ZM90.4501 77.8746C89.6717 77.8746 88.9625 78.4845 88.8021 79.3362L86.3703 92.2582C86.1912 93.2068 86.7594 94.1121 87.636 94.2706L107.337 97.832C107.545 97.8675 107.758 97.8605 107.963 97.8114C108.167 97.7624 108.36 97.6722 108.527 97.5467C108.91 97.2676 109.169 96.8554 109.252 96.3948L111.684 83.4748C111.863 82.5262 111.295 81.621 110.419 81.4624L90.7176 77.9011C90.6295 77.8842 90.5399 77.8753 90.4501 77.8746Z" fill="#371A45"/>
<path d="M112.736 83.6625L110.305 96.5852C110.02 98.1009 108.597 99.1261 107.144 98.8639L87.4433 95.3019C85.9916 95.0397 85.0349 93.5842 85.3197 92.0685L87.7509 79.1464C88.0364 77.63 89.4583 76.6048 90.912 76.8677L110.613 80.4291C112.066 80.692 113.023 82.1467 112.736 83.6625Z" fill="white"/>
<path d="M107.605 99.0407C107.443 99.0404 107.281 99.0257 107.121 98.9967L87.42 95.4354C85.8882 95.1582 84.8859 93.6371 85.1859 92.0434L87.6171 79.1214C87.9164 77.5284 89.406 76.4578 90.9351 76.7343L110.636 80.2956C112.168 80.5727 113.17 82.0939 112.87 83.6876L110.439 96.6096C110.301 97.3664 109.873 98.043 109.243 98.5007C108.77 98.8477 108.196 99.037 107.605 99.0407ZM90.4498 76.9619C89.2312 76.9619 88.1286 77.8773 87.8853 79.1708L85.4541 92.0929C85.1817 93.5395 86.0852 94.919 87.4671 95.1691L107.168 98.7304C107.501 98.7887 107.842 98.7789 108.171 98.7017C108.5 98.6245 108.809 98.4816 109.079 98.2819C109.653 97.8654 110.042 97.2493 110.167 96.5601L112.599 83.6381C112.871 82.1921 111.967 80.8119 110.586 80.5626L90.8847 77.0006C90.7412 76.975 90.5957 76.9621 90.4498 76.9619Z" fill="#371A45"/>
<g opacity="0.35">
<path opacity="0.35" d="M107.353 99.4222L87.6523 95.8602C86.2007 95.5987 85.2419 94.1419 85.5281 92.6275L87.9586 79.7041C88.071 79.0951 88.3796 78.5375 88.8392 78.1131L87.0648 87.5436C86.7786 89.0587 87.6717 90.5019 89.048 90.7506L104.43 93.5327C103.793 92.7386 103.506 91.5474 103.751 90.3027C104.146 88.3154 105.756 86.9481 107.34 87.2536C108.925 87.5592 109.898 89.4144 109.503 91.4018C109.26 92.6275 108.556 93.6161 107.679 94.1243H107.698C109.075 94.3729 110.431 93.3349 110.718 91.8205L112.538 82.1393C112.938 82.7574 113.083 83.5015 112.945 84.2208L110.512 97.1435C110.23 98.6593 108.805 99.6851 107.353 99.4222Z" fill="#371A45"/>
</g>
<path d="M116.945 84.4234L114.514 97.3462C114.228 98.8619 112.806 99.8871 111.353 99.6248L107.144 98.8639C108.595 99.1262 110.019 98.101 110.304 96.5852L112.735 83.6625C113.021 82.1468 112.065 80.692 110.612 80.4291L114.821 81.19C116.274 81.4529 117.23 82.9077 116.945 84.4234Z" fill="white"/>
<path d="M111.815 99.8044C111.652 99.8041 111.49 99.7893 111.331 99.7604L107.123 99.0001L107.174 98.7338H107.177C107.509 98.7914 107.85 98.7813 108.178 98.704C108.506 98.6267 108.815 98.4839 109.084 98.2846C109.658 97.8682 110.048 97.2521 110.173 96.5629L112.604 83.6408C112.876 82.1949 111.973 80.8147 110.591 80.5653L110.642 80.2984L114.849 81.0586C116.38 81.3357 117.383 82.8569 117.083 84.4505L114.652 97.3726C114.513 98.1295 114.085 98.806 113.455 99.2637C112.981 99.6113 112.406 99.8009 111.815 99.8044ZM108.334 98.9432L111.376 99.4941C111.709 99.5523 112.05 99.5425 112.379 99.4654C112.708 99.3882 113.017 99.2452 113.287 99.0455C113.861 98.6291 114.25 98.0129 114.375 97.3238L116.806 84.4018L116.945 84.4261L116.806 84.4018C117.079 82.9558 116.176 81.5756 114.794 81.3262L111.752 80.7754C112.617 81.4069 113.09 82.5296 112.872 83.6889L110.44 96.611C110.303 97.3678 109.875 98.0444 109.245 98.5021C108.97 98.7004 108.662 98.8488 108.334 98.9405V98.9432Z" fill="#371A45"/>
<g opacity="0.35">
<path opacity="0.35" d="M111.353 99.6255L107.146 98.8639C108.598 99.1268 110.021 98.1003 110.306 96.5852L110.89 93.4833L113.165 93.8898C113.534 93.9537 113.912 93.939 114.275 93.8469C114.638 93.7548 114.976 93.5873 115.267 93.3559L114.517 97.3421C114.228 98.8626 112.807 99.887 111.353 99.6255Z" fill="#371A45"/>
</g>
<path d="M111.818 100.617C111.603 100.617 111.389 100.598 111.179 100.56L106.97 99.799L107.32 97.9336C107.541 97.9711 107.768 97.9635 107.986 97.9112C108.204 97.859 108.409 97.7633 108.587 97.63C108.99 97.3353 109.263 96.9011 109.351 96.4158L111.782 83.4931C111.971 82.4896 111.368 81.5356 110.438 81.3655L110.789 79.4995L114.998 80.2604C116.98 80.6188 118.281 82.5641 117.898 84.5969L115.467 97.5196C115.29 98.4798 114.746 99.3377 113.946 99.9175C113.331 100.369 112.585 100.614 111.818 100.617ZM110.443 98.498L111.53 98.6945C111.751 98.7322 111.978 98.7248 112.197 98.6725C112.415 98.6203 112.62 98.5244 112.799 98.391C113.201 98.0962 113.473 97.6618 113.56 97.1767L115.996 84.252L116.947 84.4234L115.996 84.252C116.185 83.2465 115.581 82.2911 114.648 82.123L113.562 81.9265C113.767 82.542 113.811 83.1982 113.689 83.8346L111.257 96.7553C111.139 97.3931 110.859 97.9915 110.443 98.4953V98.498Z" fill="#371A45"/>
<path d="M117.22 88.1277C120.113 88.7551 124.969 89.4063 129.146 88.0193C129.485 87.9064 129.846 87.8719 130.2 87.9184C130.555 87.9649 130.894 88.0911 131.191 88.2873C131.487 88.4834 131.734 88.7442 131.911 89.0491C132.087 89.3541 132.19 89.695 132.21 90.0452C132.239 90.5223 132.113 90.996 131.851 91.399C131.589 91.8019 131.204 92.1135 130.75 92.2894C128.28 93.238 123.014 94.6473 116.095 93.055C115.443 92.9076 114.875 92.5178 114.51 91.9677C114.145 91.4177 114.013 90.7503 114.14 90.1062C114.206 89.7762 114.339 89.4624 114.53 89.1834C114.722 88.9044 114.968 88.6656 115.255 88.4813C115.542 88.297 115.864 88.1708 116.201 88.11C116.539 88.0493 116.885 88.0553 117.22 88.1277Z" fill="white"/>
<g opacity="0.35">
<path opacity="0.35" d="M132.118 90.8238C132.019 91.1541 131.844 91.4579 131.607 91.712C131.37 91.9662 131.077 92.1638 130.75 92.29C128.282 93.2387 123.015 94.6473 116.096 93.0557C115.444 92.9078 114.876 92.5177 114.511 91.9676C114.147 91.4174 114.015 90.7501 114.142 90.1062C114.159 90.0256 114.177 89.9484 114.2 89.8725C114.236 89.7568 114.279 89.6436 114.33 89.5337C114.481 89.9238 114.728 90.2714 115.048 90.5459C115.369 90.8204 115.754 91.0134 116.168 91.1077C123.09 92.7013 128.357 91.2933 130.823 90.342C131.343 90.143 131.771 89.7637 132.025 89.2762C132.133 89.5198 132.196 89.7806 132.21 90.0459C132.226 90.3084 132.195 90.5717 132.118 90.8238Z" fill="#371A45"/>
</g>
<path d="M122.312 94.7225C120.143 94.7182 117.983 94.4681 115.872 93.9772C114.968 93.7635 114.185 93.2094 113.693 92.4347C113.202 91.66 113.041 90.7269 113.246 89.8369C113.451 88.947 114.004 88.1717 114.787 87.6785C115.57 87.1854 116.52 87.014 117.431 87.2015C119.952 87.7483 124.787 88.4651 128.836 87.1201C129.649 86.8515 130.536 86.9044 131.309 87.2673C132.082 87.6303 132.68 88.2748 132.976 89.0636C133.271 89.8524 133.241 90.7231 132.892 91.4903C132.542 92.2576 131.901 92.8608 131.104 93.1716C129.342 93.8498 126.295 94.7225 122.312 94.7225ZM116.66 89.014C116.289 89.0154 115.929 89.143 115.642 89.3751C115.355 89.6072 115.16 89.9295 115.088 90.2871C115.008 90.6903 115.091 91.1082 115.32 91.4522C115.549 91.7961 115.906 92.039 116.315 92.1295C122.951 93.6567 127.987 92.3327 130.398 91.4038C130.724 91.2739 130.986 91.0248 131.127 90.7092C131.269 90.3935 131.28 90.0362 131.158 89.7128C131.036 89.3894 130.79 89.1253 130.472 88.9765C130.155 88.8278 129.791 88.806 129.457 88.9157C125.188 90.3339 120.332 89.7729 117.014 89.0512C116.898 89.027 116.779 89.0152 116.66 89.016V89.014Z" fill="#371A45"/>
<g opacity="0.35">
<path opacity="0.35" d="M85.2703 90.2506C85.2703 90.2506 82.92 89.7593 80.6244 89.1936C80.1932 89.0876 79.7917 88.8885 79.4492 88.6108C80.5364 87.1361 81.3799 85.5028 81.9488 83.7709C81.9913 83.7782 82.0333 83.788 82.0746 83.8001C83.6742 84.2378 85.4998 84.7019 86.2533 84.7751L85.2703 90.2506Z" fill="#371A45"/>
</g>
<path d="M87.3347 81.1887L86.3538 86.6655C86.3538 86.6655 83.9987 86.1736 81.7078 85.6078C80.1179 85.2155 79.1557 83.6639 79.5649 82.1603C79.9707 80.6595 81.5855 79.7847 83.1595 80.2143C84.7577 80.6507 86.5819 81.1162 87.3347 81.1887Z" fill="white"/>
<g opacity="0.35">
<path opacity="0.35" d="M86.3533 86.6641C86.3533 86.6641 84.003 86.1729 81.7073 85.6071C80.1216 85.2148 79.1559 83.6652 79.5644 82.1603L79.5872 82.0844C79.7226 81.6374 79.9728 81.2319 80.3138 80.9068C80.4375 81.4264 80.7055 81.9024 81.0883 82.2819C81.4711 82.6613 81.9535 82.9295 82.4822 83.0567C84.2837 83.5019 86.1217 83.8996 86.8261 84.0507L86.3533 86.6641Z" fill="#371A45"/>
</g>
<path d="M107.607 99.8538C107.393 99.8538 107.179 99.8345 106.969 99.7962L87.2678 96.2349C85.2866 95.8771 83.9857 93.9311 84.3686 91.8984L86.7998 78.9764C87.1821 76.9436 89.1045 75.5776 91.0856 75.9368L110.787 79.4981C112.768 79.8565 114.069 81.8019 113.686 83.8346L111.256 96.7553C111.08 97.7157 110.536 98.5738 109.735 99.1532C109.121 99.6047 108.375 99.8503 107.607 99.8538ZM90.4497 77.775C89.6202 77.775 88.8708 78.416 88.7008 79.3185L86.2703 92.2406C86.0816 93.2454 86.6851 94.2008 87.6176 94.3695L107.319 97.9309C107.54 97.9686 107.767 97.9611 107.986 97.9088C108.204 97.8566 108.409 97.7608 108.588 97.6273C108.991 97.3326 109.265 96.8984 109.352 96.4131L111.783 83.4904L112.735 83.6625L111.783 83.4904C111.972 82.4855 111.369 81.5301 110.436 81.3621L90.7352 77.8001C90.641 77.7834 90.5454 77.775 90.4497 77.775Z" fill="#371A45"/>
<path d="M87.1327 87.7977L86.1511 87.5944C86.1276 87.5897 83.7524 87.0924 81.4705 86.5286C80.9631 86.406 80.4859 86.1852 80.0668 85.8792C79.6478 85.5732 79.2954 85.1881 79.0304 84.7466C78.7746 84.3261 78.607 83.8598 78.5375 83.375C78.468 82.8902 78.4979 82.3967 78.6255 81.9234C78.7531 81.4501 78.9758 81.0065 79.2806 80.6186C79.5854 80.2308 79.9661 79.9065 80.4005 79.6648C80.853 79.4106 81.3528 79.2476 81.8705 79.1854C82.3882 79.1233 82.9133 79.1633 83.415 79.303C86.1649 80.053 87.1098 80.217 87.4292 80.2475L88.4661 80.3484L87.1327 87.7977ZM82.3422 81.0531C81.9985 81.0522 81.6605 81.1396 81.362 81.3065C81.1499 81.4235 80.9639 81.5811 80.815 81.7699C80.6662 81.9587 80.5575 82.1748 80.4955 82.4055C80.4335 82.6363 80.4194 82.8768 80.454 83.113C80.4886 83.3492 80.5712 83.5761 80.697 83.7804C80.8323 84.0051 81.0121 84.201 81.2257 84.3566C81.4394 84.5122 81.6827 84.6243 81.9413 84.6863C83.2927 85.0203 84.6773 85.3307 85.5725 85.5258L86.2112 81.9584C85.5718 81.8229 84.5522 81.5782 82.8931 81.1263C82.7137 81.0777 82.5284 81.0531 82.3422 81.0531Z" fill="#371A45"/>
<path d="M95.9585 97.3041C95.927 97.3041 95.8955 97.3013 95.8645 97.296C95.7951 97.284 95.7287 97.2588 95.6693 97.2216C95.6099 97.1845 95.5586 97.1362 95.5183 97.0795C95.478 97.0228 95.4496 96.9589 95.4346 96.8913C95.4196 96.8238 95.4184 96.7541 95.431 96.6861L96.5709 90.3996C96.6366 90.0286 96.5511 89.6472 96.3329 89.3373C96.1148 89.0274 95.7812 88.8137 95.4041 88.7423L95.1684 88.6982C94.5178 88.5744 93.9423 88.2066 93.5643 87.673C93.1864 87.1394 93.036 86.4823 93.145 85.8416L94.6098 77.4606C94.6196 77.391 94.6436 77.3239 94.6803 77.2636C94.7171 77.2032 94.7658 77.1506 94.8237 77.1091C94.8816 77.0675 94.9474 77.0378 95.0172 77.0217C95.087 77.0056 95.1594 77.0034 95.2301 77.0152C95.3008 77.0271 95.3684 77.0528 95.4288 77.0907C95.4891 77.1287 95.5411 77.1782 95.5816 77.2362C95.6221 77.2943 95.6502 77.3597 95.6644 77.4286C95.6785 77.4976 95.6784 77.5686 95.664 77.6375L94.1992 86.0191C94.1362 86.389 94.223 86.7684 94.4412 87.0765C94.6595 87.3846 94.9918 87.5969 95.3674 87.6683L95.6032 87.7117C96.2563 87.8355 96.8339 88.2055 97.2118 88.7421C97.5897 89.2788 97.7379 89.9393 97.6244 90.5819L96.488 96.8711C96.4659 96.9928 96.4006 97.103 96.3037 97.1822C96.2069 97.2614 96.0846 97.3046 95.9585 97.3041Z" fill="#371A45"/>
<path d="M104.407 88.7782C104.347 89.0818 104.297 91.6105 104.297 91.6105L106.058 91.9493C107.271 92.1803 108.498 91.1362 108.798 89.6184C109.099 88.1006 108.361 86.6818 107.148 86.4507L105.386 86.1153C105.386 86.1153 104.505 88.2856 104.407 88.7782Z" fill="#22A7F0"/>
<path d="M106.391 92.6322C106.236 92.6322 106.082 92.6177 105.93 92.5889L103.617 92.1485L103.628 91.5976C103.643 90.8204 103.686 88.9774 103.751 88.6535C103.855 88.1264 104.614 86.242 104.765 85.87L104.973 85.3652L107.278 85.8043C108.07 85.9554 108.73 86.469 109.139 87.2503C109.519 87.9787 109.631 88.8622 109.458 89.7397C109.12 91.4268 107.801 92.6322 106.391 92.6322ZM104.977 91.0738L106.185 91.3035C107.015 91.4621 107.913 90.6327 108.142 89.491C108.259 88.9002 108.189 88.3168 107.945 87.8479C107.729 87.4332 107.4 87.1649 107.02 87.0924L105.805 86.8607C105.48 87.6819 105.114 88.6474 105.064 88.9002C105.037 89.0804 105.004 90.0636 104.977 91.0725V91.0738Z" fill="#371A45"/>
<path d="M107.047 89.2903C107.348 87.7721 106.609 86.354 105.396 86.123C104.184 85.8919 102.957 86.9354 102.655 88.4536C102.354 89.9718 103.093 91.3898 104.306 91.6209C105.519 91.852 106.746 90.8085 107.047 89.2903Z" fill="#22A7F0"/>
<path d="M104.63 92.2968C104.475 92.2968 104.32 92.2823 104.168 92.2535C103.376 92.1024 102.717 91.5888 102.308 90.8075C101.928 90.0798 101.815 89.1956 101.989 88.3181C102.36 86.4473 103.94 85.1701 105.514 85.4723C107.089 85.7745 108.065 87.5376 107.694 89.4077C107.359 91.0914 106.04 92.2968 104.63 92.2968ZM105.051 86.736C104.28 86.736 103.509 87.5206 103.302 88.5654C103.184 89.1563 103.254 89.7404 103.499 90.2086C103.715 90.6232 104.043 90.8916 104.424 90.9641C105.257 91.1219 106.152 90.2933 106.381 89.1515C106.609 88.0098 106.093 86.9115 105.259 86.7529C105.19 86.7409 105.12 86.7352 105.051 86.736Z" fill="#371A45"/>
<path d="M144.158 159.009C151.434 160.856 157.331 162.353 154.491 173.103C151.651 183.852 145.753 182.355 138.477 180.508C131.202 178.661 117.347 170.005 118.914 164.071C120.482 158.137 136.882 157.162 144.158 159.009Z" fill="white"/>
<path d="M145.772 181.933C143.534 181.933 141.053 181.303 138.441 180.64C130.826 178.706 117.207 169.992 118.781 164.039C119.741 160.407 125.831 159.002 129.376 158.489C134.431 157.756 140.385 157.913 144.191 158.879C147.774 159.789 151.158 160.648 153.214 162.622C155.495 164.812 155.941 168.153 154.624 173.138C152.8 180.037 149.652 181.933 145.772 181.933ZM135.994 158.299C133.793 158.296 131.594 158.448 129.416 158.755C125.939 159.26 119.968 160.624 119.047 164.108C117.54 169.811 131.177 178.518 138.509 180.38C145.795 182.229 151.549 183.69 154.354 173.072C155.644 168.19 155.22 164.932 153.019 162.817C151.014 160.893 147.666 160.044 144.121 159.143C141.934 158.585 139.028 158.299 135.994 158.299Z" fill="#371A45"/>
<g opacity="0.35">
<path opacity="0.35" d="M154.489 173.102C151.649 183.854 145.75 182.355 138.475 180.509C131.201 178.663 117.344 170.007 118.913 164.071C118.971 163.848 119.051 163.632 119.152 163.424C123.15 168.119 131.456 172.741 136.546 174.033C143.82 175.879 149.719 177.377 152.559 166.629C152.933 165.214 153.156 163.959 153.242 162.844C155.176 164.797 155.879 167.844 154.489 173.102Z" fill="#371A45"/>
</g>
<path d="M145.847 182.769C143.47 182.769 140.877 182.112 138.23 181.439C131.495 179.729 116.109 170.856 117.965 163.831C118.766 160.797 122.775 158.609 129.252 157.67C134.408 156.925 140.497 157.087 144.402 158.077C148.097 159.014 151.587 159.9 153.803 162.029C156.32 164.446 156.84 168.042 155.439 173.344C153.478 180.767 149.991 182.769 145.847 182.769ZM136.004 159.122C133.841 159.119 131.68 159.269 129.538 159.571C123.973 160.377 120.447 162.105 119.864 164.31C118.577 169.181 131.032 177.623 138.722 179.575C146.082 181.444 150.945 182.679 153.54 172.86C155.125 166.861 153.666 164.589 152.43 163.402C150.588 161.633 147.493 160.847 143.91 159.938C141.787 159.401 138.961 159.124 136.004 159.124V159.122Z" fill="#371A45"/>
<path d="M165.965 170.032C162.072 168.971 158.12 170.917 157.139 174.377C156.158 177.837 158.518 181.502 162.411 182.563C165.282 183.346 174.076 182.071 178.494 181.344C178.729 181.305 178.947 181.202 179.124 181.046C179.3 180.891 179.428 180.689 179.491 180.464C179.555 180.24 179.552 180.002 179.483 179.78C179.413 179.557 179.28 179.358 179.1 179.207C175.697 176.356 168.837 170.814 165.965 170.032Z" fill="#D73C2C"/>
<path d="M163.565 171.119C161.063 170.437 158.461 171.911 157.752 174.411C157.043 176.91 158.496 179.493 160.997 180.17C163.498 180.848 173.135 178.602 173.135 178.602C173.135 178.602 166.066 171.8 163.565 171.119Z" fill="#E5A900"/>
<path d="M161.711 172.719C160.04 172.264 158.344 173.098 157.923 174.583C157.502 176.068 158.515 177.641 160.185 178.096C161.855 178.552 168.198 177.387 168.198 177.387C168.198 177.387 163.381 173.174 161.711 172.719Z" fill="#FFFF00"/>
<path d="M166.201 183.627C164.379 183.627 162.861 183.505 161.905 183.203C157.55 181.824 155.062 177.516 156.351 173.599C157.64 169.682 162.234 167.617 166.588 168.996C169.411 169.89 175.271 174.88 179.691 178.909C180.002 179.193 180.224 179.557 180.331 179.96C180.437 180.362 180.425 180.786 180.294 181.182C180.163 181.578 179.92 181.929 179.593 182.194C179.266 182.459 178.868 182.627 178.447 182.678C174.488 183.163 169.763 183.627 166.201 183.627ZM163.834 170.491C161.273 170.491 158.969 171.911 158.217 174.191C157.259 177.098 159.185 180.32 162.509 181.373C164.387 181.968 170.256 181.743 178.206 180.77C178.256 180.764 178.304 180.744 178.344 180.712C178.383 180.68 178.412 180.638 178.428 180.59C178.444 180.543 178.445 180.492 178.432 180.443C178.419 180.395 178.393 180.351 178.355 180.317C172.488 174.969 167.864 171.421 165.985 170.826C165.29 170.605 164.565 170.492 163.834 170.491Z" fill="#371A45"/>
<path d="M156.614 180.056L159.822 168.844C160.21 167.489 159.086 166.066 157.463 165.863L155.118 165.566L150.857 180.457L153.018 181.399C154.512 182.052 156.228 181.411 156.614 180.056Z" fill="#F92323"/>
<g opacity="0.7">
<path opacity="0.7" d="M157.462 165.863L155.116 165.567L154.494 167.741L156.813 168.034C158.435 168.238 159.56 169.66 159.172 171.016L156.503 180.346C156.547 180.252 156.584 180.155 156.614 180.056L159.821 168.844C160.208 167.489 159.084 166.071 157.462 165.863Z" fill="white"/>
</g>
<g opacity="0.35">
<path opacity="0.35" d="M159.822 168.845L156.614 180.055C156.225 181.41 154.511 182.052 153.02 181.399L150.859 180.458L152.991 173.012L155.003 173.893C156.498 174.545 158.213 173.903 158.602 172.549L159.886 168.061C159.918 168.324 159.896 168.59 159.822 168.845Z" fill="#371A45"/>
</g>
<path d="M154.512 182.785C154.023 182.784 153.54 182.682 153.095 182.486L149.683 180.996L154.4 164.504L158.105 164.972C158.586 165.028 159.049 165.186 159.463 165.433C159.876 165.68 160.231 166.012 160.502 166.406C160.73 166.733 160.883 167.104 160.95 167.495C161.017 167.886 160.996 168.286 160.889 168.668L157.432 180.746C157.214 181.511 156.672 182.127 155.903 182.481C155.468 182.681 154.993 182.785 154.512 182.785ZM152.029 179.917L153.892 180.73C154.076 180.814 154.276 180.858 154.478 180.861C154.681 180.863 154.882 180.823 155.068 180.744C155.18 180.697 155.281 180.627 155.363 180.538C155.445 180.45 155.507 180.344 155.543 180.23L158.999 168.152C159.029 168.036 159.032 167.915 159.009 167.797C158.986 167.679 158.937 167.568 158.866 167.47C158.749 167.308 158.599 167.172 158.424 167.07C158.25 166.969 158.055 166.905 157.854 166.883L155.832 166.628L152.029 179.917Z" fill="#371A45"/>
<path d="M138.115 181.374C137.855 181.373 137.606 181.272 137.422 181.091C137.239 180.911 137.136 180.666 137.136 180.411V178.205C137.145 171.971 138.765 165.84 141.845 160.385L142.935 158.456C143.062 158.233 143.273 158.068 143.523 157.998C143.773 157.927 144.042 157.957 144.269 158.081C144.497 158.205 144.665 158.412 144.737 158.657C144.809 158.902 144.778 159.165 144.652 159.388L143.561 161.317C140.642 166.488 139.106 172.299 139.098 178.209V180.414C139.097 180.54 139.072 180.665 139.022 180.782C138.973 180.898 138.9 181.004 138.809 181.093C138.718 181.183 138.61 181.253 138.491 181.301C138.372 181.349 138.244 181.374 138.115 181.374Z" fill="#371A45"/>
<path d="M16.476 197.817C16.476 198.142 15.797 198.429 14.7825 198.581C14.5325 198.62 14.3015 198.735 14.1226 198.91C13.9436 199.086 13.826 199.312 13.7866 199.557C13.6271 200.552 13.3386 201.217 13.0071 201.217C12.6756 201.217 12.3871 200.552 12.2276 199.557C12.1884 199.312 12.0708 199.085 11.8919 198.91C11.7129 198.735 11.4818 198.619 11.2317 198.581C10.2165 198.425 9.53613 198.142 9.53613 197.817C9.53613 197.492 10.2158 197.205 11.2304 197.052C11.4807 197.014 11.7123 196.899 11.8915 196.723C12.0707 196.548 12.1884 196.321 12.2276 196.075C12.3871 195.08 12.6756 194.415 13.0071 194.415C13.3386 194.415 13.6271 195.08 13.7866 196.075C13.8252 196.321 13.9426 196.549 14.1219 196.725C14.3012 196.901 14.533 197.017 14.7838 197.056C15.797 197.207 16.476 197.491 16.476 197.817Z" fill="white"/>
<path d="M168.676 145.794C168.596 146.148 167.787 146.296 166.643 146.227C166.361 146.21 166.08 146.281 165.842 146.43C165.604 146.578 165.42 146.797 165.317 147.055C164.901 148.101 164.421 148.759 164.06 148.681C163.699 148.602 163.547 147.808 163.618 146.687C163.636 146.411 163.563 146.136 163.411 145.903C163.259 145.669 163.036 145.489 162.773 145.388C161.705 144.98 161.032 144.509 161.108 144.155C161.185 143.8 162 143.65 163.144 143.721C163.426 143.738 163.707 143.667 163.945 143.518C164.184 143.37 164.368 143.15 164.471 142.892C164.887 141.845 165.368 141.188 165.728 141.266C166.089 141.344 166.241 142.138 166.17 143.261C166.152 143.537 166.225 143.812 166.377 144.046C166.529 144.279 166.753 144.459 167.016 144.56C168.086 144.969 168.756 145.438 168.676 145.794Z" fill="white"/>
<path d="M192 25.6071C192 26.034 191.107 26.4058 189.773 26.6111C189.444 26.6617 189.14 26.8132 188.905 27.0438C188.67 27.2744 188.515 27.5723 188.463 27.8945C188.255 29.2017 187.873 30.0772 187.438 30.0772C187.002 30.0772 186.622 29.2017 186.414 27.8945C186.362 27.5723 186.207 27.2746 185.971 27.0441C185.736 26.8135 185.432 26.6619 185.104 26.6111C183.769 26.4071 182.874 26.034 182.874 25.6071C182.874 25.1802 183.765 24.8022 185.099 24.5983C185.428 24.5476 185.733 24.396 185.968 24.1653C186.204 23.9346 186.359 23.6366 186.411 23.3142C186.619 22.0056 187 21.1301 187.435 21.1301C187.871 21.1301 188.251 22.0056 188.46 23.3142C188.512 23.6366 188.667 23.9346 188.902 24.1653C189.138 24.396 189.442 24.5476 189.771 24.5983C191.104 24.8022 192 25.1774 192 25.6071Z" fill="white"/>
<path d="M162.575 90.2112C163.074 89.7214 163.074 88.9273 162.575 88.4375C162.075 87.9477 161.265 87.9477 160.765 88.4375C160.265 88.9273 160.265 89.7214 160.765 90.2112C161.265 90.7009 162.075 90.7009 162.575 90.2112Z" fill="white"/>
<path d="M12.0412 56.1224C12.3018 55.1787 11.7327 54.2066 10.77 53.9511C9.80734 53.6956 8.81562 54.2535 8.55497 55.1971C8.29431 56.1408 8.86343 57.1128 9.82612 57.3683C10.7888 57.6238 11.7805 57.066 12.0412 56.1224Z" fill="white"/>
<path d="M167.979 2.66051C168.479 2.17072 168.479 1.37663 167.979 0.886841C167.479 0.397056 166.669 0.397053 166.169 0.886838C165.67 1.37662 165.67 2.17073 166.169 2.66052C166.669 3.1503 167.479 3.15029 167.979 2.66051Z" fill="white"/>
<path d="M41.608 8.01131C42.5949 7.87052 43.2786 6.97214 43.1349 6.00473C42.9913 5.03731 42.0748 4.36719 41.0878 4.50798C40.1009 4.64876 39.4172 5.54714 39.5608 6.51456C39.7045 7.48198 40.621 8.15209 41.608 8.01131Z" fill="white"/>
<path d="M2.30998 186.821C3.10357 186.821 3.74691 186.19 3.74691 185.413C3.74691 184.635 3.10357 184.004 2.30998 184.004C1.51638 184.004 0.873047 184.635 0.873047 185.413C0.873047 186.19 1.51638 186.821 2.30998 186.821Z" fill="white"/>
<path d="M187.547 73.5185C187.91 73.5185 188.205 73.2297 188.205 72.8734C188.205 72.5171 187.91 72.2283 187.547 72.2283C187.183 72.2283 186.889 72.5171 186.889 72.8734C186.889 73.2297 187.183 73.5185 187.547 73.5185Z" fill="white"/>
<path d="M132.395 207.36C132.631 207.007 132.53 206.533 132.169 206.301C131.809 206.07 131.325 206.169 131.089 206.523C130.853 206.876 130.954 207.35 131.315 207.581C131.675 207.813 132.159 207.714 132.395 207.36Z" fill="white"/>
<path d="M55.4819 39.0141C55.8982 38.7205 55.9929 38.1517 55.6935 37.7437C55.394 37.3356 54.8137 37.2428 54.3974 37.5363C53.981 37.8299 53.8863 38.3987 54.1858 38.8067C54.4853 39.2148 55.0656 39.3076 55.4819 39.0141Z" fill="white"/>
<path d="M23.5045 76.2532C23.5137 76.433 23.4683 76.6114 23.3741 76.7659C23.2799 76.9204 23.141 77.0441 22.9751 77.1213C22.8092 77.1984 22.6237 77.2257 22.442 77.1995C22.2603 77.1733 22.0906 77.0949 21.9543 76.9742C21.8181 76.8535 21.7214 76.6959 21.6766 76.5213C21.6317 76.3468 21.6407 76.1631 21.7023 75.9935C21.7639 75.8239 21.8754 75.6761 22.0228 75.5686C22.1701 75.4612 22.3467 75.399 22.5301 75.3899C22.6519 75.3838 22.7737 75.4014 22.8886 75.4415C23.0035 75.4816 23.1092 75.5435 23.1997 75.6237C23.2902 75.7039 23.3637 75.8007 23.416 75.9087C23.4683 76.0167 23.4983 76.1338 23.5045 76.2532Z" fill="white"/>
<path d="M3.05356 125.823C3.69663 125.311 3.79503 124.386 3.27335 123.755C2.75167 123.125 1.80746 123.029 1.16439 123.54C0.521313 124.051 0.4229 124.977 0.944579 125.607C1.46626 126.237 2.41048 126.334 3.05356 125.823Z" fill="white"/>
</svg>
